<?xml version="1.0" encoding="UTF-8"?>
<svg id="Layer_1" xmlns="http://www.w3.org/2000/svg" version="1.1" viewBox="0 0 720 720">
  <!-- Generator: Adobe Illustrator 30.3.0, SVG Export Plug-In . SVG Version: 2.1.3 Build 182)  -->
  <defs>
    <style>
      .st0 {
        fill: #fff;
      }

      .st1 {
        fill: #010101;
      }
    </style>
  </defs>
  <path class="st0" d="M49.8,264.03s47.55,26.71,68.99,46.09c21.42,19.37,43.73,45.81,43.73,45.81l10.43-9.86,1.48-1.4.42.33s-.13-.18-.32-.42l4.78-4.51-.12-1.44.13.06c0,.46,0,.92-.01,1.38-1.9,153.68-4.02,351.07-4.02,351.07l93.05,3.45,28.56,1.06,64.29,2.38,2,.08,26.46-.66,52.99-1.32,22.95-.58,71.19-1.77s-2.14-202.01-4.63-350.78l4.62,3.73,7.36,5.95,124.42-84c1.66-1.12,2.14-3.36,1.08-5.05l-9.97-16.02.22-.16s-.13.08-.23.15l-93.36-150s-.17-.28-.49-.8c-.84-1.32-2.71-4.18-5.38-7.68h0c-2.53-3.32-5.75-7.19-9.51-10.92,0,0-.01-.02-.03-.03-.69-.69-1.4-1.37-2.12-2.03-.74-.68-1.5-1.36-2.27-2.02-1.66-1.42-4.65-3.3-8.53-5.47-.23-.13-.46-.26-.66-.38-.1-.05-.2-.11-.29-.16-.49-.28-.88-.49-1.16-.64-.05-.03-.1-.05-.14-.08-.08-.04-.14-.08-.18-.1-.08-.04-.12-.06-.12-.06l-.04-.02c-21.48-11.64-63.84-30.14-74.66-34.83l-.05-.02c-1.62-.71-2.51-1.09-2.51-1.09l-1.36-.72h-.03s-14.17-7.5-14.17-7.5c0,0-4.57,3.44-15.01,7.14,0,0-28.14,8.27-58.96,8.98-25.73.59-52.1-5.6-63.72-8.74-.05-.01-.1-.03-.16-.04-3.82-1.03-6-1.73-6-1.73-8.79-3.44-13.05-6.47-13.45-6.76-.02-.01-.03-.02-.03-.02l-14.19,6.45h-.33l.03.14c-25.6,11.68-76.85,35.27-84.29,40.08-3.53,2.29-7.87,6.6-11.99,11.22-4.13,4.62-8.05,9.53-10.74,13.03h0c-2.22,2.88-3.61,4.81-3.61,4.81.06.03.13.08.19.11l-.03.04-.14.2-.03-.35L57.76,252.02s-.08-.03-.12-.05l.1.08-7.94,11.98ZM532.16,342.98v-.15h.03s-.03.15-.03.15Z"/>
  <g>
    <path class="st1" d="M348.67,699.36h-.34c-46.94-.01-171.85-6.95-173.11-7.02-.65-.04-1.15-.57-1.14-1.22.05-4.9,5.3-490.51,6.61-527.08,1.29-36.04-12.84-61.33-21.12-65.36-.32-.16-.56-.45-.64-.79-.09-.35-.02-.71.19-1,.67-.93,16.61-22.86,26.67-29.37,9.94-6.43,95.31-45.12,98.93-46.76.61-.28,1.32,0,1.6.6.28.61,0,1.32-.6,1.6-.89.4-88.83,40.25-98.62,46.59-8.44,5.46-21.83,23.1-25.22,27.67,9.85,6.38,22.45,32.51,21.23,66.91-1.27,35.68-6.3,499.26-6.59,525.87,12.77.7,127.37,6.94,171.82,6.95h.34c63.5,0,174.25-3.88,186.9-4.33-.26-24.64-4.52-417.39-7.91-492.37-1.83-40.57,8.54-66.55,17.57-81.21,8.15-13.24,16.54-19.79,19.41-21.8-2.08-3.26-9.31-14.01-18.95-22.2-11.47-9.75-87.29-42.34-88.05-42.67-.03-.01-.06-.03-.09-.04l-15.56-8.22c-.59-.31-.82-1.04-.5-1.63.31-.59,1.04-.82,1.63-.5l15.52,8.2c3.74,1.6,76.92,33.09,88.62,43.03,11.76,9.99,19.74,23.23,20.07,23.78.34.57.16,1.31-.41,1.66-.1.06-10.19,6.28-19.72,21.81-8.81,14.36-18.93,39.84-17.13,79.69,3.48,77.07,7.88,489.48,7.93,493.63,0,.66-.51,1.2-1.16,1.22-1.21.04-121.04,4.38-188.16,4.38Z"/>
    <path class="st1" d="M364.77,40.38c-56.12,0-79.31-16.84-80.27-17.56-.53-.4-.64-1.16-.25-1.69.4-.53,1.16-.64,1.69-.25.23.17,23.62,17.08,78.83,17.08s76.85-15.74,77.06-15.9c.53-.4,1.29-.29,1.69.24.4.53.29,1.29-.24,1.69-.89.67-22.4,16.39-78.52,16.39Z"/>
    <path class="st1" d="M360,61.35c-59.33,0-83.39-18.82-96.32-28.93l-.11-.08c-.53-.41-.62-1.17-.21-1.7.41-.53,1.17-.62,1.7-.21l.11.09c12.7,9.93,36.34,28.42,94.83,28.42,37.06,0,63.3-5.86,72.96-9.33.21-.07,19.31-6.65,27.45-17.67.4-.54,1.15-.65,1.69-.25.54.4.65,1.15.25,1.69-8.59,11.63-27.78,18.24-28.6,18.52-12.16,4.36-38.8,9.46-73.76,9.46Z"/>
    <path class="st1" d="M544.13,353.88c-.27,0-.54-.09-.76-.27l-11.97-9.68c-.52-.42-.6-1.18-.18-1.7.42-.52,1.18-.6,1.7-.18l11.27,9.12,123.68-83.5c1.13-.76,1.44-2.26.73-3.41l-103.34-166.04c-.35-.57-.18-1.31.39-1.66.57-.35,1.31-.18,1.66.39l103.34,166.04c1.41,2.26.78,5.2-1.43,6.69l-124.43,84c-.2.14-.44.21-.68.21Z"/>
    <path class="st1" d="M162.52,357.13s-.05,0-.07,0c-.33-.02-.64-.17-.86-.43-.22-.26-22.5-26.6-43.62-45.7-21.08-19.06-68.29-45.66-68.76-45.93-.29-.16-.5-.44-.58-.77-.08-.33-.02-.67.17-.95l110.3-166.44c.37-.56,1.12-.71,1.68-.34.56.37.71,1.12.34,1.68l-109.58,165.36c7.36,4.19,48.63,28.02,68.07,45.6,18.93,17.12,38.77,39.99,43.02,44.96l15.87-14.99c.48-.46,1.25-.44,1.71.05.46.49.44,1.25-.05,1.71l-16.79,15.87c-.22.21-.52.33-.83.33Z"/>
    <g>
      <path class="st1" d="M178.24,340.8c-.14,0-.28-.06-.37-.18,0,0-.37-.5-1.08-1.43-.15-.2-.12-.48.08-.64.2-.15.48-.12.64.08.72.94,1.09,1.44,1.09,1.44.15.2.1.49-.1.63-.08.06-.17.09-.27.09ZM175.68,337.48c-.13,0-.27-.06-.36-.17-.34-.43-.71-.89-1.11-1.4-.16-.2-.13-.48.07-.64.19-.16.48-.13.64.07.41.5.78.97,1.12,1.4.16.2.12.48-.07.64-.08.07-.18.1-.28.1ZM173.05,334.22c-.13,0-.26-.06-.35-.17-.36-.44-.74-.9-1.14-1.38-.16-.19-.13-.48.06-.64.19-.16.48-.13.64.06.4.48.78.94,1.14,1.38.16.19.13.48-.06.64-.08.07-.19.1-.29.1ZM170.38,331.01c-.13,0-.26-.05-.35-.16-.37-.44-.76-.89-1.16-1.36-.16-.19-.14-.48.05-.64.19-.16.48-.14.64.05.4.47.79.92,1.16,1.36.16.19.14.48-.05.64-.09.07-.19.11-.29.11ZM167.67,327.85c-.13,0-.25-.05-.34-.16-.38-.44-.77-.89-1.17-1.35-.16-.19-.15-.47.04-.64.19-.17.47-.15.64.04.4.46.79.91,1.18,1.35.16.19.14.48-.05.64-.09.07-.19.11-.3.11ZM164.92,324.71c-.13,0-.25-.05-.34-.15-.39-.44-.79-.88-1.19-1.33-.17-.19-.15-.47.03-.64.19-.17.47-.15.64.03.41.45.8.9,1.19,1.33.17.19.15.47-.04.64-.09.08-.19.11-.3.11ZM162.12,321.61c-.12,0-.25-.05-.33-.15-.4-.43-.8-.87-1.21-1.32-.17-.18-.16-.47.03-.64.18-.17.47-.16.64.03.41.44.81.88,1.21,1.32.17.19.16.47-.03.64-.09.08-.2.12-.31.12ZM159.3,318.55c-.12,0-.24-.05-.33-.14-.4-.43-.81-.86-1.22-1.3-.17-.18-.16-.47.02-.64.18-.17.47-.16.64.02.41.44.82.87,1.22,1.3.17.18.16.47-.02.64-.09.08-.2.12-.31.12ZM156.43,315.52c-.12,0-.24-.05-.33-.14-.41-.43-.82-.85-1.24-1.29-.17-.18-.17-.47.01-.64.18-.17.47-.17.64.01.42.43.83.86,1.24,1.29.17.18.17.47-.01.64-.09.08-.2.13-.31.13ZM153.53,312.52c-.12,0-.24-.05-.32-.14-.41-.42-.83-.85-1.25-1.27-.18-.18-.17-.46,0-.64.18-.18.46-.17.64,0,.42.43.84.85,1.25,1.27.17.18.17.47,0,.64-.09.09-.2.13-.32.13ZM150.6,309.56c-.12,0-.23-.04-.32-.13-.42-.42-.84-.84-1.27-1.26-.18-.18-.18-.46,0-.64.18-.18.46-.18.64,0,.43.42.85.84,1.27,1.26.18.18.18.46,0,.64-.09.09-.2.13-.32.13ZM147.63,306.63c-.11,0-.23-.04-.32-.13-.42-.41-.85-.83-1.28-1.24-.18-.17-.18-.46-.01-.64.17-.18.46-.18.64-.01.43.42.86.83,1.28,1.25.18.17.18.46,0,.64-.09.09-.21.14-.32.14ZM144.63,303.74c-.11,0-.22-.04-.31-.12-.43-.41-.86-.82-1.3-1.23-.18-.17-.19-.46-.02-.64.17-.18.46-.19.64-.02.44.41.87.82,1.3,1.23.18.17.19.46.02.64-.09.09-.21.14-.33.14ZM141.59,300.89c-.11,0-.22-.04-.31-.12-.43-.4-.87-.81-1.31-1.21-.18-.17-.2-.46-.03-.64.17-.18.46-.2.64-.03.44.41.88.81,1.31,1.21.18.17.19.46.02.64-.09.1-.21.14-.33.14ZM138.52,298.07c-.11,0-.22-.04-.3-.12-.44-.4-.88-.8-1.32-1.2-.19-.17-.2-.45-.03-.64.17-.19.45-.2.64-.03.45.4.89.8,1.33,1.2.19.17.2.45.03.64-.09.1-.21.15-.34.15ZM135.41,295.28c-.11,0-.21-.04-.3-.11-.44-.39-.89-.79-1.34-1.18-.19-.16-.21-.45-.04-.64.16-.19.45-.21.64-.04.45.39.9.79,1.34,1.18.19.17.2.45.04.64-.09.1-.21.15-.34.15ZM132.28,292.54c-.1,0-.21-.04-.3-.11-.45-.39-.9-.77-1.35-1.16-.19-.16-.21-.45-.05-.64.16-.19.45-.21.64-.05.46.39.91.78,1.36,1.16.19.16.21.45.05.64-.09.1-.22.16-.34.16ZM129.1,289.84c-.1,0-.21-.03-.29-.11-.45-.38-.91-.76-1.37-1.14-.19-.16-.22-.45-.06-.64.16-.19.45-.22.64-.06.46.38.92.77,1.37,1.15.19.16.22.45.06.64-.09.11-.22.16-.35.16ZM125.9,287.18c-.1,0-.2-.03-.29-.1-.46-.38-.92-.75-1.38-1.13-.19-.16-.22-.44-.07-.64.16-.19.44-.22.64-.07.46.38.93.75,1.39,1.13.19.16.22.44.06.64-.09.11-.22.17-.35.17ZM122.65,284.56c-.1,0-.2-.03-.28-.1-.46-.37-.93-.74-1.4-1.11-.2-.15-.23-.44-.08-.64.15-.2.44-.23.64-.08.47.37.94.74,1.4,1.11.2.16.23.44.07.64-.09.11-.22.17-.35.17ZM119.38,281.98c-.1,0-.19-.03-.28-.1-.47-.36-.94-.73-1.41-1.09-.2-.15-.24-.44-.08-.64.15-.2.44-.24.64-.08.47.36.95.73,1.42,1.09.2.15.23.44.08.64-.09.12-.22.18-.36.18ZM116.07,279.45c-.1,0-.19-.03-.27-.09-.47-.36-.95-.71-1.43-1.07-.2-.15-.24-.43-.09-.63.15-.2.43-.24.63-.09.48.36.96.71,1.43,1.07.2.15.24.43.09.63-.09.12-.22.18-.36.18ZM112.72,276.96c-.09,0-.19-.03-.27-.09-.48-.35-.96-.7-1.44-1.05-.2-.15-.25-.43-.1-.63.15-.2.43-.25.63-.1.48.35.97.7,1.45,1.05.2.15.25.43.1.63-.09.12-.23.19-.37.19ZM109.34,274.53c-.09,0-.18-.03-.26-.08-.48-.34-.97-.69-1.46-1.03-.21-.14-.26-.43-.11-.63.14-.21.43-.26.63-.11.49.34.98.69,1.46,1.03.2.14.25.43.11.63-.09.12-.23.19-.37.19ZM105.92,272.14c-.09,0-.18-.03-.26-.08-.49-.34-.98-.67-1.47-1.01-.21-.14-.26-.42-.12-.63.14-.21.42-.26.63-.12.49.33.99.67,1.48,1.01.21.14.26.42.12.63-.09.13-.23.2-.37.2ZM102.47,269.81c-.09,0-.17-.02-.25-.08-.49-.33-.99-.66-1.49-.98-.21-.14-.27-.42-.13-.63.14-.21.42-.27.63-.13.5.33,1,.66,1.49.99.21.14.27.42.13.63-.09.13-.23.2-.38.2ZM98.98,267.53c-.08,0-.17-.02-.24-.07-.5-.32-1-.64-1.5-.96-.21-.13-.28-.41-.14-.63.13-.21.41-.27.63-.14.51.32,1.01.64,1.51.96.21.14.27.42.14.63-.09.13-.23.21-.38.21ZM95.45,265.3c-.08,0-.16-.02-.24-.07-.5-.31-1.01-.62-1.52-.93-.21-.13-.28-.41-.15-.62.13-.21.41-.28.62-.15.51.31,1.02.62,1.52.94.21.13.28.41.15.62-.09.14-.23.21-.39.21ZM91.89,263.14c-.08,0-.16-.02-.23-.06-.51-.3-1.02-.61-1.53-.91-.22-.13-.29-.4-.16-.62.13-.22.41-.29.62-.16.52.3,1.03.61,1.54.91.22.13.29.41.16.62-.08.14-.24.22-.39.22ZM88.3,261.03c-.08,0-.15-.02-.23-.06-.51-.3-1.03-.59-1.55-.88-.22-.12-.3-.4-.17-.62.12-.22.4-.29.62-.17.52.29,1.04.59,1.56.88.22.12.29.4.17.62-.08.15-.24.23-.39.23ZM84.66,258.99c-.07,0-.15-.02-.22-.06-.52-.29-1.04-.57-1.57-.85-.22-.12-.3-.39-.18-.61.12-.22.39-.3.61-.18.52.28,1.05.57,1.57.86.22.12.3.4.18.62-.08.15-.24.23-.4.23ZM81,257.01c-.07,0-.14-.02-.21-.05-.53-.28-1.05-.55-1.58-.82-.22-.12-.31-.39-.19-.61.12-.22.39-.31.61-.19.53.27,1.06.55,1.59.83.22.12.31.39.19.61-.08.15-.24.24-.4.24ZM77.29,255.1c-.07,0-.14-.02-.2-.05-.53-.27-1.06-.53-1.59-.8-.22-.11-.32-.38-.21-.61.11-.22.38-.32.61-.21.53.26,1.07.53,1.6.8.22.11.31.39.2.61-.08.16-.24.25-.41.25ZM73.55,253.27c-.07,0-.13-.01-.2-.04-.54-.26-1.07-.51-1.61-.76-.23-.11-.32-.38-.22-.6.11-.23.38-.32.6-.22.54.25,1.08.51,1.62.77.23.11.32.38.21.6-.08.16-.24.26-.41.26ZM69.78,251.5c-.06,0-.13-.01-.19-.04-.54-.25-1.08-.49-1.62-.73-.23-.1-.33-.37-.23-.6.1-.23.37-.33.6-.23.54.24,1.09.49,1.63.73.23.1.33.37.22.6-.08.17-.24.27-.41.27ZM65.98,249.82c-.06,0-.12-.01-.18-.04-.54-.23-1.09-.47-1.64-.7-.23-.1-.34-.36-.24-.59.1-.23.36-.34.59-.24.55.23,1.1.46,1.64.7.23.1.34.37.24.6-.07.17-.24.27-.42.27ZM62.14,248.21c-.06,0-.11-.01-.17-.03-.37-.15-.74-.3-1.11-.45-.23-.09-.35-.36-.25-.59.09-.23.36-.34.59-.25.37.15.75.3,1.12.45.23.09.34.36.25.59-.07.18-.24.28-.42.28Z"/>
      <path class="st1" d="M174.85,345.46c-.14,0-.28-.06-.37-.18,0,0-.37-.5-1.08-1.43-.15-.2-.12-.48.08-.64.2-.15.48-.12.64.08.72.94,1.09,1.44,1.09,1.44.15.2.1.49-.1.63-.08.06-.17.09-.27.09ZM172.29,342.14c-.13,0-.27-.06-.36-.17-.34-.43-.71-.89-1.11-1.4-.16-.2-.13-.48.07-.64.19-.16.48-.13.64.07.41.5.78.97,1.12,1.4.16.2.12.48-.07.64-.08.07-.18.1-.28.1ZM169.67,338.88c-.13,0-.26-.06-.35-.17-.36-.44-.74-.9-1.14-1.38-.16-.19-.13-.48.06-.64.19-.16.48-.13.64.06.4.48.78.94,1.14,1.38.16.19.13.48-.06.64-.08.07-.19.1-.29.1ZM167,335.68c-.13,0-.26-.05-.35-.16-.37-.44-.76-.89-1.16-1.36-.16-.19-.14-.48.05-.64.19-.16.48-.14.64.05.4.47.79.92,1.16,1.36.16.19.14.48-.05.64-.08.07-.19.11-.29.11ZM164.29,332.51c-.13,0-.25-.05-.34-.16-.38-.44-.77-.89-1.17-1.35-.16-.19-.15-.47.04-.64.19-.17.47-.15.64.04.4.46.79.91,1.18,1.35.16.19.14.48-.05.64-.09.07-.19.11-.3.11ZM161.53,329.37c-.13,0-.25-.05-.34-.15-.39-.44-.79-.88-1.19-1.33-.17-.19-.15-.47.03-.64.19-.17.47-.15.64.03.41.45.8.9,1.19,1.33.17.19.15.47-.04.64-.09.08-.19.11-.3.11ZM158.74,326.27c-.12,0-.25-.05-.33-.15-.4-.43-.8-.87-1.21-1.32-.17-.18-.16-.47.03-.64.18-.17.47-.16.64.03.41.44.81.88,1.21,1.32.17.19.16.47-.03.64-.09.08-.2.12-.31.12ZM155.91,323.21c-.12,0-.24-.05-.33-.14-.4-.43-.81-.86-1.22-1.3-.17-.18-.16-.47.02-.64.18-.17.47-.16.64.02.41.44.82.87,1.22,1.3.17.18.16.47-.02.64-.09.08-.2.12-.31.12ZM153.05,320.18c-.12,0-.24-.05-.33-.14-.41-.43-.82-.85-1.24-1.29-.17-.18-.17-.47.01-.64.18-.17.47-.17.64.01.42.43.83.86,1.24,1.29.17.18.17.47-.01.64-.09.08-.2.13-.31.13ZM150.15,317.18c-.12,0-.24-.05-.32-.14-.41-.42-.83-.85-1.25-1.27-.18-.18-.17-.46,0-.64.18-.18.46-.17.64,0,.42.43.84.85,1.25,1.27.17.18.17.47,0,.64-.09.09-.2.13-.32.13ZM147.22,314.22c-.12,0-.23-.04-.32-.13-.42-.42-.84-.84-1.27-1.26-.18-.18-.18-.46,0-.64.18-.18.46-.18.64,0,.43.42.85.84,1.27,1.26.18.18.18.46,0,.64-.09.09-.2.13-.32.13ZM144.25,311.29c-.11,0-.23-.04-.32-.13-.42-.41-.85-.83-1.28-1.24-.18-.17-.19-.46-.01-.64.17-.18.46-.18.64-.01.43.42.86.83,1.28,1.25.18.17.18.46,0,.64-.09.09-.21.14-.32.14ZM141.24,308.4c-.11,0-.22-.04-.31-.12-.43-.41-.86-.82-1.3-1.23-.18-.17-.19-.46-.02-.64.17-.18.46-.19.64-.02.44.41.87.82,1.3,1.23.18.17.19.46.02.64-.09.09-.21.14-.33.14ZM138.21,305.55c-.11,0-.22-.04-.31-.12-.43-.4-.87-.81-1.31-1.21-.18-.17-.2-.46-.03-.64.17-.18.46-.2.64-.03.44.41.88.81,1.31,1.21.18.17.19.46.02.64-.09.1-.21.14-.33.14ZM135.14,302.73c-.11,0-.22-.04-.3-.12-.44-.4-.88-.8-1.32-1.2-.19-.17-.2-.45-.03-.64.17-.19.45-.2.64-.03.45.4.89.8,1.33,1.2.19.17.2.45.03.64-.09.1-.21.15-.34.15ZM132.03,299.95c-.11,0-.21-.04-.3-.11-.44-.39-.89-.79-1.34-1.18-.19-.17-.21-.45-.04-.64.16-.19.45-.21.64-.04.45.39.9.79,1.34,1.18.19.17.2.45.04.64-.09.1-.21.15-.34.15ZM128.89,297.2c-.1,0-.21-.04-.3-.11-.45-.39-.9-.77-1.35-1.16-.19-.16-.21-.45-.05-.64.16-.19.45-.21.64-.05.46.39.91.78,1.36,1.16.19.16.21.45.05.64-.09.1-.22.16-.34.16ZM125.72,294.5c-.1,0-.21-.03-.29-.11-.45-.38-.91-.76-1.37-1.14-.19-.16-.22-.45-.06-.64.16-.19.45-.22.64-.06.46.38.92.77,1.37,1.15.19.16.22.45.06.64-.09.11-.22.16-.35.16ZM122.51,291.84c-.1,0-.2-.03-.29-.1-.46-.38-.92-.75-1.38-1.13-.19-.16-.22-.44-.07-.64.16-.19.44-.22.64-.07.46.38.93.75,1.39,1.13.19.16.22.44.06.64-.09.11-.22.17-.35.17ZM119.27,289.22c-.1,0-.2-.03-.28-.1-.46-.37-.93-.74-1.4-1.11-.2-.15-.23-.44-.08-.64.15-.2.44-.23.64-.08.47.37.94.74,1.4,1.11.2.16.23.44.07.64-.09.11-.22.17-.35.17ZM115.99,286.64c-.1,0-.19-.03-.28-.09-.47-.36-.94-.73-1.41-1.09-.2-.15-.24-.44-.08-.64.15-.2.44-.24.64-.08.47.36.95.73,1.42,1.09.2.15.23.44.08.64-.09.12-.22.18-.36.18ZM112.68,284.11c-.09,0-.19-.03-.27-.09-.47-.36-.95-.71-1.43-1.07-.2-.15-.24-.43-.09-.63.15-.2.43-.24.63-.09.48.36.96.71,1.43,1.07.2.15.24.43.09.63-.09.12-.22.18-.36.18ZM109.34,281.63c-.09,0-.19-.03-.27-.09-.48-.35-.96-.7-1.44-1.05-.2-.15-.25-.43-.1-.63.15-.2.43-.25.63-.1.48.35.97.7,1.45,1.05.2.15.25.43.1.63-.09.12-.23.19-.37.19ZM105.95,279.19c-.09,0-.18-.03-.26-.08-.48-.34-.97-.69-1.46-1.03-.21-.14-.26-.43-.11-.63.14-.21.43-.26.63-.11.49.34.98.69,1.46,1.03.2.14.25.43.11.63-.09.12-.23.19-.37.19ZM102.54,276.8c-.09,0-.18-.03-.26-.08-.49-.34-.98-.67-1.47-1.01-.21-.14-.26-.42-.12-.63.14-.21.42-.26.63-.12.49.33.99.67,1.48,1.01.21.14.26.42.12.63-.09.13-.23.2-.37.2ZM99.08,274.47c-.09,0-.17-.02-.25-.08-.49-.33-.99-.66-1.49-.98-.21-.14-.27-.42-.13-.63.14-.21.42-.27.63-.13.5.33,1,.66,1.49.99.21.14.27.42.13.63-.09.13-.23.2-.38.2ZM95.59,272.19c-.08,0-.17-.02-.24-.07-.5-.32-1-.64-1.5-.96-.21-.13-.28-.41-.14-.63.13-.21.41-.27.63-.14.51.32,1.01.64,1.51.96.21.14.27.42.14.63-.09.13-.23.21-.38.21ZM92.07,269.97c-.08,0-.16-.02-.24-.07-.5-.31-1.01-.62-1.52-.93-.21-.13-.28-.41-.15-.62.13-.21.41-.28.62-.15.51.31,1.02.62,1.52.94.21.13.28.41.15.62-.09.14-.23.21-.39.21ZM88.51,267.8c-.08,0-.16-.02-.23-.06-.51-.3-1.02-.61-1.53-.91-.22-.13-.29-.4-.16-.62.13-.22.41-.29.62-.16.52.3,1.03.61,1.54.91.22.13.29.41.16.62-.09.14-.24.22-.39.22ZM84.91,265.69c-.08,0-.15-.02-.23-.06-.51-.3-1.03-.59-1.55-.88-.22-.12-.3-.4-.17-.62.12-.22.4-.29.62-.17.52.29,1.04.59,1.55.88.22.12.29.4.17.62-.08.15-.24.23-.39.23ZM81.28,263.65c-.07,0-.15-.02-.22-.06-.52-.29-1.04-.57-1.56-.85-.22-.12-.3-.39-.18-.61s.39-.3.61-.18c.52.28,1.05.57,1.57.86.22.12.3.4.18.62-.08.15-.24.23-.4.23ZM77.61,261.67c-.07,0-.14-.02-.21-.05-.53-.28-1.05-.55-1.58-.82-.22-.12-.31-.39-.19-.61.12-.22.39-.31.61-.19.53.27,1.06.55,1.59.83.22.12.31.39.19.61-.08.15-.24.24-.4.24ZM73.91,259.77c-.07,0-.14-.02-.2-.05-.53-.27-1.06-.53-1.59-.8-.22-.11-.32-.38-.21-.61.11-.22.38-.32.61-.21.53.26,1.07.53,1.6.8.22.11.31.39.2.61-.08.16-.24.25-.41.25ZM70.17,257.93c-.07,0-.13-.01-.2-.04-.54-.26-1.07-.51-1.61-.76-.23-.11-.32-.38-.22-.6.11-.23.38-.32.6-.22.54.25,1.08.51,1.62.77.23.11.32.38.21.6-.08.16-.24.26-.41.26ZM66.4,256.17c-.06,0-.13-.01-.19-.04-.54-.25-1.08-.49-1.62-.73-.23-.1-.33-.37-.23-.6.1-.23.37-.33.6-.23.54.24,1.09.49,1.63.73.23.1.33.37.22.6-.08.17-.24.27-.41.27ZM62.6,254.48c-.06,0-.12-.01-.18-.04-.54-.23-1.09-.47-1.64-.7-.23-.1-.34-.36-.24-.59.1-.23.36-.34.59-.24.55.23,1.1.46,1.64.7.23.1.34.37.24.6-.07.17-.24.27-.42.27ZM58.76,252.87c-.06,0-.11-.01-.17-.03-.37-.15-.74-.3-1.11-.45-.23-.09-.35-.36-.25-.59.09-.23.36-.34.59-.25.37.15.75.3,1.12.45.23.09.34.36.25.59-.07.18-.24.28-.42.28Z"/>
    </g>
    <path class="st1" d="M535.37,345.82c-.11,0-.23-.04-.32-.12-.19-.17-.21-.47-.03-.66.38-.41.81-.87,1.29-1.36.18-.18.48-.19.66,0,.18.18.19.48,0,.66-.47.48-.9.92-1.26,1.33-.09.1-.22.15-.35.15ZM538.43,342.76c-.13,0-.25-.05-.34-.15-.18-.19-.17-.49.02-.66.43-.41.89-.83,1.38-1.26.19-.17.49-.16.66.04.17.19.16.49-.03.66-.48.43-.93.85-1.36,1.25-.09.08-.21.13-.32.13ZM541.65,339.87c-.13,0-.26-.05-.36-.16-.17-.2-.15-.49.05-.66.46-.39.93-.8,1.41-1.21.2-.17.49-.14.66.05.17.2.14.49-.05.66-.48.41-.95.81-1.4,1.2-.09.08-.2.11-.31.11ZM544.96,337.07c-.14,0-.27-.06-.36-.17-.17-.2-.14-.5.06-.66.47-.39.95-.78,1.44-1.18.2-.16.5-.13.66.07.16.2.13.5-.07.66-.49.4-.97.79-1.43,1.18-.09.07-.19.11-.3.11ZM548.32,334.33c-.14,0-.27-.06-.37-.18-.16-.2-.13-.5.07-.66.48-.38.96-.77,1.45-1.16.2-.16.5-.13.66.08.16.2.13.5-.08.66-.49.39-.97.77-1.45,1.16-.09.07-.19.1-.29.1ZM551.71,331.65c-.14,0-.28-.06-.37-.18-.16-.2-.12-.5.08-.66l1.46-1.14c.21-.16.5-.12.66.08.16.2.12.5-.08.66l-1.46,1.14c-.09.07-.19.1-.29.1ZM555.13,328.99c-.14,0-.28-.06-.37-.18-.16-.21-.12-.5.09-.66.49-.37.98-.75,1.47-1.13.21-.16.5-.12.66.09.16.21.12.5-.09.66-.5.38-.99.75-1.47,1.13-.09.07-.19.1-.29.1ZM558.57,326.36c-.14,0-.28-.06-.38-.19-.16-.21-.12-.5.09-.66l1.48-1.12c.21-.16.5-.12.66.09.16.21.12.5-.09.66l-1.48,1.12c-.08.06-.18.1-.28.1ZM562.02,323.76c-.14,0-.28-.06-.38-.19-.16-.21-.11-.5.1-.66l1.49-1.11c.21-.16.5-.11.66.1.16.21.11.5-.1.66l-1.48,1.11c-.08.06-.18.09-.28.09ZM565.49,321.17c-.14,0-.29-.07-.38-.19-.15-.21-.11-.5.1-.66l1.49-1.1c.21-.16.5-.11.66.1.15.21.11.5-.1.66l-1.49,1.1c-.08.06-.18.09-.28.09ZM568.97,318.61c-.14,0-.29-.07-.38-.19-.15-.21-.11-.5.1-.66l1.5-1.1c.21-.15.5-.11.66.1.15.21.11.5-.1.66l-1.49,1.1c-.08.06-.18.09-.28.09ZM572.46,316.05c-.15,0-.29-.07-.38-.19-.15-.21-.11-.5.1-.66l1.5-1.09c.21-.15.5-.11.66.1.15.21.11.5-.1.66l-1.5,1.09c-.08.06-.18.09-.28.09ZM575.96,313.51c-.15,0-.29-.07-.38-.19-.15-.21-.11-.5.11-.66l1.5-1.09c.21-.15.5-.1.66.11.15.21.1.5-.11.66l-1.5,1.09c-.08.06-.18.09-.28.09ZM579.47,310.98c-.15,0-.29-.07-.38-.2-.15-.21-.1-.5.11-.66l1.51-1.08c.21-.15.51-.1.66.11.15.21.1.5-.11.66l-1.51,1.08c-.08.06-.18.09-.27.09ZM582.99,308.46c-.15,0-.29-.07-.38-.2-.15-.21-.1-.5.11-.66l1.51-1.08c.21-.15.5-.1.66.11.15.21.1.5-.11.66l-1.51,1.08c-.08.06-.18.09-.27.09ZM586.51,305.95c-.15,0-.29-.07-.38-.2-.15-.21-.1-.51.11-.66l1.51-1.07c.21-.15.51-.1.66.11.15.21.1.51-.11.66l-1.51,1.07c-.08.06-.18.09-.27.09ZM590.04,303.45c-.15,0-.29-.07-.38-.2-.15-.21-.1-.51.11-.66l1.51-1.07c.21-.15.5-.1.65.11.15.21.1.51-.11.66l-1.51,1.07c-.08.06-.18.09-.27.09ZM593.57,300.95c-.15,0-.29-.07-.38-.2-.15-.21-.1-.51.11-.65l1.52-1.07c.21-.15.51-.1.66.11.15.21.1.51-.11.65l-1.52,1.07c-.08.06-.18.09-.27.09ZM597.11,298.47c-.15,0-.29-.07-.39-.2-.15-.21-.1-.51.12-.65l1.52-1.07c.21-.15.51-.1.65.12.15.21.1.51-.12.65l-1.52,1.07c-.08.06-.18.09-.27.09ZM600.66,295.98c-.15,0-.29-.07-.39-.2-.15-.21-.1-.51.12-.65l1.52-1.06c.21-.15.51-.1.65.12.15.21.1.51-.12.65l-1.52,1.06c-.08.06-.18.08-.27.08ZM604.21,293.51c-.15,0-.3-.07-.39-.2-.15-.21-.1-.51.12-.65l1.52-1.05c.21-.15.51-.1.65.12.15.21.1.51-.12.65l-1.52,1.05c-.08.06-.18.08-.27.08ZM607.75,291.04c-.15,0-.3-.07-.39-.2-.15-.21-.09-.51.12-.65l1.52-1.06c.21-.15.51-.09.65.12.15.21.09.51-.12.65l-1.52,1.06c-.08.06-.18.08-.27.08ZM611.31,288.58c-.15,0-.3-.07-.39-.2-.15-.21-.09-.51.12-.65l1.52-1.05c.21-.15.51-.09.65.12.15.21.09.51-.12.65l-1.52,1.05c-.08.06-.17.08-.27.08ZM614.87,286.12c-.15,0-.3-.07-.39-.2-.15-.21-.09-.51.12-.65l1.53-1.05c.22-.15.51-.09.65.12.15.21.09.51-.12.65l-1.53,1.05c-.08.06-.17.08-.27.08ZM618.43,283.67c-.15,0-.3-.07-.39-.2-.15-.21-.09-.51.12-.65l1.53-1.05c.22-.15.51-.09.65.12.15.21.09.51-.12.65l-1.53,1.05c-.08.06-.17.08-.27.08ZM622,281.22c-.15,0-.3-.07-.39-.2-.15-.21-.09-.51.12-.65l1.53-1.05c.21-.15.51-.09.65.12.15.21.09.51-.12.65l-1.53,1.05c-.08.06-.17.08-.26.08ZM625.57,278.78c-.15,0-.3-.07-.39-.2-.15-.21-.09-.51.12-.65l1.53-1.05c.21-.15.51-.09.65.12.15.21.09.51-.12.65l-1.53,1.05c-.08.06-.17.08-.26.08ZM629.14,276.34c-.15,0-.3-.07-.39-.21-.15-.21-.09-.51.12-.65l1.53-1.04c.21-.15.51-.09.65.12.15.21.09.51-.12.65l-1.53,1.04c-.08.06-.17.08-.26.08ZM632.72,273.91c-.15,0-.3-.07-.39-.21-.15-.21-.09-.51.12-.65l1.53-1.04c.21-.15.51-.09.65.12.15.21.09.51-.12.65l-1.53,1.04c-.08.06-.17.08-.26.08ZM636.3,271.47c-.15,0-.3-.07-.39-.21-.15-.21-.09-.51.13-.65l1.54-1.04c.21-.14.51-.09.65.13.15.22.09.51-.13.65l-1.53,1.04c-.08.05-.17.08-.26.08ZM639.88,269.05c-.15,0-.3-.07-.39-.21-.15-.22-.09-.51.13-.65l1.54-1.04c.22-.15.51-.09.65.13.15.22.09.51-.13.65l-1.54,1.04c-.08.05-.17.08-.26.08ZM643.47,266.62c-.15,0-.3-.07-.39-.21-.15-.22-.09-.51.13-.65l1.54-1.04c.21-.14.51-.09.65.13.15.22.09.51-.13.65l-1.54,1.04c-.08.05-.17.08-.26.08ZM647.06,264.2c-.15,0-.3-.07-.39-.21-.14-.22-.09-.51.13-.65l1.54-1.04c.22-.14.51-.09.65.13.14.22.09.51-.13.65l-1.54,1.04c-.08.05-.17.08-.26.08ZM650.65,261.79c-.15,0-.3-.07-.39-.21-.15-.22-.09-.51.13-.65l1.54-1.03c.22-.15.51-.09.65.13.15.22.09.51-.13.65l-1.54,1.03c-.08.05-.17.08-.26.08ZM654.25,259.37c-.15,0-.3-.07-.39-.21-.14-.22-.09-.51.13-.65l1.54-1.03c.22-.14.51-.09.65.13.14.22.09.51-.13.65l-1.54,1.03c-.08.05-.17.08-.26.08ZM657.85,256.96c-.15,0-.3-.07-.39-.21-.14-.22-.09-.51.13-.65l1.55-1.03c.22-.15.51-.09.65.13.14.22.09.51-.13.65l-1.55,1.03c-.08.05-.17.08-.26.08ZM661.47,254.55c-.15,0-.3-.07-.39-.21-.14-.22-.08-.51.13-.65l1.57-1.04c.22-.14.51-.08.65.13.14.22.08.51-.13.65l-1.57,1.04c-.08.05-.17.08-.26.08Z"/>
    <path class="st1" d="M532.29,340.16c-.11,0-.23-.04-.32-.12-.19-.17-.21-.47-.03-.66.38-.41.81-.87,1.29-1.36.18-.18.48-.19.66,0,.18.18.19.48,0,.66-.47.48-.9.92-1.26,1.33-.09.1-.22.15-.35.15ZM535.34,337.1c-.13,0-.25-.05-.34-.15-.18-.19-.17-.49.02-.66.43-.41.89-.83,1.38-1.26.19-.17.49-.16.66.04.17.19.16.49-.03.66-.48.43-.93.85-1.36,1.25-.09.08-.21.13-.32.13ZM538.57,334.21c-.13,0-.26-.05-.36-.16-.17-.2-.15-.49.05-.66.46-.39.93-.8,1.41-1.21.2-.17.49-.14.66.05.17.2.14.49-.05.66-.48.41-.95.81-1.4,1.2-.09.08-.2.11-.31.11ZM541.87,331.41c-.14,0-.27-.06-.36-.17-.17-.2-.14-.5.06-.66.47-.39.95-.78,1.44-1.18.2-.16.5-.13.66.07.16.2.13.5-.07.66-.49.4-.97.79-1.43,1.18-.09.07-.19.11-.3.11ZM545.23,328.68c-.14,0-.27-.06-.37-.18-.16-.2-.13-.5.07-.66.48-.38.96-.77,1.45-1.16.2-.16.5-.13.66.08.16.2.13.5-.08.66-.49.39-.97.77-1.45,1.16-.09.07-.19.1-.29.1ZM548.62,325.99c-.14,0-.28-.06-.37-.18-.16-.2-.12-.5.08-.66l1.46-1.14c.21-.16.5-.12.66.08.16.2.12.5-.08.66l-1.46,1.14c-.09.07-.19.1-.29.1ZM552.04,323.33c-.14,0-.28-.06-.37-.18-.16-.21-.12-.5.09-.66.49-.37.98-.75,1.47-1.13.21-.16.5-.12.66.09.16.21.12.5-.09.66-.5.38-.99.75-1.47,1.13-.09.07-.19.1-.29.1ZM555.48,320.71c-.14,0-.28-.06-.38-.19-.16-.21-.12-.5.09-.66l1.48-1.12c.21-.16.5-.12.66.09.16.21.12.5-.09.66l-1.48,1.12c-.08.06-.18.1-.28.1ZM558.94,318.1c-.14,0-.28-.06-.38-.19-.16-.21-.11-.5.1-.66l1.49-1.11c.21-.16.5-.11.66.1.16.21.11.5-.1.66l-1.48,1.11c-.08.06-.18.09-.28.09ZM562.41,315.52c-.14,0-.29-.07-.38-.19-.15-.21-.11-.5.1-.66l1.49-1.1c.21-.16.5-.11.66.1.15.21.11.5-.1.66l-1.49,1.1c-.08.06-.18.09-.28.09ZM565.89,312.95c-.14,0-.29-.07-.38-.19-.15-.21-.11-.5.1-.66l1.5-1.1c.21-.15.5-.11.66.1.15.21.11.5-.1.66l-1.49,1.1c-.08.06-.18.09-.28.09ZM569.38,310.39c-.15,0-.29-.07-.38-.19-.15-.21-.11-.5.1-.66l1.5-1.09c.21-.15.5-.11.66.1.15.21.11.5-.1.66l-1.5,1.09c-.08.06-.18.09-.28.09ZM572.88,307.85c-.15,0-.29-.07-.38-.19-.15-.21-.11-.5.11-.66l1.5-1.09c.21-.15.5-.1.66.11.15.21.1.5-.11.66l-1.5,1.09c-.08.06-.18.09-.27.09ZM576.39,305.32c-.15,0-.29-.07-.38-.2-.15-.21-.1-.5.11-.66l1.51-1.08c.21-.15.5-.1.66.11.15.21.1.5-.11.66l-1.51,1.08c-.08.06-.18.09-.27.09ZM579.9,302.8c-.15,0-.29-.07-.38-.2-.15-.21-.1-.5.11-.66l1.51-1.08c.21-.15.5-.1.66.11.15.21.1.5-.11.66l-1.51,1.08c-.08.06-.18.09-.27.09ZM583.43,300.29c-.15,0-.29-.07-.38-.2-.15-.21-.1-.51.11-.66l1.51-1.07c.21-.15.51-.1.66.11.15.21.1.51-.11.66l-1.51,1.07c-.08.06-.18.09-.27.09ZM586.95,297.79c-.15,0-.29-.07-.38-.2-.15-.21-.1-.51.11-.66l1.51-1.07c.21-.15.5-.1.66.11.15.21.1.51-.11.66l-1.51,1.07c-.08.06-.18.09-.27.09ZM590.49,295.3c-.15,0-.29-.07-.38-.2-.15-.21-.1-.51.11-.65l1.52-1.07c.21-.15.51-.1.66.11.15.21.1.51-.11.65l-1.52,1.07c-.08.06-.18.09-.27.09ZM594.03,292.81c-.15,0-.29-.07-.39-.2-.15-.21-.1-.51.12-.65l1.52-1.07c.21-.15.51-.1.66.12.15.21.1.51-.12.65l-1.52,1.07c-.08.06-.18.09-.27.09ZM597.58,290.32c-.15,0-.29-.07-.39-.2-.15-.21-.1-.51.12-.65l1.52-1.06c.21-.15.51-.1.65.12.15.21.1.51-.12.65l-1.52,1.06c-.08.06-.18.08-.27.08ZM601.12,287.85c-.15,0-.3-.07-.39-.2-.15-.21-.1-.51.12-.65l1.52-1.05c.21-.15.51-.1.65.12.15.21.1.51-.12.65l-1.52,1.05c-.08.06-.18.08-.27.08ZM604.67,285.39c-.15,0-.3-.07-.39-.2-.15-.21-.09-.51.12-.65l1.52-1.06c.22-.15.51-.09.65.12.15.21.09.51-.12.65l-1.52,1.06c-.08.06-.18.08-.27.08ZM608.22,282.92c-.15,0-.3-.07-.39-.2-.15-.21-.09-.51.12-.65l1.52-1.05c.21-.15.51-.09.65.12.15.21.09.51-.12.65l-1.52,1.05c-.08.06-.17.08-.27.08ZM611.78,280.47c-.15,0-.3-.07-.39-.2-.15-.21-.09-.51.12-.65l1.53-1.05c.22-.15.51-.09.65.12.15.21.09.51-.12.65l-1.53,1.05c-.08.06-.17.08-.27.08ZM615.35,278.01c-.15,0-.3-.07-.39-.2-.15-.21-.09-.51.12-.65l1.53-1.05c.21-.15.51-.09.65.12.15.21.09.51-.12.65l-1.53,1.05c-.08.06-.17.08-.27.08ZM618.91,275.57c-.15,0-.3-.07-.39-.2-.15-.21-.09-.51.12-.65l1.53-1.05c.22-.15.51-.09.65.12.15.21.09.51-.12.65l-1.53,1.05c-.08.06-.17.08-.26.08ZM622.48,273.12c-.15,0-.3-.07-.39-.2-.15-.21-.09-.51.12-.65l1.53-1.05c.21-.15.51-.09.65.12.15.21.09.51-.12.65l-1.53,1.05c-.08.06-.17.08-.26.08ZM626.06,270.68c-.15,0-.3-.07-.39-.21-.15-.21-.09-.51.12-.65l1.53-1.04c.21-.15.51-.09.65.12.15.21.09.51-.12.65l-1.53,1.04c-.08.06-.17.08-.26.08ZM629.63,268.25c-.15,0-.3-.07-.39-.21-.15-.21-.09-.51.12-.65l1.53-1.04c.21-.15.51-.09.65.12.15.21.09.51-.12.65l-1.53,1.04c-.08.06-.17.08-.26.08ZM633.21,265.82c-.15,0-.3-.07-.39-.21-.15-.21-.09-.51.13-.65l1.53-1.04c.22-.15.51-.09.65.13.15.22.09.51-.13.65l-1.53,1.04c-.08.05-.17.08-.26.08ZM636.8,263.39c-.15,0-.3-.07-.39-.21-.15-.22-.09-.51.13-.65l1.54-1.04c.22-.15.51-.09.65.13.15.22.09.51-.13.65l-1.54,1.04c-.08.05-.17.08-.26.08ZM640.38,260.97c-.15,0-.3-.07-.39-.21-.15-.22-.09-.51.13-.65l1.54-1.04c.21-.15.51-.09.65.13.15.22.09.51-.13.65l-1.54,1.04c-.08.05-.17.08-.26.08ZM643.97,258.55c-.15,0-.3-.07-.39-.21-.14-.22-.09-.51.13-.65l1.54-1.04c.22-.14.51-.09.65.13.14.22.09.51-.13.65l-1.54,1.04c-.08.05-.17.08-.26.08ZM647.57,256.13c-.15,0-.3-.07-.39-.21-.15-.22-.09-.51.13-.65l1.54-1.03c.22-.15.51-.09.65.13.15.22.09.51-.13.65l-1.54,1.03c-.08.05-.17.08-.26.08ZM651.16,253.72c-.15,0-.3-.07-.39-.21-.14-.22-.09-.51.13-.65l1.54-1.03c.22-.14.51-.09.65.13.14.22.09.51-.13.65l-1.54,1.03c-.08.05-.17.08-.26.08ZM654.77,251.3c-.15,0-.3-.07-.39-.21-.14-.22-.09-.51.13-.65l1.55-1.03c.22-.14.51-.09.65.13.14.22.09.51-.13.65l-1.55,1.03c-.08.05-.17.08-.26.08ZM658.39,248.89c-.15,0-.3-.07-.39-.21-.14-.22-.09-.51.13-.65l1.57-1.04c.22-.14.51-.08.65.13.14.22.08.51-.13.65l-1.57,1.04c-.08.05-.17.08-.26.08Z"/>
    <g>
      <path class="st1" d="M391.22,678.67h-1.79c-.25,0-.45-.2-.45-.45,0-.25.2-.45.45-.45h1.79c.25,0,.45.2.45.46,0,.25-.2.45-.45.45ZM395.39,678.67h-1.79c-.25,0-.45-.2-.45-.45s.2-.45.45-.45h1.79c.25,0,.45.2.45.45s-.2.45-.45.45ZM397.78,678.67c-.25,0-.45-.2-.45-.45,0-.25.2-.45.45-.45h1.79c.25,0,.45.2.45.45s-.2.45-.45.45h-1.79s0,0,0,0ZM387.06,678.67h-1.79c-.25,0-.45-.21-.45-.46,0-.25.2-.45.45-.45h1.79c.25,0,.45.21.45.46,0,.25-.2.45-.45.45ZM401.95,678.67c-.25,0-.45-.2-.45-.45,0-.25.2-.45.45-.45h1.79s0,0,0,0c.25,0,.45.2.45.45,0,.25-.2.45-.45.45h-1.79s0,0,0,0ZM382.89,678.66h-1.79c-.25,0-.45-.21-.45-.46,0-.25.2-.45.45-.45h1.79c.25,0,.45.21.45.46,0,.25-.2.45-.45.45ZM406.13,678.66c-.25,0-.45-.2-.45-.45,0-.25.2-.45.45-.45h1.79s0,0,0,0c.25,0,.45.2.45.45,0,.25-.2.45-.45.45h-1.79s0,0,0,0ZM378.72,678.66h-1.79s0-.46,0-.46v-.45s1.79,0,1.79,0c.25,0,.45.2.45.45,0,.25-.2.45-.45.45ZM410.31,678.65v-.45s0-.45,0-.45h1.79s0,0,0,0c.25,0,.45.2.45.45,0,.25-.2.45-.45.45h-1.79ZM374.55,678.65h-1.79c-.25,0-.45-.21-.45-.46,0-.25.2-.45.45-.45h1.79c.25,0,.45.21.45.46,0,.25-.2.45-.45.45ZM414.48,678.64v-.45s0-.45,0-.45h1.79s0,0,0,0c.25,0,.45.2.45.45,0,.25-.2.45-.45.45h-1.79ZM370.39,678.63h-1.79c-.25,0-.45-.21-.45-.46,0-.25.2-.45.45-.45h1.79c.25,0,.45.21.45.46,0,.25-.2.45-.45.45ZM418.66,678.62c-.25,0-.45-.2-.45-.45,0-.25.2-.45.45-.46h1.79s0,0,0,0c.25,0,.45.2.45.45,0,.25-.2.45-.45.46h-1.79s0,0,0,0ZM366.22,678.62h-1.78c-.25,0-.45-.21-.45-.46,0-.25.2-.45.45-.45h1.78c.25,0,.45.21.45.46,0,.25-.2.45-.45.45ZM362.07,678.6h-1.78c-.25,0-.45-.21-.45-.46,0-.25.2-.45.45-.45h1.78c.25,0,.45.21.45.46,0,.25-.2.45-.45.45ZM422.84,678.6c-.25,0-.45-.2-.45-.45,0-.25.2-.45.45-.46h1.79s0,0,0,0c.25,0,.45.2.45.45,0,.25-.2.45-.45.46h-1.79s0,0,0,0ZM357.91,678.58h-1.78c-.25-.01-.45-.21-.45-.46,0-.25.2-.45.45-.45h1.78c.25,0,.45.21.45.46,0,.25-.2.45-.45.45ZM427.02,678.58c-.25,0-.45-.2-.45-.45,0-.25.2-.45.45-.46h1.79s0-.01,0-.01c.25,0,.45.2.45.45,0,.25-.2.45-.45.46h-1.79s0,.01,0,.01ZM353.76,678.56h-1.78c-.25-.01-.45-.22-.45-.47,0-.25.2-.45.45-.45h1.78c.25.01.45.22.45.47,0,.25-.2.45-.45.45ZM431.2,678.55c-.25,0-.45-.2-.45-.45,0-.25.2-.45.45-.46h1.79s0-.01,0-.01c.25,0,.45.2.45.45,0,.25-.2.45-.45.46h-1.79s0,.01,0,.01ZM349.6,678.54h-1.78s0-.46,0-.46v-.45s1.79.01,1.79.01c.25,0,.45.21.45.46,0,.25-.2.45-.45.45ZM435.36,678.52c-.25,0-.45-.2-.45-.45,0-.25.2-.46.45-.46h1.79s0-.01,0-.01c.25,0,.45.2.45.45,0,.25-.2.45-.45.46h-1.79s0,.01,0,.01ZM345.43,678.51h-1.79c-.25-.01-.45-.22-.45-.47,0-.25.2-.45.45-.45h1.79c.25.01.45.22.45.47,0,.25-.2.45-.45.45ZM439.53,678.49c-.25,0-.45-.2-.45-.45,0-.25.2-.46.45-.46l1.79-.02h0c.25,0,.45.2.45.45,0,.25-.2.46-.45.46l-1.79.02h0ZM341.26,678.48h-1.79c-.25-.01-.45-.22-.45-.47,0-.25.2-.45.45-.45h1.79c.25.01.45.22.45.47,0,.25-.2.45-.45.45ZM337.1,678.45h-1.79c-.25-.02-.45-.22-.45-.47,0-.25.2-.45.45-.45h1.79c.25.02.45.22.45.47,0,.25-.2.45-.45.45ZM443.7,678.45c-.25,0-.45-.2-.45-.45,0-.25.2-.46.45-.46l1.79-.02c.25,0,.46.2.46.45,0,.25-.2.46-.45.46l-1.79.02h0ZM332.93,678.42h-1.79c-.25-.02-.45-.22-.45-.47,0-.25.2-.45.45-.45h1.79c.25.02.45.22.45.47,0,.25-.2.45-.45.45ZM447.86,678.41c-.25,0-.45-.2-.45-.45,0-.25.2-.46.45-.46l1.79-.02h0c.25,0,.45.2.45.45,0,.25-.2.46-.45.46l-1.79.02h0ZM328.76,678.39h0l-1.79-.02c-.25,0-.45-.21-.45-.46,0-.25.21-.45.46-.45l1.79.02c.25,0,.45.21.45.46,0,.25-.2.45-.45.45ZM452.03,678.36c-.25,0-.45-.2-.45-.45,0-.25.2-.46.45-.46l1.79-.02h0c.25,0,.45.2.45.45,0,.25-.2.46-.45.46l-1.79.02h0ZM324.59,678.35h0l-1.79-.02c-.25,0-.45-.21-.45-.46,0-.25.2-.45.45-.45h0l1.79.02c.25,0,.45.21.45.46,0,.25-.2.45-.45.45ZM320.43,678.32h0l-1.76-.02-.02-.45.03-.45,1.76.02c.25,0,.45.21.45.46,0,.25-.21.45-.45.45ZM456.2,678.31c-.25,0-.45-.2-.45-.45,0-.25.2-.46.45-.46l1.79-.02h0c.25,0,.45.2.45.45,0,.25-.2.46-.45.46l-1.79.02h0ZM316.26,678.28h0l-1.79-.02c-.25,0-.45-.21-.45-.46,0-.25.22-.43.46-.45l1.79.02c.25,0,.45.21.45.46,0,.25-.2.45-.45.45ZM460.37,678.26c-.25,0-.45-.2-.45-.45,0-.25.2-.46.45-.46l1.79-.02c.25,0,.46.2.46.45,0,.25-.2.46-.45.46l-1.79.02h0ZM312.09,678.24h0l-1.75-.02-.03-.45.04-.45,1.75.02c.25,0,.45.21.45.46,0,.25-.21.45-.45.45ZM464.53,678.2c-.25,0-.45-.2-.45-.45,0-.25.2-.46.45-.46l1.79-.03h0c.25,0,.45.2.45.45,0,.25-.2.46-.45.46l-1.79.03h0ZM376.93,678.2v-.45s0,.45,0,.45ZM307.92,678.19h0l-1.79-.02c-.25,0-.45-.21-.45-.46,0-.25.21-.45.45-.45h0l1.79.02c.25,0,.45.21.45.46,0,.25-.21.45-.45.45ZM303.76,678.15h0l-1.79-.02c-.25,0-.45-.21-.45-.46,0-.25.21-.45.45-.45h0l1.79.02c.25,0,.45.21.45.46,0,.25-.21.45-.45.45ZM468.7,678.13c-.25,0-.45-.2-.45-.45,0-.25.2-.46.45-.46l1.78-.03c.25,0,.46.19.46.44,0,.25-.19.46-.45.46l-1.79.03h0ZM299.59,678.1h0l-1.79-.02c-.25,0-.45-.21-.45-.46,0-.25.21-.47.46-.45l1.79.02c.25,0,.45.21.45.46,0,.25-.21.45-.45.45ZM347.81,678.07v-.45s0,.45,0,.45ZM472.87,678.07c-.25,0-.45-.2-.45-.45,0-.25.2-.46.45-.46l1.78-.03c.26.01.46.19.46.45,0,.25-.19.46-.45.46l-1.79.03h0ZM295.42,678.05h0l-1.79-.02c-.25,0-.45-.21-.45-.46,0-.25.21-.45.45-.45h0l1.79.02c.25,0,.45.21.45.46,0,.25-.21.45-.45.45ZM291.25,678.01h0l-1.73-.02-.05-.45.06-.45,1.73.02c.25,0,.45.21.45.46,0,.25-.21.45-.45.45ZM477.03,677.99c-.25,0-.45-.2-.45-.44,0-.25.19-.46.44-.46l1.78-.03c.26-.01.46.19.46.44,0,.25-.19.46-.44.46l-1.79.03h0ZM287.08,677.95h0l-1.79-.02c-.25,0-.45-.21-.45-.46,0-.25.23-.44.46-.45l1.79.02c.25,0,.45.21.45.46,0,.25-.21.45-.45.45ZM481.2,677.91c-.25,0-.45-.2-.45-.44,0-.25.19-.46.44-.46l1.78-.04c.23,0,.46.19.46.44,0,.25-.19.46-.44.46l-1.79.04h0ZM282.92,677.9h0l-1.79-.02c-.25,0-.45-.21-.45-.46,0-.25.23-.47.46-.45l1.79.02c.25,0,.45.21.45.46,0,.25-.21.45-.45.45ZM278.75,677.85h0l-1.79-.02c-.25,0-.45-.21-.45-.46,0-.25.21-.45.45-.45h0l1.79.02c.25,0,.45.21.45.46,0,.25-.21.45-.45.45ZM318.64,677.85v-.45s0,.45,0,.45ZM485.37,677.82c-.25,0-.45-.2-.45-.44,0-.25.19-.46.44-.46l1.79-.04c.25,0,.46.19.46.44,0,.25-.19.46-.44.46l-1.79.04h0ZM274.58,677.79h0l-1.79-.02c-.25,0-.45-.21-.45-.46,0-.25.21-.45.45-.45h0l1.79.02c.25,0,.45.21.45.46,0,.25-.21.45-.45.45ZM310.3,677.76v-.45s0,.45,0,.45ZM270.41,677.73h0l-1.79-.03c-.25,0-.45-.21-.45-.46,0-.25.21-.43.46-.45l1.79.03c.25,0,.45.21.45.46,0,.25-.21.45-.45.45ZM489.53,677.73c-.25,0-.45-.2-.45-.44,0-.25.19-.46.44-.46l1.79-.04c.26,0,.46.19.46.44,0,.25-.19.46-.44.46l-1.79.04h-.01ZM266.25,677.67h0l-1.79-.03c-.25,0-.45-.21-.45-.46,0-.25.21-.47.46-.45l1.79.03c.25,0,.45.21.45.46,0,.25-.21.45-.45.45ZM493.7,677.63c-.25,0-.45-.2-.45-.44,0-.25.19-.46.44-.46l1.79-.04c.28.01.46.19.47.44,0,.25-.19.46-.44.46l-1.79.04h-.01ZM262.08,677.61h0l-1.79-.03c-.25,0-.45-.21-.45-.46,0-.25.19-.46.46-.45l1.79.03c.25,0,.45.21.45.46,0,.25-.21.45-.45.45ZM257.91,677.55h0l-1.79-.03c-.25,0-.45-.21-.45-.46,0-.25.21-.45.45-.45h0l1.79.03c.25,0,.45.21.45.46,0,.25-.21.45-.45.45ZM289.47,677.53v-.45s0,.45,0,.45ZM497.86,677.52c-.24,0-.45-.2-.45-.44,0-.25.19-.46.44-.47l1.78-.05c.25.01.46.19.47.44,0,.25-.19.46-.44.47l-1.79.05h-.01ZM253.74,677.49h0l-1.79-.03c-.25,0-.45-.21-.45-.46,0-.25.22-.46.46-.45l1.79.03c.25,0,.45.21.45.46,0,.25-.21.45-.45.45ZM249.58,677.42h0l-1.79-.03c-.25,0-.45-.21-.45-.46,0-.25.24-.45.46-.45l1.79.03c.25,0,.45.21.45.46,0,.25-.21.45-.45.45ZM502.03,677.41c-.24,0-.45-.19-.45-.44,0-.25.19-.46.44-.47l1.78-.05h.01c.24,0,.45.19.45.44,0,.25-.19.46-.44.47l-1.79.05h-.01ZM245.41,677.36h0l-1.79-.03c-.25,0-.45-.21-.45-.46,0-.25.21-.45.45-.45h0l1.79.03c.25,0,.45.21.45.46,0,.25-.21.45-.45.45ZM241.24,677.29h0l-1.79-.03c-.25,0-.45-.21-.45-.46,0-.25.2-.43.46-.45l1.79.03c.25,0,.45.21.45.46,0,.25-.21.45-.45.45ZM506.2,677.29c-.24,0-.45-.19-.45-.44,0-.25.19-.46.44-.47l1.79-.06c.23,0,.46.19.47.44,0,.25-.19.46-.44.47l-1.79.06h-.01ZM237.07,677.22h0l-1.79-.03c-.25,0-.45-.21-.45-.46,0-.25.21-.45.45-.45h0l1.79.03c.25,0,.45.21.45.46,0,.25-.21.45-.45.45ZM510.36,677.15c-.24,0-.44-.19-.45-.44,0-.25.19-.46.44-.47l1.79-.06c.24,0,.46.19.47.44,0,.25-.19.46-.44.47l-1.79.06h-.01ZM232.9,677.15h0l-1.79-.03c-.25,0-.45-.21-.45-.46,0-.25.21-.45.45-.45h0l1.79.03c.25,0,.45.21.45.46,0,.25-.21.44-.45.44ZM228.74,677.07h0l-1.79-.03c-.25,0-.45-.21-.44-.46,0-.25.21-.44.46-.44l1.79.03c.25,0,.45.21.45.46,0,.25-.21.45-.45.45ZM514.53,677.01c-.24,0-.44-.19-.45-.44,0-.25.19-.46.44-.47l1.78-.06c.25,0,.46.19.47.44,0,.25-.19.46-.44.47l-1.79.06h-.02ZM224.57,677h0l-1.79-.03c-.25,0-.45-.21-.44-.46,0-.25.21-.45.45-.45h0l1.79.03c.25,0,.45.21.45.46,0,.25-.21.45-.45.45ZM220.4,676.93h0l-1.79-.03c-.25,0-.45-.21-.44-.46,0-.25.21-.45.46-.44l1.79.03c.25,0,.45.21.45.46,0,.25-.21.45-.45.45ZM518.69,676.86c-.24,0-.44-.19-.45-.44,0-.25.19-.46.44-.47l1.78-.07s.01,0,.02,0c.24,0,.44.19.45.44,0,.25-.19.46-.44.47l-1.78.07s-.01,0-.02,0ZM216.23,676.85h0l-1.79-.03c-.25,0-.45-.21-.44-.46,0-.25.2-.46.46-.44l1.79.03c.25,0,.45.21.44.46,0,.25-.21.45-.45.45ZM212.06,676.77h0l-1.79-.03c-.25,0-.45-.21-.44-.46,0-.25.2-.44.46-.44l1.79.03c.25,0,.45.21.44.46,0,.25-.21.44-.45.44ZM522.85,676.7c-.24,0-.44-.19-.45-.43-.01-.25.18-.46.43-.47l1.78-.07c.24-.03.46.18.47.43.01.25-.18.46-.43.47l-1.79.07s-.01,0-.02,0ZM207.9,676.69h0l-1.79-.04c-.25,0-.45-.21-.44-.46s.21-.42.46-.44l1.79.04c.25,0,.45.21.44.46,0,.25-.21.44-.45.44ZM203.73,676.61h0l-1.79-.04c-.25,0-.45-.21-.44-.46,0-.25.19-.46.46-.44l1.79.04c.25,0,.45.21.44.46,0,.25-.21.44-.45.44ZM527.02,676.52c-.24,0-.44-.19-.45-.43-.01-.25.18-.46.43-.47l1.78-.08c.22-.02.46.18.47.43.01.25-.18.46-.43.47l-1.79.08s-.01,0-.02,0ZM199.56,676.52h0l-1.79-.04c-.25,0-.45-.21-.44-.46,0-.25.2-.46.46-.44l1.79.04c.25,0,.45.21.44.46,0,.25-.21.44-.45.44ZM195.39,676.44h0l-1.79-.04c-.25,0-.45-.21-.44-.46,0-.25.23-.44.46-.44l1.79.04c.25,0,.45.21.44.46,0,.25-.21.44-.45.44ZM191.22,676.35h0l-1.79-.04c-.25,0-.45-.21-.44-.46,0-.25.23-.47.46-.44l1.79.04c.25,0,.45.21.44.46,0,.25-.21.44-.45.44ZM531.18,676.34c-.24,0-.44-.19-.45-.43-.01-.25.18-.46.43-.47l1.78-.08c.25-.03.46.18.48.43.01.25-.18.46-.43.48l-1.79.08s-.01,0-.02,0ZM187.05,676.26h-.01l-1.78-.04.02-.91v.45s0-.45,0-.45l1.78.04c.25,0,.45.21.44.46,0,.25-.21.44-.45.44ZM182.87,676.17h-.01l-1.79-.04c-.25,0-.45-.21-.44-.46,0-.25.21-.46.46-.44l1.79.04c.25,0,.45.21.44.46,0,.25-.21.44-.45.44ZM535.34,676.13c-.24,0-.44-.19-.45-.43-.01-.25.18-.46.43-.48l1.78-.09c.25,0,.46.18.48.43.01.25-.18.46-.43.48l-1.78.09s-.02,0-.02,0ZM178.69,676.07h-.01l-1.8-.04c-.25,0-.45-.21-.44-.46,0-.25.21-.44.45-.44h.01l1.8.04c.25,0,.45.21.44.46,0,.25-.21.44-.45.44Z"/>
      <path class="st1" d="M391.22,672.72h-1.79c-.25,0-.45-.2-.45-.46,0-.25.2-.45.45-.45h1.79c.25,0,.45.2.45.46,0,.25-.2.45-.45.45ZM395.39,672.72h-1.79c-.25,0-.45-.2-.45-.45s.2-.45.45-.45h1.79c.25,0,.45.2.45.45s-.2.45-.45.45ZM397.78,672.72c-.25,0-.45-.2-.45-.45,0-.25.2-.45.45-.45h1.79c.25,0,.45.2.45.45s-.2.45-.45.45h-1.79s0,0,0,0ZM387.06,672.72h-1.79c-.25,0-.45-.21-.45-.46,0-.25.2-.45.45-.45h1.79c.25,0,.45.21.45.46,0,.25-.2.45-.45.45ZM401.95,672.71c-.25,0-.45-.2-.45-.45,0-.25.2-.45.45-.45h1.79s0,0,0,0c.25,0,.45.2.45.45,0,.25-.2.45-.45.45h-1.79s0,0,0,0ZM382.89,672.71h-1.79c-.25,0-.45-.21-.45-.46,0-.25.2-.45.45-.45h1.79c.25,0,.45.21.45.46,0,.25-.2.45-.45.45ZM406.13,672.7c-.25,0-.45-.2-.45-.45,0-.25.2-.45.45-.45h1.79s0,0,0,0c.25,0,.45.2.45.45,0,.25-.2.45-.45.45h-1.79s0,0,0,0ZM378.72,672.7h-1.79s0-.46,0-.46v-.45s1.79,0,1.79,0c.25,0,.45.2.45.45,0,.25-.2.45-.45.45ZM410.31,672.69v-.45s0-.45,0-.45h1.79s0,0,0,0c.25,0,.45.2.45.45,0,.25-.2.45-.45.45h-1.79ZM374.55,672.69h-1.79c-.25,0-.45-.21-.45-.46,0-.25.2-.45.45-.45h1.79c.25,0,.45.21.45.46,0,.25-.2.45-.45.45ZM414.48,672.68v-.45s0-.45,0-.45h1.79s0,0,0,0c.25,0,.45.2.45.45,0,.25-.2.45-.45.45h-1.79ZM370.39,672.68h-1.79c-.25,0-.45-.21-.45-.46,0-.25.2-.45.45-.45h1.79c.25,0,.45.21.45.46,0,.25-.2.45-.45.45ZM418.66,672.67c-.25,0-.45-.2-.45-.45,0-.25.2-.45.45-.46h1.79s0,0,0,0c.25,0,.45.2.45.45,0,.25-.2.45-.45.46h-1.79s0,0,0,0ZM366.22,672.66h-1.78c-.25,0-.45-.21-.45-.46,0-.25.2-.45.45-.45h1.78c.25,0,.45.21.45.46,0,.25-.2.45-.45.45ZM362.07,672.65h-1.78c-.25,0-.45-.21-.45-.46,0-.25.2-.45.45-.45h1.78c.25,0,.45.21.45.46,0,.25-.2.45-.45.45ZM422.84,672.65c-.25,0-.45-.2-.45-.45,0-.25.2-.45.45-.46h1.79c.23-.02.45.19.46.44,0,.25-.2.45-.45.46h-1.79s0,0,0,0ZM357.91,672.63h-1.78c-.25-.01-.45-.21-.45-.46,0-.25.2-.45.45-.45h1.78c.25.01.45.21.45.46,0,.25-.2.45-.45.45ZM427.02,672.62c-.25,0-.45-.2-.45-.45,0-.25.2-.45.45-.46h1.79s0-.01,0-.01c.25,0,.45.2.45.45,0,.25-.2.45-.45.46h-1.79s0,.01,0,.01ZM353.76,672.61h-1.78c-.25-.01-.45-.22-.45-.47,0-.25.2-.45.45-.45h1.78c.25.01.45.22.45.47,0,.25-.2.45-.45.45ZM431.2,672.6c-.25,0-.45-.2-.45-.45,0-.25.2-.45.45-.46h1.79s0-.01,0-.01c.25,0,.45.2.45.45,0,.25-.2.45-.45.46h-1.79s0,.01,0,.01ZM349.6,672.58h-1.78s0-.46,0-.46v-.45s1.79.01,1.79.01c.25,0,.45.21.45.46,0,.25-.2.45-.45.45ZM435.36,672.57c-.25,0-.45-.2-.45-.45,0-.25.2-.46.45-.46h1.79s0-.01,0-.01c.25,0,.45.2.45.45,0,.25-.2.46-.45.46h-1.79s0,.01,0,.01ZM345.43,672.56h-1.79c-.25-.01-.45-.22-.45-.47,0-.25.2-.45.45-.45h1.79c.25.01.45.22.45.47,0,.25-.2.45-.45.45ZM439.53,672.53c-.25,0-.45-.2-.45-.45,0-.25.2-.45.45-.46l1.79-.02h0c.25,0,.45.2.45.45,0,.25-.2.46-.45.46l-1.79.02h0ZM341.26,672.53h-1.79c-.25-.01-.45-.22-.45-.47,0-.25.2-.45.45-.45h1.79c.25.01.45.22.45.47,0,.25-.2.45-.45.45ZM337.1,672.5h-1.79c-.25-.02-.45-.22-.45-.47,0-.25.18-.46.46-.45h1.79c.25.02.45.22.45.47,0,.25-.2.45-.45.45ZM443.7,672.5c-.25,0-.45-.2-.45-.45,0-.25.2-.46.45-.46l1.79-.02h0c.25,0,.45.2.45.45,0,.25-.2.46-.45.46l-1.79.02h0ZM332.93,672.47h-1.79c-.25-.02-.45-.22-.45-.47,0-.25.23-.43.46-.45h1.79c.25.02.45.22.45.47,0,.25-.2.45-.45.45ZM447.86,672.45c-.25,0-.45-.2-.45-.45,0-.25.2-.46.45-.46l1.79-.02h0c.25,0,.45.2.45.45,0,.25-.2.45-.45.46l-1.79.02h0ZM328.76,672.43h0l-1.79-.02c-.25,0-.45-.21-.45-.46,0-.25.2-.45.45-.45h0l1.79.02c.25,0,.45.21.45.46,0,.25-.2.45-.45.45ZM452.03,672.41c-.25,0-.45-.2-.45-.45,0-.25.2-.46.45-.46l1.79-.02h0c.25,0,.45.2.45.45,0,.25-.2.46-.45.46l-1.79.02h0ZM324.59,672.4h0l-1.79-.02c-.25,0-.45-.21-.45-.46,0-.25.2-.45.45-.45h0l1.79.02c.25,0,.45.21.45.46,0,.25-.2.45-.45.45ZM320.43,672.36h0l-1.76-.02-.02-.45.03-.45,1.76.02c.25,0,.45.21.45.46,0,.25-.21.45-.45.45ZM456.2,672.36c-.25,0-.45-.2-.45-.45,0-.25.2-.46.45-.46l1.79-.02c.26,0,.46.2.46.45,0,.25-.2.46-.45.46l-1.79.02h0ZM316.26,672.32h0l-1.79-.02c-.25,0-.45-.21-.45-.46,0-.25.22-.48.46-.45l1.79.02c.25,0,.45.21.45.46,0,.25-.2.45-.45.45ZM460.37,672.3c-.25,0-.45-.2-.45-.45,0-.25.2-.46.45-.46l1.79-.02h0c.25,0,.45.2.45.45,0,.25-.2.46-.45.46l-1.79.02h0ZM312.09,672.28h0l-1.75-.02-.03-.45.04-.45,1.75.02c.25,0,.45.21.45.46,0,.25-.21.45-.45.45ZM464.53,672.24c-.25,0-.45-.2-.45-.45,0-.25.2-.46.45-.46l1.79-.03h0c.25,0,.45.2.45.45,0,.25-.2.46-.45.46l-1.79.03h0ZM376.93,672.24v-.45s0,.45,0,.45ZM307.92,672.24h0l-1.79-.02c-.25,0-.45-.21-.45-.46,0-.25.21-.45.45-.45h0l1.79.02c.25,0,.45.21.45.46,0,.25-.21.45-.45.45ZM303.76,672.19h0l-1.79-.02c-.25,0-.45-.21-.45-.46,0-.25.21-.45.45-.45h0l1.79.02c.25,0,.45.21.45.46,0,.25-.21.45-.45.45ZM468.7,672.18c-.25,0-.45-.2-.45-.45,0-.25.2-.46.45-.46l1.78-.03c.25-.03.46.19.46.44,0,.25-.19.46-.45.46l-1.79.03h0ZM299.59,672.15h0l-1.79-.02c-.25,0-.45-.21-.45-.46,0-.25.21-.45.45-.45h0l1.79.02c.25,0,.45.21.45.46,0,.25-.21.45-.45.45ZM347.81,672.12v-.45s0,.45,0,.45ZM472.87,672.11c-.25,0-.45-.2-.45-.45,0-.25.2-.46.45-.46l1.78-.03c.26-.02.46.2.46.44,0,.25-.19.46-.45.46l-1.79.03h0ZM295.42,672.1h0l-1.79-.02c-.25,0-.45-.21-.45-.46,0-.25.21-.45.45-.45h0l1.79.02c.25,0,.45.21.45.46,0,.25-.21.45-.45.45ZM291.25,672.05h0l-1.73-.02-.05-.45.06-.45,1.73.02c.25,0,.45.21.45.46,0,.25-.21.45-.45.45ZM477.03,672.04c-.25,0-.45-.2-.45-.44,0-.25.19-.46.44-.46l1.78-.03c.26,0,.46.19.46.44,0,.25-.19.46-.44.46l-1.79.03h0ZM287.08,672h0l-1.79-.02c-.25,0-.45-.21-.45-.46,0-.25.21-.45.45-.45h0l1.79.02c.25,0,.45.21.45.46,0,.25-.21.45-.45.45ZM481.2,671.96c-.25,0-.45-.2-.45-.44,0-.25.19-.46.44-.46l1.78-.04c.23-.02.46.19.46.44,0,.25-.19.46-.44.46l-1.79.04h0ZM282.92,671.95h0l-1.79-.02c-.25,0-.45-.21-.45-.46,0-.25.23-.43.46-.45l1.79.02c.25,0,.45.21.45.46,0,.25-.21.45-.45.45ZM278.75,671.89h0l-1.79-.02c-.25,0-.45-.21-.45-.46,0-.25.23-.44.46-.45l1.79.02c.25,0,.45.21.45.46,0,.25-.21.45-.45.45ZM318.64,671.89v-.45s0,.45,0,.45ZM485.37,671.87c-.25,0-.45-.2-.45-.44,0-.25.19-.46.44-.46l1.79-.04c.25.01.46.19.46.44,0,.25-.19.46-.44.46l-1.79.04h0ZM274.58,671.84h0l-1.79-.02c-.25,0-.45-.21-.45-.46,0-.25.22-.45.46-.45l1.79.02c.25,0,.45.21.45.46,0,.25-.21.45-.45.45ZM310.3,671.81v-.45s0,.45,0,.45ZM270.41,671.78h0l-1.79-.03c-.25,0-.45-.21-.45-.46s.21-.47.46-.45l1.79.03c.25,0,.45.21.45.46,0,.25-.21.45-.45.45ZM489.53,671.78c-.25,0-.45-.2-.45-.44,0-.25.19-.46.44-.46l1.79-.04h.01c.25,0,.45.2.45.44,0,.25-.19.46-.44.46l-1.79.04h-.01ZM266.25,671.72h0l-1.79-.03c-.25,0-.45-.21-.45-.46,0-.25.21-.44.46-.45l1.79.03c.25,0,.45.21.45.46,0,.25-.21.45-.45.45ZM493.7,671.68c-.25,0-.45-.2-.45-.44,0-.25.19-.46.44-.46l1.79-.04c.28,0,.46.19.47.44s-.19.46-.44.47l-1.79.04h-.01ZM262.08,671.66h0l-1.79-.03c-.25,0-.45-.21-.45-.46,0-.25.21-.45.45-.45h0l1.79.03c.25,0,.45.21.45.46,0,.25-.21.45-.45.45ZM257.91,671.6h0l-1.79-.03c-.25,0-.45-.21-.45-.46,0-.25.19-.44.46-.45l1.79.03c.25,0,.45.21.45.46,0,.25-.21.45-.45.45ZM289.47,671.58v-.45s0,.45,0,.45ZM497.86,671.57c-.24,0-.45-.2-.45-.44,0-.25.19-.46.44-.47l1.78-.05c.25,0,.46.19.47.44,0,.25-.19.46-.44.47l-1.79.05h-.01ZM253.74,671.53h0l-1.79-.03c-.25,0-.45-.21-.45-.46,0-.25.22-.44.46-.45l1.79.03c.25,0,.45.21.45.46,0,.25-.21.45-.45.45ZM249.58,671.47h0l-1.79-.03c-.25,0-.45-.21-.45-.46,0-.25.21-.45.45-.45h0l1.79.03c.25,0,.45.21.45.46,0,.25-.21.45-.45.45ZM502.03,671.45c-.24,0-.45-.19-.45-.44,0-.25.19-.46.44-.47l1.78-.05h.01c.24,0,.45.19.45.44,0,.25-.19.46-.44.47l-1.79.05h-.01ZM245.41,671.4h0l-1.79-.03c-.25,0-.45-.21-.45-.46,0-.25.21-.45.45-.45h0l1.79.03c.25,0,.45.21.45.46,0,.25-.21.45-.45.45ZM241.24,671.33h0l-1.79-.03c-.25,0-.45-.21-.45-.46,0-.25.2-.46.46-.45l1.79.03c.25,0,.45.21.45.46,0,.25-.21.45-.45.45ZM506.2,671.33c-.24,0-.45-.19-.45-.44,0-.25.19-.46.44-.47l1.79-.06c.23,0,.46.19.47.44,0,.25-.19.46-.44.47l-1.79.06h-.01ZM237.07,671.26h0l-1.79-.03c-.25,0-.45-.21-.45-.46,0-.25.21-.45.45-.45h0l1.79.03c.25,0,.45.21.45.46,0,.25-.21.45-.45.45ZM510.36,671.2c-.24,0-.44-.19-.45-.44,0-.25.19-.46.44-.47l1.79-.06c.24-.01.46.19.47.44s-.19.46-.44.47l-1.79.06h-.01ZM232.9,671.19h0l-1.79-.03c-.25,0-.45-.21-.45-.46,0-.25.21-.45.45-.45h0l1.79.03c.25,0,.45.21.45.46,0,.25-.21.44-.45.44ZM228.74,671.12h0l-1.79-.03c-.25,0-.45-.21-.44-.46,0-.25.21-.42.46-.44l1.79.03c.25,0,.45.21.45.46,0,.25-.21.45-.45.45ZM514.53,671.06c-.24,0-.44-.19-.45-.44,0-.25.19-.46.44-.47l1.78-.06c.25,0,.46.19.47.44,0,.25-.19.46-.44.47l-1.79.06h-.02ZM224.57,671.05h0l-1.79-.03c-.25,0-.45-.21-.44-.46,0-.25.21-.45.46-.44l1.79.03c.25,0,.45.21.45.46,0,.25-.21.44-.45.44ZM220.4,670.97h0l-1.79-.03c-.25,0-.45-.21-.44-.46,0-.25.21-.47.46-.44l1.79.03c.25,0,.45.21.45.46,0,.25-.21.45-.45.45ZM518.69,670.91c-.24,0-.44-.19-.45-.44,0-.25.19-.46.44-.47l1.78-.07s.01,0,.02,0c.24,0,.44.19.45.44,0,.25-.19.46-.44.47l-1.78.07s-.01,0-.02,0ZM216.23,670.89h0l-1.79-.03c-.25,0-.45-.21-.44-.46,0-.25.2-.43.46-.44l1.79.03c.25,0,.45.21.44.46,0,.25-.21.44-.45.44ZM212.06,670.81h0l-1.79-.03c-.25,0-.45-.21-.44-.46,0-.25.2-.46.46-.44l1.79.03c.25,0,.45.21.44.46,0,.25-.21.44-.45.44ZM522.85,670.74c-.24,0-.44-.19-.45-.43-.01-.25.18-.46.43-.47l1.78-.07c.24-.03.46.18.47.43.01.25-.18.46-.43.47l-1.79.07s-.01,0-.02,0ZM207.9,670.73h0l-1.79-.04c-.25,0-.45-.21-.44-.46,0-.25.21-.45.46-.44l1.79.04c.25,0,.45.21.44.46,0,.25-.21.44-.45.44ZM203.73,670.65h0l-1.79-.04c-.25,0-.45-.21-.44-.46,0-.25.19-.43.46-.44l1.79.04c.25,0,.45.21.44.46,0,.25-.21.44-.45.44ZM527.02,670.57c-.24,0-.44-.19-.45-.43-.01-.25.18-.46.43-.47l1.78-.08c.22-.02.46.18.47.43.01.25-.18.46-.43.47l-1.79.08s-.01,0-.02,0ZM199.56,670.57h0l-1.79-.04c-.25,0-.45-.21-.44-.46,0-.25.2-.44.46-.44l1.79.04c.25,0,.45.21.44.46,0,.25-.21.44-.45.44ZM195.39,670.48h0l-1.79-.04c-.25,0-.45-.21-.44-.46,0-.25.21-.44.45-.44h0l1.79.04c.25,0,.45.21.44.46,0,.25-.21.44-.45.44ZM191.22,670.4h0l-1.79-.04c-.25,0-.45-.21-.44-.46,0-.25.23-.45.46-.44l1.79.04c.25,0,.45.21.44.46,0,.25-.21.44-.45.44ZM531.18,670.38c-.24,0-.44-.19-.45-.43-.01-.25.18-.46.43-.47l1.78-.08c.25-.02.46.18.48.43.01.25-.18.46-.43.48l-1.79.08s-.01,0-.02,0ZM187.05,670.31h-.01l-1.78-.04.02-.91v.45s0-.45,0-.45l1.78.04c.25,0,.45.21.44.46,0,.25-.21.44-.45.44ZM182.87,670.21h-.01l-1.79-.04c-.25,0-.45-.21-.44-.46,0-.25.21-.44.46-.44l1.79.04c.25,0,.45.21.44.46,0,.25-.21.44-.45.44ZM535.34,670.18c-.24,0-.44-.19-.45-.43-.01-.25.18-.46.43-.48l1.78-.09c.25-.02.46.18.48.43.01.25-.18.46-.43.48l-1.78.09s-.02,0-.02,0ZM178.69,670.12h-.01l-1.8-.04c-.25,0-.45-.21-.44-.46,0-.25.23-.44.46-.44l1.8.04c.25,0,.45.21.44.46,0,.25-.21.44-.45.44Z"/>
    </g>
  </g>
</svg>