<?xml version="1.0" encoding="UTF-8"?>
<svg id="Layer_1" xmlns="http://www.w3.org/2000/svg" version="1.1" viewBox="0 0 720 720">
  <!-- Generator: Adobe Illustrator 30.3.0, SVG Export Plug-In . SVG Version: 2.1.3 Build 182)  -->
  <defs>
    <style>
      .st0 {
        fill: #fff;
      }

      .st1 {
        fill: #010101;
      }
    </style>
  </defs>
  <path class="st0" d="M667.22,250.28l.1-.08s-.08.03-.12.05l-104.02-156.96-.03.36-.14-.2-.03-.04c.06-.03.13-.08.19-.11,0,0-1.41-1.96-3.67-4.88h0c-2.74-3.56-6.72-8.56-10.92-13.26-4.19-4.69-8.6-9.08-12.19-11.4-7.57-4.89-59.66-28.86-85.68-40.74l.03-.14h-.33l-14.42-6.56s-.01,0-.03.02c-.41.3-4.74,3.38-13.67,6.87,0,0-2.22.71-6.1,1.76-.06.01-.1.03-.16.04-11.81,3.2-38.61,9.48-64.76,8.88-31.33-.72-59.93-9.13-59.93-9.13-10.62-3.77-15.26-7.26-15.26-7.26l-14.4,7.61h-.03s-1.39.74-1.39.74c0,0-.91.39-2.55,1.11l-.05.02c-11,4.76-54.05,23.57-75.88,35.4l-.04.02s-.04.02-.12.06c-.05.03-.11.06-.19.1-.05.02-.09.05-.15.08-.29.15-.68.37-1.18.65-.1.06-.19.11-.3.17-.21.12-.44.25-.68.38-3.95,2.21-6.98,4.12-8.67,5.56-.79.67-1.56,1.36-2.31,2.05-.74.68-1.46,1.36-2.16,2.07-.01,0-.02.02-.03.03-3.82,3.79-7.1,7.73-9.67,11.09h0c-2.72,3.57-4.61,6.47-5.46,7.82-.33.53-.5.81-.5.81L55.44,245.74c-.1-.07-.18-.13-.23-.15l.22.17-10.14,16.28c-1.08,1.73-.59,4,1.09,5.14l126.47,85.38,7.48-6.05,4.69-3.79c-2.53,151.21-4.71,356.53-4.71,356.53l72.36,1.8,23.33.58,53.86,1.34,26.89.67,2.03-.08,65.35-2.42,29.03-1.08,94.57-3.5s-2.16-200.62-4.09-356.83c0-.47,0-.93-.01-1.4l.13-.06-.12,1.46,4.86,4.59c-.19.25-.3.4-.32.43l.42-.33,1.5,1.42,10.6,10.02s22.67-26.87,44.45-46.56c21.78-19.69,70.12-46.84,70.12-46.84l-8.07-12.18ZM184.99,342.53h.03v.17l-.03-.17Z"/>
  <g>
    <path class="st1" d="M564.17,92.56c-.69-.95-16.89-23.24-27.1-29.85-10.11-6.54-96.87-45.85-100.56-47.53-.37-.17-.8-.14-1.15.07-.34.22-.56.59-.58,1,0,.03-.03.53-.1,1.44l2.43.47c12.17,5.52,89.42,40.66,98.63,46.62,8.58,5.55,22.2,23.48,25.64,28.12-10.01,6.48-22.82,33.04-21.57,68,1.29,36.26,6.41,507.45,6.7,534.5-12.98.71-129.46,7.05-174.64,7.07h-.34c-64.54,0-177.1-3.94-189.96-4.4.27-25.04,4.6-424.24,8.04-500.45,1.86-41.23-8.68-67.65-17.86-82.54-8.28-13.45-16.81-20.11-19.73-22.15,2.12-3.32,9.45-14.23,19.26-22.57,11.66-9.91,88.72-43.03,89.49-43.36.03-.01.06-.03.09-.05l13.41-7.08h0s.06-.03.06-.03l.63-.34s0,.03,0,.04l2.37-1.12c-.03-.34-.03-.61-.01-.83.03-.45-.19-.87-.56-1.11s-.85-.26-1.24-.05l-15.77,8.33c-3.8,1.64-78.19,33.63-90.07,43.74-11.95,10.16-20.06,23.6-20.4,24.17-.35.58-.16,1.33.42,1.68.1.06,10.36,6.38,20.04,22.17,8.95,14.59,19.23,40.49,17.4,81-3.54,78.33-8.01,497.5-8.06,501.73,0,.67.52,1.22,1.18,1.24,1.22.05,123.03,4.45,191.24,4.45h.34c47.71-.01,174.67-7.07,175.95-7.14.65-.03,1.16-.58,1.16-1.24-.05-4.98-5.39-498.55-6.71-535.72-1.31-36.63,13.05-62.33,21.46-66.43.33-.16.57-.45.65-.81.09-.35.02-.72-.19-1.02Z"/>
    <path class="st1" d="M355.15,35.14c-57.04,0-78.9-15.98-79.8-16.66-.54-.41-.65-1.18-.24-1.72.41-.54,1.18-.65,1.72-.24h0c.22.16,22.24,16.16,78.33,16.16s79.89-17.19,80.12-17.36c.54-.4,1.31-.29,1.72.25.4.54.29,1.31-.25,1.72-.98.73-24.55,17.85-81.59,17.85Z"/>
    <g>
      <path class="st1" d="M354.62,49.14c-39.88,0-62.23-6.89-72-10.99-.28-.12-.41-.45-.3-.73.12-.29.44-.42.72-.31,9.7,4.07,31.89,10.91,71.59,10.91,42.51,0,66.14-8.6,74.33-12.3.28-.13.6,0,.72.29.12.28,0,.61-.28.74-10.25,4.63-33.59,12.4-74.77,12.4Z"/>
      <path class="st1" d="M354.62,55.78c-7.51,0-14.41-.24-20.72-.66-23.03-1.54-38.32-5.49-47.68-8.92-.29-.1-.43-.43-.33-.72.1-.29.42-.44.7-.34,11.85,4.34,33.27,9.52,68.03,9.52,38.66,0,61.6-7.03,71.84-11.22.28-.12.6.02.71.31.11.29-.02.61-.31.73-10.31,4.22-33.4,11.3-72.24,11.3Z"/>
    </g>
    <path class="st1" d="M263.93,37.34c-9.93,4.16-72.99,30.6-81.95,36.1-9.61,5.9-23.39,26.24-23.52,26.45-.12.17-.32.27-.51.27-.12,0-.24-.03-.34-.1-.28-.19-.36-.57-.17-.85.57-.85,14.06-20.77,23.9-26.81,9.17-5.63,71.92-31.93,82.13-36.19l.47,1.13Z"/>
    <path class="st1" d="M555.95,100.06c-.1.07-.22.1-.34.1-.19,0-.39-.1-.51-.27-.14-.21-13.91-20.55-23.52-26.45-9.42-5.78-78.46-34.64-83.03-36.55l.44-1.15c5.1,2.13,73.62,30.75,83.23,36.65,9.85,6.04,23.33,25.96,23.9,26.81.19.28.12.67-.17.85Z"/>
    <path class="st1" d="M172.85,353.78c-.24,0-.48-.07-.69-.21l-126.47-85.38c-2.24-1.51-2.88-4.5-1.45-6.8l105.03-168.76c.36-.58,1.12-.75,1.69-.39.58.36.75,1.12.39,1.69l-105.03,168.76c-.73,1.17-.4,2.69.74,3.47l125.71,84.87,11.46-9.27c.53-.43,1.3-.34,1.73.18.43.53.35,1.3-.18,1.73l-12.16,9.84c-.22.18-.5.27-.77.27Z"/>
    <path class="st1" d="M560.72,357.08c-.31,0-.62-.12-.84-.34l-17.07-16.13c-.49-.47-.52-1.24-.05-1.74.47-.49,1.24-.51,1.74-.05l16.13,15.24c4.32-5.04,24.48-28.3,43.73-45.69,19.76-17.87,61.71-42.09,69.19-46.35l-111.38-168.07c-.37-.57-.22-1.33.35-1.7.57-.38,1.33-.22,1.7.35l112.11,169.17c.19.28.25.63.17.97-.08.33-.29.62-.59.78-.48.27-48.46,27.31-69.89,46.68-21.47,19.41-44.11,46.18-44.34,46.44-.22.26-.53.42-.87.43-.02,0-.05,0-.07,0Z"/>
    <g>
      <path class="st1" d="M544.75,340.48c-.09,0-.19-.03-.27-.09-.2-.15-.25-.44-.1-.64,0,0,.38-.51,1.11-1.47.16-.2.44-.24.65-.08.2.16.24.44.08.65-.72.94-1.1,1.45-1.1,1.45-.09.12-.23.19-.37.19ZM547.35,337.11c-.1,0-.2-.03-.29-.1-.2-.16-.23-.45-.08-.65.35-.44.72-.91,1.14-1.43.16-.2.45-.23.65-.07.2.16.23.45.07.65-.41.51-.79.98-1.13,1.42-.09.11-.23.17-.36.17ZM550.01,333.8c-.1,0-.21-.03-.29-.1-.2-.16-.23-.45-.06-.65.37-.45.75-.92,1.16-1.4.16-.2.45-.22.65-.06.2.16.22.45.06.65-.4.49-.79.95-1.16,1.4-.09.11-.22.17-.36.17ZM552.73,330.54c-.1,0-.21-.04-.3-.11-.19-.16-.22-.45-.05-.65.38-.45.77-.91,1.18-1.39.16-.19.46-.22.65-.05.19.17.22.46.05.65-.4.47-.8.93-1.17,1.38-.09.11-.22.16-.35.16ZM555.48,327.32c-.11,0-.21-.04-.3-.11-.19-.17-.21-.46-.05-.65.39-.45.79-.91,1.2-1.37.17-.19.46-.21.65-.04.19.17.21.46.04.65-.41.46-.81.92-1.19,1.37-.09.1-.22.16-.35.16ZM558.28,324.13c-.11,0-.22-.04-.31-.12-.19-.17-.21-.46-.04-.65.4-.45.8-.9,1.21-1.36.17-.19.46-.2.65-.03.19.17.2.46.03.65-.41.46-.81.91-1.21,1.35-.09.1-.22.15-.34.15ZM561.12,320.98c-.11,0-.22-.04-.31-.12-.19-.17-.2-.46-.03-.65.4-.44.81-.89,1.23-1.34.17-.19.46-.2.65-.03.19.17.2.46.03.65-.42.45-.82.9-1.23,1.34-.09.1-.22.15-.34.15ZM563.99,317.87c-.11,0-.23-.04-.31-.12-.19-.17-.2-.47-.02-.65.41-.44.82-.88,1.24-1.33.17-.19.47-.19.65-.02.18.17.19.47.02.65-.42.44-.83.89-1.24,1.32-.09.1-.21.15-.34.15ZM566.91,314.79c-.11,0-.23-.04-.32-.13-.18-.18-.19-.47-.01-.65.41-.43.83-.87,1.26-1.31.18-.18.47-.19.65-.01.18.18.19.47.01.65-.42.44-.84.88-1.26,1.31-.09.09-.21.14-.33.14ZM569.85,311.74c-.12,0-.23-.04-.32-.13-.18-.18-.18-.47,0-.65.42-.43.85-.86,1.28-1.3.18-.18.47-.18.65,0,.18.18.18.47,0,.65-.43.43-.85.86-1.27,1.29-.09.09-.21.14-.33.14ZM572.84,308.73c-.12,0-.24-.04-.33-.14-.18-.18-.18-.47,0-.65.43-.42.86-.85,1.29-1.28.18-.18.47-.18.65,0,.18.18.18.47,0,.65-.43.43-.86.85-1.29,1.28-.09.09-.21.13-.33.13ZM575.85,305.76c-.12,0-.24-.05-.33-.14-.18-.18-.17-.47,0-.65.43-.42.87-.84,1.31-1.27.18-.18.47-.17.65.01.18.18.17.47-.01.65-.44.42-.87.84-1.3,1.26-.09.09-.21.13-.32.13ZM578.9,302.82c-.12,0-.24-.05-.33-.14-.18-.18-.17-.48.02-.65.44-.42.88-.83,1.32-1.25.19-.17.48-.17.65.02.17.19.17.48-.02.65-.44.42-.88.83-1.32,1.25-.09.08-.2.13-.32.13ZM581.99,299.92c-.12,0-.25-.05-.34-.15-.17-.19-.16-.48.02-.65.44-.41.89-.82,1.33-1.23.19-.17.48-.16.65.03.17.19.16.48-.03.65-.45.41-.89.82-1.33,1.23-.09.08-.2.12-.31.12ZM585.11,297.05c-.13,0-.25-.05-.34-.15-.17-.19-.16-.48.03-.65.45-.41.9-.81,1.35-1.22.19-.17.48-.15.65.04.17.19.15.48-.04.65-.45.41-.9.81-1.35,1.22-.09.08-.2.12-.31.12ZM588.27,294.22c-.13,0-.25-.05-.35-.16-.17-.19-.15-.48.04-.65.45-.4.91-.8,1.36-1.2.19-.17.48-.15.65.04.17.19.15.48-.04.65-.46.4-.91.8-1.36,1.2-.09.08-.2.12-.3.12ZM591.46,291.44c-.13,0-.26-.05-.35-.16-.17-.19-.14-.48.05-.65.46-.39.92-.79,1.38-1.18.19-.16.48-.14.65.05.17.19.14.48-.05.65-.46.39-.92.79-1.38,1.18-.09.07-.19.11-.3.11ZM594.68,288.69c-.13,0-.26-.06-.35-.16-.16-.19-.14-.49.06-.65.46-.39.93-.78,1.39-1.17.2-.16.49-.14.65.06.16.2.14.49-.06.65-.47.39-.93.78-1.39,1.16-.09.07-.19.11-.3.11ZM597.94,285.98c-.13,0-.27-.06-.36-.17-.16-.2-.13-.49.06-.65.47-.38.94-.77,1.41-1.15.2-.16.49-.13.65.07s.13.49-.07.65c-.47.38-.94.76-1.41,1.14-.09.07-.19.1-.29.1ZM601.24,283.32c-.14,0-.27-.06-.36-.17-.16-.2-.13-.49.07-.65.47-.38.95-.75,1.43-1.13.2-.16.49-.12.65.08.16.2.12.49-.08.65-.48.38-.95.75-1.42,1.13-.08.07-.19.1-.29.1ZM604.57,280.7c-.14,0-.27-.06-.36-.18-.16-.2-.12-.49.08-.65.48-.37.96-.74,1.44-1.11.2-.16.49-.12.65.09.15.2.12.49-.09.65-.48.37-.96.74-1.44,1.11-.08.07-.18.1-.28.1ZM607.94,278.13c-.14,0-.28-.06-.37-.18-.15-.2-.11-.49.09-.65.48-.36.97-.73,1.46-1.09.2-.15.49-.11.64.09.15.2.11.49-.09.64-.49.36-.97.72-1.45,1.09-.08.06-.18.09-.28.09ZM611.34,275.6c-.14,0-.28-.07-.37-.19-.15-.21-.11-.49.1-.64.49-.36.98-.71,1.47-1.07.21-.15.49-.1.64.1.15.21.1.49-.1.64-.49.35-.98.71-1.47,1.07-.08.06-.18.09-.27.09ZM614.77,273.13c-.14,0-.29-.07-.38-.19-.15-.21-.1-.49.11-.64.49-.35.99-.7,1.49-1.05.21-.14.5-.1.64.11.15.21.1.5-.11.64-.5.35-.99.69-1.48,1.04-.08.06-.17.08-.27.08ZM618.25,270.7c-.15,0-.29-.07-.38-.2-.14-.21-.09-.5.12-.64.5-.34,1-.68,1.5-1.02.21-.14.5-.09.64.12.14.21.09.5-.12.64-.5.34-1,.68-1.5,1.02-.08.05-.17.08-.26.08ZM621.76,268.33c-.15,0-.3-.07-.38-.21-.14-.21-.08-.5.13-.64.5-.34,1.01-.67,1.52-1,.21-.14.5-.08.64.13.14.21.08.5-.13.64-.51.33-1.01.66-1.51,1-.08.05-.17.08-.25.08ZM625.3,266.01c-.15,0-.3-.07-.39-.21-.14-.21-.08-.5.14-.64.51-.33,1.02-.65,1.53-.98.21-.14.5-.07.64.14.14.22.07.5-.14.64-.51.32-1.02.65-1.53.97-.08.05-.16.07-.25.07ZM628.88,263.75c-.15,0-.3-.08-.39-.22-.13-.22-.07-.5.15-.63.51-.32,1.03-.64,1.55-.95.22-.13.5-.06.63.15.13.22.06.5-.15.63-.52.31-1.03.63-1.54.95-.08.05-.16.07-.24.07ZM632.5,261.55c-.16,0-.31-.08-.4-.22-.13-.22-.06-.5.16-.63.52-.31,1.04-.62,1.57-.93.22-.13.5-.06.63.16.13.22.06.5-.16.63-.52.31-1.04.61-1.56.92-.07.04-.16.07-.24.07ZM636.16,259.41c-.16,0-.31-.08-.4-.23-.13-.22-.05-.5.17-.63.53-.3,1.05-.6,1.58-.9.22-.12.5-.05.63.17.13.22.05.5-.17.63-.53.3-1.05.6-1.58.9-.07.04-.15.06-.23.06ZM639.85,257.33c-.16,0-.32-.09-.4-.24-.12-.22-.04-.5.18-.63.53-.29,1.06-.58,1.6-.87.22-.12.5-.04.62.19.12.22.04.5-.19.62-.53.29-1.06.58-1.59.87-.07.04-.15.06-.22.06ZM643.58,255.32c-.17,0-.33-.09-.41-.25-.12-.22-.03-.5.19-.62.54-.28,1.07-.56,1.61-.84.22-.12.5-.03.62.2.12.23.03.5-.2.62-.54.28-1.07.56-1.61.84-.07.04-.14.05-.21.05ZM647.35,253.38c-.17,0-.33-.09-.41-.25-.11-.23-.02-.5.2-.62.54-.27,1.08-.54,1.63-.81.23-.11.5-.02.62.21.11.23.02.5-.21.62-.54.27-1.08.54-1.62.81-.07.03-.14.05-.21.05ZM651.15,251.51c-.17,0-.34-.1-.42-.26-.11-.23-.01-.5.22-.61.55-.26,1.09-.52,1.64-.78.23-.11.5,0,.61.22.11.23,0,.5-.22.61-.55.26-1.09.52-1.64.78-.06.03-.13.05-.2.05ZM654.98,249.72c-.18,0-.34-.1-.42-.27-.11-.23,0-.5.23-.61.55-.25,1.1-.5,1.65-.74.23-.1.5,0,.61.23.1.23,0,.5-.23.61-.55.25-1.1.49-1.65.74-.06.03-.13.04-.19.04ZM658.84,248.01c-.18,0-.35-.1-.42-.28-.1-.23,0-.5.24-.61.56-.24,1.11-.48,1.67-.71.24-.1.51.01.6.25.1.23-.01.5-.25.6-.56.23-1.11.47-1.66.71-.06.03-.12.04-.18.04ZM662.74,246.38c-.18,0-.35-.11-.43-.29-.1-.24.02-.5.25-.6.38-.15.76-.31,1.14-.46.24-.09.5.02.6.26.09.24-.02.5-.26.6-.38.15-.75.3-1.13.46-.06.02-.12.03-.17.03Z"/>
      <path class="st1" d="M548.18,345.22c-.09,0-.19-.03-.27-.09-.2-.15-.25-.44-.1-.64,0,0,.38-.51,1.11-1.47.15-.2.44-.24.65-.08.2.16.24.44.08.65-.72.94-1.1,1.45-1.1,1.45-.09.12-.23.19-.37.19ZM550.79,341.84c-.1,0-.2-.03-.29-.1-.2-.16-.23-.45-.08-.65.35-.44.72-.91,1.14-1.43.16-.2.45-.23.65-.07.2.16.23.45.07.65-.41.51-.79.98-1.13,1.42-.09.11-.23.17-.36.17ZM553.45,338.54c-.1,0-.21-.03-.29-.1-.2-.16-.23-.45-.06-.65.37-.45.75-.92,1.16-1.4.16-.2.45-.22.65-.06s.22.45.06.65c-.4.49-.79.95-1.16,1.4-.09.11-.22.17-.36.17ZM556.16,335.28c-.1,0-.21-.04-.3-.11-.19-.16-.22-.45-.05-.65.38-.45.77-.91,1.18-1.39.16-.19.46-.22.65-.05.19.17.22.46.05.65-.4.47-.8.93-1.17,1.38-.09.11-.22.16-.35.16ZM558.92,332.06c-.11,0-.21-.04-.3-.11-.19-.17-.21-.46-.05-.65.39-.45.79-.91,1.2-1.37.17-.19.46-.21.65-.04.19.17.21.46.04.65-.41.46-.81.92-1.19,1.37-.09.1-.22.16-.35.16ZM561.72,328.87c-.11,0-.22-.04-.31-.12-.19-.17-.21-.46-.04-.65.4-.45.8-.9,1.21-1.36.17-.19.46-.2.65-.03.19.17.2.46.03.65-.41.46-.81.91-1.21,1.35-.09.1-.22.15-.34.15ZM564.56,325.72c-.11,0-.22-.04-.31-.12-.19-.17-.2-.46-.03-.65.4-.44.81-.89,1.23-1.34.17-.19.46-.2.65-.03.19.17.2.46.03.65-.42.45-.82.9-1.23,1.34-.09.1-.22.15-.34.15ZM567.43,322.61c-.11,0-.23-.04-.31-.12-.19-.17-.2-.47-.02-.65.41-.44.82-.88,1.24-1.33.17-.18.47-.19.65-.02.19.17.19.47.02.65-.42.44-.83.89-1.24,1.32-.09.1-.21.15-.34.15ZM570.34,319.53c-.11,0-.23-.04-.32-.13-.18-.18-.19-.47-.01-.65.41-.43.83-.87,1.26-1.31.18-.18.47-.19.65-.01.18.18.19.47.01.65-.42.44-.84.87-1.26,1.31-.09.09-.21.14-.33.14ZM573.29,316.48c-.12,0-.23-.04-.32-.13-.18-.18-.18-.47,0-.65.42-.43.85-.86,1.28-1.3.18-.18.47-.18.65,0,.18.18.18.47,0,.65-.43.43-.85.86-1.27,1.29-.09.09-.21.14-.33.14ZM576.27,313.47c-.12,0-.24-.04-.33-.14-.18-.18-.18-.47,0-.65.43-.43.86-.85,1.29-1.28.18-.18.47-.18.65,0,.18.18.18.47,0,.65-.43.43-.86.85-1.29,1.28-.09.09-.21.13-.33.13ZM579.29,310.5c-.12,0-.24-.05-.33-.14-.18-.18-.17-.47,0-.65.43-.42.87-.84,1.31-1.27.18-.18.47-.17.65.01.18.18.17.47-.01.65-.44.42-.87.84-1.3,1.26-.09.09-.21.13-.32.13ZM582.34,307.56c-.12,0-.24-.05-.33-.14-.18-.18-.17-.48.02-.65.44-.42.88-.83,1.32-1.25.18-.17.48-.17.65.02.17.19.17.48-.02.65-.44.42-.88.83-1.32,1.25-.09.08-.2.13-.32.13ZM585.43,304.65c-.12,0-.25-.05-.34-.15-.17-.19-.16-.48.02-.65.44-.41.89-.82,1.33-1.23.19-.17.48-.16.65.03.17.19.16.48-.03.65-.45.41-.89.82-1.33,1.23-.09.08-.2.12-.31.12ZM588.55,301.79c-.13,0-.25-.05-.34-.15-.17-.19-.16-.48.03-.65.45-.41.9-.81,1.35-1.22.19-.17.48-.15.65.04.17.19.15.48-.04.65-.45.41-.9.81-1.35,1.21-.09.08-.2.12-.31.12ZM591.71,298.96c-.13,0-.25-.05-.35-.16-.17-.19-.15-.48.04-.65.45-.4.91-.8,1.36-1.2.19-.17.48-.15.65.04.17.19.15.48-.04.65-.46.4-.91.8-1.36,1.2-.09.08-.2.12-.31.12ZM594.9,296.17c-.13,0-.26-.05-.35-.16-.17-.19-.14-.48.05-.65.46-.39.92-.79,1.38-1.18.19-.17.48-.14.65.05.17.19.14.48-.05.65-.46.39-.92.79-1.38,1.18-.09.07-.19.11-.3.11ZM598.12,293.43c-.13,0-.26-.06-.35-.16-.16-.19-.14-.49.06-.65.46-.39.93-.78,1.39-1.17.2-.16.49-.14.65.06.16.2.14.49-.06.65-.47.39-.93.78-1.39,1.16-.09.07-.19.11-.3.11ZM601.38,290.72c-.13,0-.27-.06-.36-.17-.16-.2-.13-.49.06-.65.47-.38.94-.77,1.41-1.15.2-.16.49-.13.65.07.16.2.13.49-.07.65-.47.38-.94.76-1.41,1.14-.09.07-.19.1-.29.1ZM604.68,288.06c-.14,0-.27-.06-.36-.17-.16-.2-.13-.49.07-.65.47-.38.95-.75,1.43-1.13.2-.16.49-.12.65.08.16.2.12.49-.08.65-.48.38-.95.75-1.42,1.13-.08.07-.19.1-.29.1ZM608.01,285.44c-.14,0-.27-.06-.36-.18-.16-.2-.12-.49.08-.65.48-.37.96-.74,1.44-1.11.2-.16.49-.12.65.09.15.2.12.49-.09.65-.48.37-.96.74-1.44,1.11-.08.07-.18.1-.28.1ZM611.37,282.87c-.14,0-.28-.06-.37-.18-.15-.2-.11-.49.09-.65.48-.36.97-.73,1.46-1.09.2-.15.49-.11.64.09.15.2.11.49-.09.64-.49.36-.97.72-1.45,1.09-.08.06-.18.09-.28.09ZM614.78,280.34c-.14,0-.28-.07-.37-.19-.15-.21-.11-.49.1-.64.49-.36.98-.71,1.47-1.07.21-.15.49-.1.64.1.15.21.1.49-.1.64-.49.35-.98.71-1.47,1.07-.08.06-.18.09-.27.09ZM618.21,277.86c-.14,0-.29-.07-.38-.19-.15-.21-.1-.49.11-.64.49-.35.99-.7,1.49-1.05.21-.15.5-.1.64.11.15.21.1.5-.11.64-.5.35-.99.69-1.48,1.04-.08.06-.17.08-.27.08ZM621.69,275.44c-.15,0-.29-.07-.38-.2-.14-.21-.09-.5.12-.64.5-.34,1-.68,1.5-1.02.21-.14.5-.09.64.12.14.21.09.5-.12.64-.5.34-1,.68-1.5,1.02-.08.05-.17.08-.26.08ZM625.2,273.07c-.15,0-.3-.07-.38-.21-.14-.21-.08-.5.13-.64.5-.33,1.01-.67,1.52-1,.21-.14.5-.08.64.13.14.21.08.5-.13.64-.51.33-1.01.66-1.51,1-.08.05-.17.08-.25.08ZM628.74,270.75c-.15,0-.3-.07-.39-.21-.14-.21-.08-.5.14-.64.51-.33,1.02-.65,1.53-.98.21-.13.5-.07.64.14.14.22.07.5-.14.64-.51.32-1.02.65-1.53.97-.08.05-.16.07-.25.07ZM632.32,268.49c-.15,0-.3-.08-.39-.22-.13-.22-.07-.5.15-.63.51-.32,1.03-.64,1.55-.95.22-.13.5-.06.63.15.13.22.06.5-.15.63-.52.31-1.03.63-1.54.95-.08.05-.16.07-.24.07ZM635.94,266.29c-.16,0-.31-.08-.4-.22-.13-.22-.06-.5.16-.63.52-.31,1.04-.62,1.57-.93.22-.13.5-.06.63.16.13.22.06.5-.16.63-.52.31-1.04.61-1.56.92-.07.04-.16.07-.24.07ZM639.6,264.15c-.16,0-.31-.08-.4-.23-.13-.22-.05-.5.17-.63.53-.3,1.05-.6,1.58-.9.22-.12.5-.05.63.17.13.22.05.5-.17.63-.53.3-1.05.6-1.58.9-.07.04-.15.06-.23.06ZM643.29,262.07c-.16,0-.32-.09-.4-.24-.12-.22-.04-.5.18-.63.53-.29,1.06-.58,1.6-.87.22-.12.5-.04.62.19.12.22.04.5-.19.62-.53.29-1.06.58-1.59.87-.07.04-.15.06-.22.06ZM647.02,260.06c-.17,0-.33-.09-.41-.25-.12-.22-.03-.5.19-.62.54-.28,1.07-.56,1.61-.84.22-.12.5-.03.62.2.12.23.03.5-.2.62-.54.28-1.07.56-1.61.84-.07.04-.14.05-.21.05ZM650.78,258.12c-.17,0-.33-.09-.41-.25-.11-.23-.02-.5.2-.62.54-.27,1.08-.54,1.63-.81.23-.11.5-.02.62.21.11.23.02.5-.21.62-.54.27-1.08.54-1.62.81-.07.03-.14.05-.21.05ZM654.59,256.25c-.17,0-.34-.1-.42-.26-.11-.23-.01-.5.22-.61.55-.26,1.09-.52,1.64-.78.23-.11.5,0,.61.22.11.23,0,.5-.22.61-.55.26-1.09.52-1.64.78-.06.03-.13.05-.2.05ZM658.41,254.46c-.18,0-.34-.1-.42-.27-.11-.23,0-.5.23-.61.55-.25,1.1-.5,1.65-.74.23-.1.5,0,.61.23.1.23,0,.5-.23.61-.55.25-1.1.49-1.65.74-.06.03-.13.04-.19.04ZM662.28,252.75c-.18,0-.35-.1-.42-.28-.1-.23,0-.5.24-.61.56-.24,1.11-.48,1.67-.71.24-.1.5.01.6.25.1.23-.01.5-.25.6-.56.23-1.11.47-1.66.71-.06.03-.12.04-.18.04ZM666.18,251.12c-.18,0-.35-.11-.43-.29-.1-.24.02-.5.25-.6.38-.15.76-.31,1.13-.46.24-.09.5.02.6.26.09.24-.02.5-.26.6-.38.15-.75.3-1.13.46-.06.02-.12.03-.17.03Z"/>
    </g>
    <path class="st1" d="M181.75,345.59c-.13,0-.26-.05-.35-.16-.38-.42-.81-.87-1.28-1.35-.19-.19-.19-.49,0-.68.19-.19.49-.19.68,0,.49.49.93.95,1.31,1.38.18.2.16.5-.03.67-.09.08-.21.12-.32.12ZM178.65,342.47c-.12,0-.23-.04-.33-.13-.44-.41-.9-.83-1.39-1.27-.2-.18-.21-.48-.04-.67.18-.2.48-.21.67-.04.49.44.95.87,1.4,1.28.19.18.2.48.02.68-.09.1-.22.15-.35.15ZM175.37,339.54c-.11,0-.22-.04-.31-.12-.46-.4-.94-.81-1.43-1.22-.2-.17-.23-.47-.06-.67.17-.2.47-.23.67-.06.49.42.97.83,1.44,1.23.2.17.22.47.05.67-.09.11-.23.16-.36.16ZM172.01,336.69c-.11,0-.22-.04-.3-.11-.47-.39-.96-.79-1.45-1.2-.2-.17-.23-.47-.07-.67.17-.2.47-.24.67-.07.5.41.98.81,1.46,1.2.2.17.23.47.06.67-.09.11-.23.17-.37.17ZM168.59,333.91c-.1,0-.21-.03-.3-.1-.48-.39-.97-.78-1.47-1.17-.21-.16-.24-.46-.08-.67.16-.21.46-.24.67-.08.5.4.99.79,1.48,1.18.21.17.24.47.07.67-.09.12-.23.18-.37.18ZM165.15,331.18c-.1,0-.21-.03-.29-.1-.49-.38-.98-.77-1.48-1.16-.21-.16-.25-.46-.08-.67.16-.21.46-.25.67-.08.5.39,1,.78,1.49,1.16.21.16.24.46.08.67-.09.12-.23.18-.38.18ZM161.67,328.48c-.1,0-.2-.03-.29-.1-.49-.38-.99-.76-1.49-1.15-.21-.16-.25-.46-.09-.67.16-.21.46-.25.67-.09.5.39,1,.77,1.5,1.15.21.16.25.46.09.67-.09.12-.24.19-.38.19ZM158.18,325.81c-.1,0-.2-.03-.29-.1l-1.5-1.14c-.21-.16-.25-.46-.09-.67.16-.21.46-.25.67-.09l1.5,1.14c.21.16.25.46.09.67-.09.12-.24.19-.38.19ZM154.67,323.17c-.1,0-.2-.03-.29-.1l-1.51-1.13c-.21-.16-.26-.46-.1-.67.16-.21.46-.25.67-.1l1.51,1.13c.21.16.25.46.1.67-.09.13-.24.19-.38.19ZM151.14,320.54c-.1,0-.2-.03-.28-.09l-1.51-1.12c-.21-.16-.26-.46-.1-.67.16-.21.46-.26.67-.1l1.52,1.12c.21.16.26.46.1.67-.09.13-.24.19-.38.19ZM147.6,317.93c-.1,0-.2-.03-.28-.09l-1.52-1.11c-.21-.16-.26-.45-.1-.67.16-.21.45-.26.67-.1l1.52,1.12c.21.16.26.46.1.67-.09.13-.24.19-.39.19ZM144.05,315.33c-.1,0-.2-.03-.28-.09l-1.52-1.11c-.21-.16-.26-.45-.11-.67.16-.21.45-.26.67-.11l1.52,1.11c.21.16.26.45.1.67-.09.13-.24.2-.39.2ZM140.49,312.75c-.1,0-.2-.03-.28-.09l-1.53-1.1c-.21-.15-.26-.45-.11-.67.15-.21.45-.26.67-.11l1.53,1.1c.21.15.26.45.11.67-.09.13-.24.2-.39.2ZM136.93,310.18c-.1,0-.19-.03-.28-.09l-1.53-1.1c-.21-.15-.26-.45-.11-.67.15-.21.45-.26.67-.11l1.53,1.1c.21.15.26.45.11.67-.09.13-.24.2-.39.2ZM133.35,307.61c-.1,0-.19-.03-.28-.09l-1.53-1.09c-.21-.15-.26-.45-.11-.67s.45-.27.67-.11l1.53,1.1c.21.15.26.45.11.67-.09.13-.24.2-.39.2ZM129.77,305.06c-.1,0-.19-.03-.28-.09l-1.54-1.09c-.22-.15-.27-.45-.11-.67.15-.22.45-.27.67-.11l1.54,1.09c.22.15.27.45.11.67-.09.13-.24.2-.39.2ZM126.19,302.52c-.1,0-.19-.03-.28-.09l-1.54-1.09c-.22-.15-.27-.45-.11-.67.15-.22.45-.27.67-.11l1.54,1.09c.22.15.27.45.11.67-.09.13-.24.2-.39.2ZM122.6,299.98c-.1,0-.19-.03-.27-.09l-1.54-1.08c-.22-.15-.27-.45-.12-.67.15-.22.45-.27.67-.12l1.54,1.08c.22.15.27.45.12.67-.09.13-.24.2-.39.2ZM119,297.46c-.09,0-.19-.03-.27-.09l-1.55-1.08c-.22-.15-.27-.45-.12-.67.15-.22.45-.27.67-.12l1.55,1.08c.22.15.27.45.12.67-.09.13-.24.2-.39.2ZM115.39,294.93c-.09,0-.19-.03-.27-.09l-1.54-1.08c-.22-.15-.27-.45-.12-.67.15-.22.45-.27.67-.12l1.54,1.08c.22.15.27.45.12.67-.09.13-.24.2-.39.2ZM111.79,292.42c-.09,0-.19-.03-.27-.09l-1.54-1.07c-.22-.15-.27-.45-.12-.66.15-.22.45-.27.66-.12l1.54,1.07c.22.15.27.45.12.67-.09.13-.24.2-.39.2ZM108.19,289.91c-.09,0-.19-.03-.27-.09l-1.55-1.07c-.22-.15-.27-.45-.12-.66.15-.22.45-.27.66-.12l1.55,1.07c.22.15.27.45.12.66-.09.13-.24.21-.39.21ZM104.57,287.41c-.09,0-.19-.03-.27-.08l-1.55-1.07c-.22-.15-.27-.45-.12-.66.15-.22.45-.27.66-.12l1.55,1.07c.22.15.27.45.12.66-.09.13-.24.21-.39.21ZM100.95,284.91c-.09,0-.19-.03-.27-.08l-1.55-1.07c-.22-.15-.27-.45-.12-.66.15-.22.45-.27.66-.12l1.55,1.07c.22.15.27.45.12.66-.09.13-.24.21-.39.21ZM97.33,282.42c-.09,0-.19-.03-.27-.08l-1.55-1.07c-.22-.15-.27-.45-.12-.66.15-.22.45-.27.66-.12l1.55,1.07c.22.15.27.45.12.66-.09.13-.24.21-.39.21ZM93.71,279.93c-.09,0-.19-.03-.27-.08l-1.55-1.06c-.22-.15-.27-.45-.12-.66.15-.22.45-.27.66-.12l1.55,1.06c.22.15.27.45.12.66-.09.13-.24.21-.39.21ZM90.08,277.45c-.09,0-.19-.03-.27-.08l-1.55-1.06c-.22-.15-.27-.45-.13-.66.15-.22.45-.27.66-.13l1.56,1.06c.22.15.27.45.12.66-.09.14-.24.21-.39.21ZM86.44,274.97c-.09,0-.19-.03-.27-.08l-1.56-1.06c-.22-.15-.27-.45-.13-.66.15-.22.45-.27.66-.13l1.56,1.06c.22.15.27.45.13.66-.09.14-.24.21-.39.21ZM82.81,272.49c-.09,0-.19-.03-.27-.08l-1.56-1.06c-.22-.15-.28-.45-.13-.66.15-.22.45-.27.66-.13l1.56,1.06c.22.15.27.45.13.66-.09.14-.24.21-.4.21ZM79.17,270.02c-.09,0-.19-.03-.27-.08l-1.56-1.06c-.22-.15-.28-.45-.13-.66.15-.22.45-.27.66-.13l1.56,1.06c.22.15.28.45.13.66-.09.14-.24.21-.4.21ZM75.53,267.55c-.09,0-.19-.03-.27-.08l-1.56-1.06c-.22-.15-.28-.44-.13-.66.15-.22.44-.28.66-.13l1.56,1.06c.22.15.28.44.13.66-.09.14-.24.21-.4.21ZM71.88,265.09c-.09,0-.19-.03-.27-.08l-1.56-1.05c-.22-.15-.28-.44-.13-.66.15-.22.44-.28.66-.13l1.56,1.05c.22.15.28.44.13.66-.09.14-.24.21-.4.21ZM68.24,262.63c-.09,0-.18-.03-.27-.08l-1.56-1.05c-.22-.15-.28-.44-.13-.66.15-.22.44-.28.66-.13l1.56,1.05c.22.15.28.44.13.66-.09.14-.24.21-.4.21ZM64.58,260.18c-.09,0-.18-.03-.27-.08l-1.57-1.05c-.22-.15-.28-.44-.13-.66.15-.22.45-.28.66-.13l1.57,1.05c.22.15.28.44.13.66-.09.14-.24.21-.4.21ZM60.93,257.72c-.09,0-.18-.03-.27-.08l-1.57-1.05c-.22-.15-.28-.44-.13-.66.15-.22.44-.28.66-.13l1.57,1.05c.22.15.28.44.13.66-.09.14-.24.21-.4.21ZM57.26,255.27c-.09,0-.18-.03-.26-.08l-1.57-1.05c-.22-.15-.28-.44-.13-.66.15-.22.44-.28.66-.13l1.57,1.05c.22.15.28.44.13.66-.09.14-.24.21-.4.21ZM53.58,252.82c-.09,0-.18-.03-.26-.08l-1.59-1.06c-.22-.15-.28-.44-.13-.66.15-.22.44-.28.66-.13l1.59,1.06c.22.15.28.44.13.66-.09.14-.24.21-.4.21Z"/>
    <path class="st1" d="M184.89,339.84c-.13,0-.26-.05-.35-.16-.38-.42-.81-.87-1.29-1.35-.19-.19-.19-.49,0-.68.19-.19.49-.18.68,0,.48.49.93.95,1.32,1.38.18.2.16.5-.03.67-.09.08-.21.12-.32.12ZM181.78,336.72c-.12,0-.23-.04-.33-.13-.44-.41-.9-.83-1.39-1.27-.2-.18-.21-.48-.04-.67.18-.2.48-.21.67-.04.49.44.95.87,1.4,1.28.19.18.2.48.02.68-.09.1-.22.15-.35.15ZM178.5,333.79c-.11,0-.22-.04-.31-.12-.46-.4-.94-.81-1.43-1.22-.2-.17-.23-.47-.06-.67.17-.2.47-.23.67-.06.49.42.97.83,1.44,1.23.2.17.22.47.05.67-.09.11-.23.16-.36.16ZM175.14,330.94c-.11,0-.22-.04-.3-.11-.47-.39-.96-.79-1.45-1.2-.2-.17-.23-.47-.07-.67.17-.2.47-.24.67-.07.5.41.98.81,1.46,1.2.2.17.23.47.06.67-.09.11-.23.17-.37.17ZM171.73,328.16c-.1,0-.21-.03-.3-.1-.48-.39-.97-.78-1.47-1.17-.21-.16-.24-.46-.08-.67.16-.21.46-.24.67-.08.5.4.99.79,1.48,1.18.21.17.24.47.07.67-.09.12-.23.18-.37.18ZM168.28,325.43c-.1,0-.21-.03-.29-.1-.49-.38-.98-.77-1.48-1.16-.21-.16-.25-.46-.08-.67.16-.21.46-.25.67-.08.5.39,1,.78,1.49,1.16.21.16.24.46.08.67-.09.12-.23.18-.38.18ZM164.81,322.73c-.1,0-.2-.03-.29-.1-.49-.38-.99-.76-1.49-1.15-.21-.16-.25-.46-.09-.67.16-.21.46-.25.67-.09.5.39,1,.77,1.5,1.15.21.16.25.46.09.67-.09.12-.24.19-.38.19ZM161.31,320.06c-.1,0-.2-.03-.29-.1l-1.5-1.14c-.21-.16-.25-.46-.09-.67.16-.21.46-.25.67-.09l1.5,1.14c.21.16.25.46.09.67-.09.12-.24.19-.38.19ZM157.8,317.42c-.1,0-.2-.03-.29-.1l-1.51-1.13c-.21-.16-.26-.46-.1-.67.16-.21.46-.26.67-.1l1.51,1.13c.21.16.25.46.1.67-.09.13-.24.19-.38.19ZM154.27,314.79c-.1,0-.2-.03-.28-.09l-1.51-1.12c-.21-.16-.26-.46-.1-.67.16-.21.46-.26.67-.1l1.52,1.12c.21.16.26.46.1.67-.09.13-.24.19-.38.19ZM150.74,312.18c-.1,0-.2-.03-.28-.09l-1.52-1.11c-.21-.16-.26-.45-.1-.67.16-.21.45-.26.67-.1l1.52,1.12c.21.16.26.46.1.67-.09.13-.24.19-.39.19ZM147.19,309.58c-.1,0-.2-.03-.28-.09l-1.52-1.11c-.21-.16-.26-.45-.11-.67.16-.21.45-.26.67-.11l1.52,1.11c.21.16.26.45.1.67-.09.13-.24.2-.39.2ZM143.63,307c-.1,0-.2-.03-.28-.09l-1.53-1.1c-.21-.15-.26-.45-.11-.67.15-.21.45-.26.67-.11l1.53,1.1c.21.15.26.45.11.67-.09.13-.24.2-.39.2ZM140.06,304.43c-.1,0-.19-.03-.28-.09l-1.53-1.1c-.21-.15-.26-.45-.11-.67.15-.21.45-.26.67-.11l1.53,1.1c.21.15.26.45.11.67-.09.13-.24.2-.39.2ZM136.49,301.86c-.1,0-.19-.03-.28-.09l-1.53-1.09c-.21-.15-.26-.45-.11-.67.15-.22.45-.26.67-.11l1.53,1.09c.21.15.26.45.11.67-.09.13-.24.2-.39.2ZM132.91,299.31c-.1,0-.19-.03-.28-.09l-1.54-1.09c-.22-.15-.27-.45-.11-.67.15-.22.45-.27.67-.11l1.54,1.09c.22.15.27.45.11.67-.09.13-.24.2-.39.2ZM129.32,296.77c-.1,0-.19-.03-.28-.09l-1.54-1.09c-.22-.15-.27-.45-.11-.67.15-.22.45-.27.67-.11l1.54,1.09c.22.15.27.45.11.67-.09.13-.24.2-.39.2ZM125.73,294.23c-.1,0-.19-.03-.27-.09l-1.54-1.08c-.22-.15-.27-.45-.12-.67.15-.22.45-.27.67-.12l1.54,1.08c.22.15.27.45.12.67-.09.13-.24.2-.39.2ZM122.14,291.71c-.09,0-.19-.03-.27-.09l-1.55-1.08c-.22-.15-.27-.45-.12-.67.15-.22.45-.27.67-.12l1.55,1.08c.22.15.27.45.12.67-.09.13-.24.2-.39.2ZM118.53,289.18c-.09,0-.19-.03-.27-.09l-1.54-1.08c-.22-.15-.27-.45-.12-.67.15-.22.45-.27.67-.12l1.54,1.08c.22.15.27.45.12.67-.09.13-.24.2-.39.2ZM114.92,286.67c-.09,0-.19-.03-.27-.09l-1.54-1.07c-.22-.15-.27-.45-.12-.66.15-.22.45-.27.66-.12l1.54,1.07c.22.15.27.45.12.67-.09.13-.24.2-.39.2ZM111.32,284.16c-.09,0-.19-.03-.27-.09l-1.55-1.07c-.22-.15-.27-.45-.12-.66.15-.22.45-.27.66-.12l1.55,1.07c.22.15.27.45.12.66-.09.13-.24.21-.39.21ZM107.71,281.66c-.09,0-.19-.03-.27-.08l-1.55-1.07c-.22-.15-.27-.45-.12-.66.15-.22.45-.27.66-.12l1.55,1.07c.22.15.27.45.12.66-.09.13-.24.21-.39.21ZM104.09,279.16c-.09,0-.19-.03-.27-.08l-1.55-1.07c-.22-.15-.27-.45-.12-.66.15-.22.45-.27.66-.12l1.55,1.07c.22.15.27.45.12.66-.09.13-.24.21-.39.21ZM100.47,276.67c-.09,0-.19-.03-.27-.08l-1.55-1.07c-.22-.15-.27-.45-.12-.66.15-.22.45-.27.66-.12l1.55,1.07c.22.15.27.45.12.66-.09.13-.24.21-.39.21ZM96.84,274.18c-.09,0-.19-.03-.27-.08l-1.55-1.06c-.22-.15-.27-.45-.12-.66.15-.22.45-.27.66-.12l1.55,1.06c.22.15.27.45.12.66-.09.13-.24.21-.39.21ZM93.21,271.7c-.09,0-.19-.03-.27-.08l-1.56-1.06c-.22-.15-.27-.45-.13-.66.15-.22.45-.27.66-.13l1.56,1.06c.22.15.27.45.12.66-.09.14-.24.21-.39.21ZM89.58,269.22c-.09,0-.19-.03-.27-.08l-1.56-1.06c-.22-.15-.27-.45-.13-.66.15-.22.45-.27.66-.13l1.56,1.06c.22.15.27.45.13.66-.09.14-.24.21-.39.21ZM85.94,266.74c-.09,0-.19-.03-.27-.08l-1.56-1.06c-.22-.15-.28-.45-.13-.66.15-.22.45-.27.66-.13l1.56,1.06c.22.15.27.45.13.66-.09.14-.24.21-.4.21ZM82.31,264.27c-.09,0-.19-.03-.27-.08l-1.56-1.06c-.22-.15-.28-.45-.13-.66.15-.22.45-.27.66-.13l1.56,1.06c.22.15.28.45.13.66-.09.14-.24.21-.4.21ZM78.66,261.8c-.09,0-.19-.03-.27-.08l-1.56-1.06c-.22-.15-.28-.44-.13-.66.15-.22.44-.28.66-.13l1.56,1.06c.22.15.28.44.13.66-.09.14-.24.21-.4.21ZM75.02,259.34c-.09,0-.19-.03-.27-.08l-1.56-1.05c-.22-.15-.28-.44-.13-.66.15-.22.44-.28.66-.13l1.56,1.05c.22.15.28.44.13.66-.09.14-.24.21-.4.21ZM71.37,256.88c-.09,0-.18-.03-.27-.08l-1.56-1.05c-.22-.15-.28-.44-.13-.66.15-.22.44-.28.66-.13l1.56,1.05c.22.15.28.44.13.66-.09.14-.24.21-.4.21ZM67.72,254.43c-.09,0-.18-.03-.27-.08l-1.57-1.05c-.22-.15-.28-.44-.13-.66.15-.22.44-.28.66-.13l1.57,1.05c.22.15.28.44.13.66-.09.14-.24.21-.4.21ZM64.06,251.97c-.09,0-.18-.03-.27-.08l-1.57-1.05c-.22-.15-.28-.44-.13-.66.15-.22.44-.28.66-.13l1.57,1.05c.22.15.28.44.13.66-.09.14-.24.21-.4.21ZM60.4,249.52c-.09,0-.18-.03-.26-.08l-1.57-1.05c-.22-.15-.28-.44-.13-.66.15-.22.44-.28.66-.13l1.57,1.05c.22.15.28.44.13.66-.09.14-.24.21-.4.21ZM56.72,247.07c-.09,0-.18-.03-.26-.08l-1.59-1.06c-.22-.15-.28-.44-.13-.66.15-.22.44-.28.66-.13l1.59,1.06c.22.15.28.44.13.66-.09.14-.24.21-.4.21Z"/>
    <g>
      <path class="st1" d="M399.05,683.9h-1.82c-.25,0-.46-.21-.46-.46,0-.25.21-.46.46-.46h1.82c.25,0,.46.21.46.46,0,.25-.21.46-.46.46ZM403.29,683.9h-1.82c-.25,0-.46-.21-.46-.46s.21-.46.46-.46h1.82c.25,0,.46.21.46.46s-.21.46-.46.46ZM405.71,683.9c-.25,0-.46-.21-.46-.46,0-.25.21-.46.46-.46h1.82c.25,0,.46.21.46.46s-.21.46-.46.46h-1.82s0,0,0,0ZM394.82,683.9h-1.82c-.25,0-.46-.21-.46-.46s.21-.46.46-.46h1.82c.25,0,.46.21.46.46,0,.25-.21.46-.46.46ZM409.96,683.89c-.25,0-.46-.21-.46-.46s.21-.46.46-.46h1.82s0,0,0,0c.25,0,.46.21.46.46,0,.25-.21.46-.46.46h-1.82s0,0,0,0ZM390.58,683.89h-1.82c-.25,0-.46-.21-.46-.46,0-.25.21-.46.46-.46h1.82c.25,0,.46.21.46.46,0,.25-.21.46-.46.46ZM414.2,683.88c-.25,0-.46-.21-.46-.46,0-.25.21-.46.46-.46h1.82s0,0,0,0c.25,0,.46.21.46.46,0,.25-.21.46-.46.46h-1.82s0,0,0,0ZM386.34,683.88h-1.81s0-.46,0-.46v-.46s1.82,0,1.82,0c.25,0,.46.21.46.46,0,.25-.21.46-.46.46ZM418.45,683.87v-.46s0-.46,0-.46h1.82s0,0,0,0c.25,0,.46.21.46.46,0,.25-.21.46-.46.46h-1.82ZM382.11,683.87h-1.82c-.25,0-.46-.21-.46-.47,0-.25.21-.46.46-.46h1.82c.25,0,.46.21.46.47,0,.25-.21.46-.46.46ZM422.7,683.86v-.46s0-.46,0-.46h1.82s0,0,0,0c.25,0,.46.21.46.46,0,.25-.2.46-.46.46h-1.82ZM377.87,683.86h-1.81c-.25,0-.46-.21-.46-.47,0-.25.21-.46.46-.46h1.82c.25,0,.46.21.46.47,0,.25-.21.46-.46.46ZM426.94,683.84c-.25,0-.46-.21-.46-.46,0-.25.2-.46.46-.46h1.82s0,0,0,0c.25,0,.46.2.46.46,0,.25-.2.46-.46.46h-1.82s0,0,0,0ZM373.64,683.84h-1.81c-.25,0-.46-.22-.46-.47,0-.25.21-.46.46-.46h1.81c.25,0,.46.22.46.47,0,.25-.21.46-.46.46ZM369.42,683.83h-1.81c-.25,0-.46-.22-.46-.47,0-.25.21-.46.46-.46h1.81c.25,0,.46.22.46.47,0,.25-.21.46-.46.46ZM431.19,683.82c-.25,0-.46-.2-.46-.46,0-.25.2-.46.46-.46h1.82s0,0,0,0c.25,0,.46.2.46.46,0,.25-.2.46-.46.46h-1.82s0,0,0,0ZM365.19,683.81h-1.81c-.25-.01-.46-.22-.46-.47,0-.25.21-.46.46-.46h1.81c.25.01.46.22.46.47,0,.25-.21.46-.46.46ZM435.44,683.8c-.25,0-.46-.2-.46-.46,0-.25.2-.46.46-.46h1.82s0-.01,0-.01c.25,0,.46.2.46.46,0,.25-.2.46-.46.46h-1.82s0,.01,0,.01ZM360.97,683.78h-1.81c-.25-.01-.46-.22-.46-.47,0-.25.21-.46.46-.46h1.81c.25.01.46.22.46.47,0,.25-.21.46-.46.46ZM439.68,683.77c-.25,0-.46-.2-.46-.46,0-.25.2-.46.46-.46h1.82s0-.01,0-.01c.25,0,.46.2.46.46,0,.25-.2.46-.46.46h-1.82s0,.01,0,.01ZM356.75,683.76h-1.81s0-.47,0-.47v-.46s1.82.01,1.82.01c.25,0,.46.21.46.46,0,.25-.21.46-.46.46ZM443.92,683.74c-.25,0-.46-.2-.46-.46,0-.25.2-.46.46-.46h1.82s0-.01,0-.01c.25,0,.46.2.46.46,0,.25-.2.46-.46.46h-1.82s0,.01,0,.01ZM352.51,683.73h-1.82c-.25-.01-.46-.22-.46-.48,0-.25.21-.46.46-.46h1.82c.25.01.46.22.46.48,0,.25-.21.46-.46.46ZM448.15,683.71c-.25,0-.46-.2-.46-.46,0-.25.2-.46.46-.46l1.82-.02h0c.25,0,.46.2.46.46,0,.25-.2.46-.46.46l-1.82.02h0ZM348.27,683.71h-1.82c-.25-.01-.46-.22-.46-.48,0-.25.21-.46.46-.46h1.82c.25.01.46.22.46.48,0,.25-.21.46-.46.46ZM344.04,683.68h-1.82c-.25-.02-.46-.22-.46-.48,0-.25.21-.46.46-.46h1.82c.25.02.46.22.46.48,0,.25-.21.46-.46.46ZM452.39,683.67c-.25,0-.46-.2-.46-.46,0-.25.2-.46.46-.47l1.82-.02c.25,0,.46.2.47.46,0,.25-.2.46-.46.47l-1.82.02h0ZM339.8,683.64h-1.82c-.25-.02-.46-.22-.46-.48,0-.25.21-.46.46-.46h1.82c.25.02.46.22.46.48,0,.25-.21.46-.46.46ZM456.62,683.63c-.25,0-.46-.2-.46-.46,0-.25.2-.46.46-.47l1.82-.02h0c.25,0,.46.2.46.46,0,.25-.2.46-.46.47l-1.82.02h0ZM335.57,683.61h0l-1.82-.02c-.25,0-.46-.21-.46-.46,0-.25.24-.46.46-.46l1.82.02c.25,0,.46.21.46.46,0,.25-.21.46-.46.46ZM460.86,683.58c-.25,0-.46-.2-.46-.46,0-.25.2-.46.46-.47l1.82-.02c.25-.02.46.2.47.46,0,.25-.2.46-.46.47l-1.82.02h0ZM331.33,683.57h0l-1.82-.02c-.25,0-.46-.21-.46-.46,0-.25.21-.46.46-.46h0l1.82.02c.25,0,.46.21.46.46,0,.25-.21.46-.46.46ZM327.09,683.54h0l-1.79-.02-.02-.46.03-.46,1.79.02c.25,0,.46.21.46.47,0,.25-.21.46-.46.46ZM465.09,683.53c-.25,0-.46-.2-.46-.45,0-.25.2-.46.45-.47l1.82-.02h0c.25,0,.46.2.46.45,0,.25-.2.46-.45.47l-1.82.02h0ZM322.86,683.5h0l-1.82-.02c-.25,0-.46-.21-.46-.47,0-.25.21-.46.46-.46h0l1.82.02c.25,0,.46.21.46.47,0,.25-.21.46-.46.46ZM469.33,683.48c-.25,0-.46-.2-.46-.45,0-.25.2-.46.45-.47l1.82-.03c.26,0,.46.2.47.45,0,.25-.2.46-.45.47l-1.82.03h0ZM318.62,683.45h0l-1.78-.02-.03-.46.04-.46,1.78.02c.25,0,.46.21.46.47,0,.25-.21.46-.46.46ZM473.56,683.42c-.25,0-.46-.2-.46-.45,0-.25.2-.46.45-.47l1.81-.03h0c.25,0,.46.2.46.45,0,.25-.2.46-.45.47l-1.82.03h0ZM384.53,683.42v-.46s0,.46,0,.46ZM314.39,683.41h0l-1.82-.02c-.25,0-.46-.21-.46-.47,0-.25.21-.46.46-.46h0l1.81.02c.25,0,.46.21.46.47,0,.25-.21.46-.46.46ZM310.15,683.37h0l-1.82-.02c-.25,0-.46-.21-.46-.47,0-.25.21-.46.46-.46h0l1.82.02c.25,0,.46.21.46.47,0,.25-.21.46-.46.46ZM477.8,683.35c-.25,0-.46-.2-.46-.45,0-.25.2-.46.45-.47l1.81-.03c.26,0,.46.2.47.45,0,.25-.2.46-.45.47l-1.82.03h0ZM305.91,683.32h0l-1.82-.02c-.25,0-.46-.21-.46-.47,0-.25.19-.47.47-.46l1.82.02c.25,0,.46.21.46.47,0,.25-.21.46-.46.46ZM354.93,683.29v-.46s0,.46,0,.46ZM482.03,683.28c-.25,0-.46-.2-.46-.45,0-.25.2-.46.45-.47l1.81-.03c.23,0,.46.2.47.45,0,.25-.2.46-.45.47l-1.82.03h0ZM301.68,683.27h0l-1.82-.02c-.25,0-.46-.21-.46-.47,0-.25.21-.46.46-.46h0l1.82.02c.25,0,.46.21.46.47,0,.25-.21.46-.46.46ZM297.44,683.22h0l-1.76-.02-.05-.46.06-.46,1.76.02c.25,0,.46.21.45.47,0,.25-.21.45-.46.45ZM486.27,683.21c-.25,0-.46-.2-.46-.45,0-.25.2-.46.45-.47l1.81-.03c.27-.01.46.2.47.45,0,.25-.2.46-.45.47l-1.82.03h0ZM293.21,683.17h0l-1.82-.02c-.25,0-.46-.21-.45-.47,0-.25.21-.45.47-.45l1.81.02c.25,0,.46.21.46.47,0,.25-.21.46-.46.46ZM490.5,683.12c-.25,0-.46-.2-.46-.45,0-.25.2-.46.45-.47l1.81-.04c.26,0,.46.2.47.45,0,.25-.2.46-.45.47l-1.82.04h0ZM288.97,683.11h0l-1.82-.02c-.25,0-.46-.21-.45-.47,0-.25.22-.48.47-.45l1.82.02c.25,0,.46.21.45.47,0,.25-.21.45-.46.45ZM284.73,683.06h0l-1.82-.02c-.25,0-.46-.21-.45-.47,0-.25.21-.45.46-.45h0l1.82.02c.25,0,.46.21.45.47,0,.25-.21.45-.46.45ZM325.28,683.06v-.46s0,.46,0,.46ZM494.74,683.04c-.25,0-.45-.2-.46-.45,0-.25.2-.47.45-.47l1.81-.04c.27,0,.47.2.47.45,0,.25-.2.47-.45.47l-1.81.04h-.01ZM280.5,683h0l-1.82-.03c-.25,0-.46-.21-.45-.47,0-.25.21-.45.46-.45h0l1.82.03c.25,0,.46.21.45.47,0,.25-.21.45-.46.45ZM316.81,682.97v-.46s0,.46,0,.46ZM276.26,682.94h0l-1.81-.03c-.25,0-.46-.21-.45-.47,0-.25.23-.44.47-.45l1.82.03c.25,0,.46.21.45.47,0,.25-.21.45-.46.45ZM498.97,682.94c-.25,0-.45-.2-.46-.45,0-.25.2-.46.45-.47l1.81-.04c.25,0,.47.2.47.45,0,.25-.2.47-.45.47l-1.82.04h-.01ZM272.03,682.88h0l-1.82-.03c-.25,0-.46-.21-.45-.47,0-.26.19-.48.47-.45l1.81.03c.25,0,.46.21.45.47,0,.25-.21.45-.46.45ZM503.21,682.84c-.25,0-.45-.2-.46-.45,0-.25.19-.47.45-.47l1.81-.05c.25,0,.47.19.47.45,0,.25-.19.47-.45.47l-1.82.05h-.01ZM267.79,682.82h0l-1.82-.03c-.25,0-.46-.21-.45-.47,0-.25.19-.47.47-.45l1.82.03c.25,0,.46.21.45.47,0,.25-.21.45-.46.45ZM263.55,682.76h0l-1.81-.03c-.25,0-.46-.21-.45-.47,0-.26.21-.48.47-.45l1.82.03c.25,0,.46.21.45.47,0,.25-.21.45-.46.45ZM295.63,682.74v-.46s0,.46,0,.46ZM507.44,682.73c-.25,0-.45-.2-.46-.45,0-.25.19-.47.45-.47l1.81-.05c.25,0,.47.19.47.45,0,.25-.19.47-.45.47l-1.82.05h-.01ZM259.32,682.69h0l-1.82-.03c-.25,0-.46-.21-.45-.47,0-.25.24-.47.47-.45l1.82.03c.25,0,.46.21.45.47,0,.25-.21.45-.46.45ZM255.08,682.63h0l-1.82-.03c-.25,0-.46-.21-.45-.47,0-.25.21-.45.46-.45h0l1.82.03c.25,0,.46.21.45.47,0,.25-.21.45-.46.45ZM511.68,682.61c-.25,0-.45-.2-.46-.45,0-.25.19-.47.45-.47l1.81-.05c.25.02.47.19.47.45,0,.25-.19.47-.45.47l-1.82.05h-.01ZM250.85,682.56h0l-1.81-.03c-.25,0-.46-.21-.45-.47,0-.25.21-.45.46-.45h0l1.82.03c.25,0,.46.21.45.47,0,.25-.21.45-.46.45ZM246.61,682.49h0l-1.82-.03c-.25,0-.46-.21-.45-.47,0-.25.22-.44.47-.45l1.81.03c.25,0,.46.21.45.47,0,.25-.21.45-.46.45ZM515.91,682.49c-.25,0-.45-.2-.46-.45,0-.25.19-.47.45-.48l1.81-.06c.26,0,.47.19.48.45,0,.25-.19.47-.45.48l-1.81.06h-.01ZM242.37,682.42h0l-1.82-.03c-.25,0-.46-.21-.45-.47,0-.25.21-.45.46-.45h0l1.82.03c.25,0,.46.21.45.47,0,.25-.21.45-.46.45ZM520.14,682.35c-.25,0-.45-.2-.46-.45,0-.25.19-.47.45-.48l1.81-.06c.25,0,.47.19.48.45,0,.25-.19.47-.45.48l-1.81.06h-.02ZM238.14,682.35h0l-1.82-.03c-.25,0-.46-.21-.45-.47,0-.25.19-.45.47-.45l1.82.03c.25,0,.46.21.45.47,0,.25-.21.45-.46.45ZM233.9,682.27h0l-1.82-.03c-.25,0-.46-.21-.45-.47,0-.25.22-.45.47-.45l1.81.03c.25,0,.46.21.45.47,0,.25-.21.45-.46.45ZM524.38,682.21c-.25,0-.45-.2-.46-.44,0-.25.19-.47.44-.48l1.81-.06c.24,0,.47.19.48.44,0,.25-.19.47-.44.48l-1.81.06h-.02ZM229.67,682.2h0l-1.82-.03c-.25,0-.46-.21-.45-.47,0-.25.21-.45.46-.45h0l1.82.03c.25,0,.46.21.45.47,0,.25-.21.45-.46.45ZM225.43,682.12h0l-1.82-.03c-.25,0-.46-.21-.45-.47,0-.25.21-.45.47-.45l1.81.03c.25,0,.46.21.45.47,0,.25-.21.45-.46.45ZM528.61,682.06c-.25,0-.45-.19-.46-.44,0-.25.19-.47.44-.48l1.81-.07c.26,0,.47.19.48.44,0,.25-.19.47-.44.48l-1.81.07s-.01,0-.02,0ZM221.19,682.04h0l-1.82-.03c-.25,0-.46-.22-.45-.47,0-.25.2-.47.47-.45l1.82.03c.25,0,.46.21.45.47,0,.25-.21.45-.46.45ZM216.96,681.96h0l-1.82-.03c-.25,0-.46-.22-.45-.47s.2-.45.47-.45l1.82.03c.25,0,.46.22.45.47,0,.25-.21.45-.46.45ZM532.84,681.89c-.25,0-.45-.19-.46-.44-.01-.25.19-.47.44-.48l1.81-.07c.25-.01.47.19.48.44.01.25-.19.47-.44.48l-1.81.07s-.01,0-.02,0ZM212.72,681.88h0l-1.82-.04c-.25,0-.46-.22-.45-.47,0-.25.22-.43.47-.45l1.82.04c.25,0,.46.22.45.47,0,.25-.21.45-.46.45ZM208.48,681.8h0l-1.82-.04c-.25,0-.46-.22-.45-.47,0-.25.22-.46.47-.45l1.82.04c.25,0,.46.22.45.47,0,.25-.21.45-.46.45ZM537.07,681.71c-.25,0-.45-.19-.46-.44-.01-.25.19-.47.44-.48l1.81-.08c.25-.03.47.19.48.44.01.25-.19.47-.44.48l-1.81.08s-.01,0-.02,0ZM204.24,681.71h0l-1.82-.04c-.25,0-.46-.22-.45-.47,0-.25.22-.47.47-.45l1.82.04c.25,0,.46.22.45.47,0,.25-.21.45-.46.45ZM200.01,681.63h0l-1.82-.04c-.25,0-.46-.22-.45-.47,0-.25.24-.44.47-.45l1.82.04c.25,0,.46.22.45.47,0,.25-.21.45-.46.45ZM195.77,681.54h0l-1.82-.04c-.25,0-.46-.22-.45-.47,0-.25.24-.47.47-.45l1.82.04c.25,0,.46.22.45.47,0,.25-.21.45-.46.45ZM541.31,681.52c-.24,0-.45-.19-.46-.44-.01-.25.18-.47.44-.48l1.81-.09c.26-.03.47.18.48.44.01.25-.18.47-.44.48l-1.81.09s-.01,0-.02,0ZM191.53,681.45h-.01l-1.81-.04.02-.92v.46s0-.46,0-.46l1.81.04c.25,0,.46.22.45.47,0,.25-.21.45-.46.45ZM187.29,681.35h-.01l-1.82-.04c-.25,0-.46-.22-.45-.47,0-.25.23-.46.47-.45l1.82.04c.25,0,.46.22.45.47,0,.25-.21.45-.46.45ZM545.54,681.32c-.24,0-.45-.19-.46-.44-.01-.25.18-.47.44-.48l1.81-.09c.25-.02.47.18.48.44s-.18.47-.44.48l-1.81.09s-.02,0-.02,0ZM183.04,681.26h-.01l-1.83-.04c-.25,0-.46-.22-.45-.47s.22-.43.47-.45l1.83.04c.25,0,.46.22.45.47,0,.25-.21.45-.46.45Z"/>
      <path class="st1" d="M399.05,677.85h-1.82c-.25,0-.46-.21-.46-.46,0-.25.21-.46.46-.46h1.82c.25,0,.46.21.46.46,0,.25-.21.46-.46.46ZM403.29,677.85h-1.82c-.25,0-.46-.21-.46-.46s.21-.46.46-.46h1.82c.25,0,.46.21.46.46s-.21.46-.46.46ZM405.71,677.84c-.25,0-.46-.21-.46-.46,0-.25.21-.46.46-.46h1.82c.25,0,.46.21.46.46s-.21.46-.46.46h-1.82s0,0,0,0ZM394.82,677.84h-1.82c-.25,0-.46-.21-.46-.46,0-.25.21-.46.46-.46h1.82c.25,0,.46.21.46.46,0,.25-.21.46-.46.46ZM409.96,677.84c-.25,0-.46-.21-.46-.46,0-.25.21-.46.46-.46h1.82s0,0,0,0c.25,0,.46.21.46.46,0,.25-.21.46-.46.46h-1.82s0,0,0,0ZM390.58,677.84h-1.82c-.25,0-.46-.21-.46-.46,0-.25.21-.46.46-.46h1.82c.25,0,.46.21.46.46,0,.25-.21.46-.46.46ZM414.2,677.83c-.25,0-.46-.21-.46-.46,0-.25.21-.46.46-.46h1.82s0,0,0,0c.25,0,.46.21.46.46,0,.25-.21.46-.46.46h-1.82s0,0,0,0ZM386.34,677.83h-1.81s0-.46,0-.46v-.46s1.82,0,1.82,0c.25,0,.46.21.46.46,0,.25-.21.46-.46.46ZM418.45,677.82v-.46s0-.46,0-.46h1.82c.27-.02.46.2.46.45,0,.25-.21.46-.46.46h-1.82ZM382.11,677.82h-1.82c-.25,0-.46-.21-.46-.47,0-.25.21-.46.46-.46h1.82c.25,0,.46.21.46.47,0,.25-.21.46-.46.46ZM422.7,677.81v-.46s0-.46,0-.46h1.82s0,0,0,0c.25,0,.46.21.46.46,0,.25-.2.46-.46.46h-1.82ZM377.87,677.81h-1.81c-.25,0-.46-.21-.46-.47,0-.25.22-.44.46-.46h1.81c.25,0,.46.21.46.47,0,.25-.21.46-.46.46ZM426.94,677.79c-.25,0-.46-.21-.46-.46,0-.25.2-.46.46-.46h1.82s0,0,0,0c.25,0,.46.2.46.46,0,.25-.2.46-.46.46h-1.82s0,0,0,0ZM373.64,677.79h-1.81c-.25,0-.46-.22-.46-.47,0-.25.21-.46.46-.46h1.81c.25,0,.46.22.46.47,0,.25-.21.46-.46.46ZM369.42,677.77h-1.81c-.25,0-.46-.22-.46-.47,0-.25.21-.46.46-.46h1.81c.25,0,.46.22.46.47,0,.25-.21.46-.46.46ZM431.19,677.77c-.25,0-.46-.2-.46-.46,0-.25.2-.46.46-.46h1.82c.24-.02.46.19.46.45,0,.25-.2.46-.46.46h-1.82s0,0,0,0ZM365.19,677.75h-1.81c-.25-.01-.46-.22-.46-.47,0-.25.21-.46.46-.46h1.81c.25.01.46.22.46.47,0,.25-.21.46-.46.46ZM435.44,677.75c-.25,0-.46-.2-.46-.46,0-.25.2-.46.46-.46h1.82s0-.01,0-.01c.25,0,.46.2.46.46,0,.25-.2.46-.46.46h-1.82s0,.01,0,.01ZM360.97,677.73h-1.81c-.25-.01-.46-.22-.46-.47,0-.25.21-.46.46-.46h1.81c.25.01.46.22.46.47,0,.25-.21.46-.46.46ZM439.68,677.72c-.25,0-.46-.2-.46-.46,0-.25.2-.46.46-.46h1.82s0-.01,0-.01c.25,0,.46.2.46.46,0,.25-.2.46-.46.46h-1.82s0,.01,0,.01ZM356.75,677.71h-1.81s0-.47,0-.47v-.46s1.82.01,1.82.01c.25,0,.46.21.46.46,0,.25-.21.46-.46.46ZM443.92,677.69c-.25,0-.46-.2-.46-.46,0-.25.2-.46.46-.46h1.82s0-.01,0-.01c.25,0,.46.2.46.46,0,.25-.2.46-.46.46h-1.82s0,.01,0,.01ZM352.51,677.68h-1.82c-.25-.01-.46-.22-.46-.48,0-.25.21-.46.46-.46h1.82c.25.01.46.22.46.48,0,.25-.21.46-.46.46ZM448.15,677.66c-.25,0-.46-.2-.46-.46,0-.25.2-.46.46-.46l1.82-.02h0c.25,0,.46.2.46.46,0,.25-.2.46-.46.46l-1.82.02h0ZM348.27,677.65h-1.82c-.25-.01-.46-.22-.46-.48,0-.25.21-.46.46-.46h1.82c.25.01.46.22.46.48,0,.25-.21.46-.46.46ZM344.04,677.62h-1.82c-.25-.02-.46-.22-.46-.48,0-.25.23-.47.46-.46h1.82c.25.02.46.22.46.48,0,.25-.21.46-.46.46ZM452.39,677.62c-.25,0-.46-.2-.46-.46,0-.25.2-.46.46-.47l1.82-.02h0c.25,0,.46.2.46.46,0,.25-.2.46-.46.47l-1.82.02h0ZM339.8,677.59h-1.82c-.25-.02-.46-.22-.46-.48,0-.25.22-.44.46-.46h1.82c.25.02.46.22.46.48,0,.25-.21.46-.46.46ZM456.62,677.58c-.25,0-.46-.2-.46-.46,0-.25.2-.46.46-.47l1.82-.02c.27,0,.46.2.47.46s-.2.46-.46.47l-1.82.02h0ZM335.57,677.56h0l-1.82-.02c-.25,0-.46-.21-.46-.46,0-.25.21-.46.46-.46h0l1.82.02c.25,0,.46.21.46.46,0,.25-.21.46-.46.46ZM460.86,677.53c-.25,0-.46-.2-.46-.46,0-.25.2-.46.46-.47l1.82-.02c.25.02.46.2.47.46s-.2.46-.46.47l-1.82.02h0ZM331.33,677.52h0l-1.82-.02c-.25,0-.46-.21-.46-.46,0-.25.21-.46.46-.46h0l1.82.02c.25,0,.46.21.46.46,0,.25-.21.46-.46.46ZM327.09,677.48h0l-1.79-.02-.02-.46.03-.46,1.79.02c.25,0,.46.21.46.47,0,.25-.21.46-.46.46ZM465.09,677.48c-.25,0-.46-.2-.46-.45,0-.25.2-.46.45-.47l1.82-.02h0c.25,0,.46.2.46.45,0,.25-.2.46-.45.47l-1.82.02h0ZM322.86,677.44h0l-1.82-.02c-.25,0-.46-.21-.46-.47,0-.25.21-.46.46-.46h0l1.82.02c.25,0,.46.21.46.47,0,.25-.21.46-.46.46ZM469.33,677.43c-.25,0-.46-.2-.46-.45,0-.25.2-.46.45-.47l1.82-.03h0c.25,0,.46.2.46.45,0,.25-.2.46-.45.47l-1.82.03h0ZM318.62,677.4h0l-1.78-.02-.03-.46.04-.46,1.78.02c.25,0,.46.21.46.47,0,.25-.21.46-.46.46ZM473.56,677.36c-.25,0-.46-.2-.46-.45,0-.25.2-.46.45-.47l1.81-.03h0c.25,0,.46.2.46.45,0,.25-.2.46-.45.47l-1.82.03h0ZM384.53,677.36v-.46s0,.46,0,.46ZM314.39,677.36h0l-1.82-.02c-.25,0-.46-.21-.46-.47,0-.25.21-.46.46-.46h0l1.81.02c.25,0,.46.21.46.47,0,.25-.21.46-.46.46ZM310.15,677.31h0l-1.82-.02c-.25,0-.46-.21-.46-.47,0-.25.21-.46.46-.46h0l1.82.02c.25,0,.46.21.46.47,0,.25-.21.46-.46.46ZM477.8,677.3c-.25,0-.46-.2-.46-.45,0-.25.2-.46.45-.47l1.81-.03c.26-.03.46.2.47.45s-.2.46-.45.47l-1.82.03h0ZM305.91,677.27h0l-1.82-.02c-.25,0-.46-.21-.46-.47,0-.25.21-.46.46-.46h0l1.82.02c.25,0,.46.21.46.47,0,.25-.21.46-.46.46ZM354.93,677.24v-.46s0,.46,0,.46ZM482.03,677.23c-.25,0-.46-.2-.46-.45,0-.25.2-.46.45-.47l1.81-.03c.23-.02.46.2.47.45,0,.25-.2.46-.45.47l-1.82.03h0ZM301.68,677.22h0l-1.82-.02c-.25,0-.46-.21-.46-.47,0-.25.2-.46.47-.46l1.82.02c.25,0,.46.21.46.47,0,.25-.21.46-.46.46ZM297.44,677.17h0l-1.76-.02-.05-.46.06-.46,1.76.02c.25,0,.46.21.45.47,0,.25-.21.45-.46.45ZM486.27,677.15c-.25,0-.46-.2-.46-.45,0-.25.2-.46.45-.47l1.81-.03c.27,0,.46.2.47.45,0,.25-.2.46-.45.47l-1.82.03h0ZM293.21,677.12h0l-1.82-.02c-.25,0-.46-.21-.45-.47,0-.25.21-.48.47-.45l1.81.02c.25,0,.46.21.46.47,0,.25-.21.46-.46.46ZM490.5,677.07c-.25,0-.46-.2-.46-.45,0-.25.2-.46.45-.47l1.81-.04c.26-.02.46.2.47.45,0,.25-.2.46-.45.47l-1.82.04h0ZM288.97,677.06h0l-1.82-.02c-.25,0-.46-.21-.45-.47,0-.25.22-.43.47-.45l1.82.02c.25,0,.46.21.45.47,0,.25-.21.45-.46.45ZM284.73,677.01h0l-1.82-.02c-.25,0-.46-.21-.45-.47,0-.25.22-.45.47-.45l1.82.02c.25,0,.46.21.45.47,0,.25-.21.45-.46.45ZM325.28,677.01v-.46s0,.46,0,.46ZM494.74,676.98c-.25,0-.45-.2-.46-.45,0-.25.2-.47.45-.47l1.81-.04c.27.01.47.2.47.45,0,.25-.2.47-.45.47l-1.81.04h-.01ZM280.5,676.95h0l-1.82-.03c-.25,0-.46-.21-.45-.47,0-.25.23-.46.47-.45l1.82.03c.25,0,.46.21.45.47,0,.25-.21.45-.46.45ZM316.81,676.92v-.46s0,.46,0,.46ZM276.26,676.89h0l-1.81-.03c-.25,0-.46-.21-.45-.47,0-.25.23-.47.47-.45l1.82.03c.25,0,.46.21.45.47,0,.25-.21.45-.46.45ZM498.97,676.89c-.25,0-.45-.2-.46-.45,0-.25.2-.46.45-.47l1.81-.04c.25-.01.47.19.47.45,0,.25-.2.47-.45.47l-1.82.04h-.01ZM272.03,676.83h0l-1.82-.03c-.25,0-.46-.21-.45-.47,0-.25.19-.45.47-.45l1.81.03c.25,0,.46.21.45.47,0,.25-.21.45-.46.45ZM503.21,676.79c-.25,0-.45-.2-.46-.45,0-.25.19-.47.45-.47l1.81-.05c.25-.01.47.19.47.45,0,.25-.19.47-.45.47l-1.82.05h-.01ZM267.79,676.77h0l-1.82-.03c-.25,0-.46-.21-.45-.47,0-.25.21-.45.46-.45h0l1.82.03c.25,0,.46.21.45.47,0,.25-.21.45-.46.45ZM263.55,676.71h0l-1.81-.03c-.25,0-.46-.21-.45-.47,0-.25.21-.45.47-.45l1.82.03c.25,0,.46.21.45.47,0,.25-.21.45-.46.45ZM295.63,676.68v-.46s0,.46,0,.46ZM507.44,676.68c-.25,0-.45-.2-.46-.45,0-.25.19-.47.45-.47l1.81-.05c.25,0,.47.19.47.45,0,.25-.19.47-.45.47l-1.82.05h-.01ZM259.32,676.64h0l-1.82-.03c-.25,0-.46-.21-.45-.47,0-.25.24-.45.47-.45l1.82.03c.25,0,.46.21.45.47,0,.25-.21.45-.46.45ZM255.08,676.58h0l-1.82-.03c-.25,0-.46-.21-.45-.47,0-.25.21-.45.46-.45h0l1.82.03c.25,0,.46.21.45.47,0,.25-.21.45-.46.45ZM511.68,676.56c-.25,0-.45-.2-.46-.45,0-.25.19-.47.45-.47l1.81-.05c.25,0,.47.19.47.45,0,.25-.19.47-.45.47l-1.82.05h-.01ZM250.85,676.51h0l-1.81-.03c-.25,0-.46-.21-.45-.47,0-.25.21-.45.46-.45h0l1.82.03c.25,0,.46.21.45.47,0,.25-.21.45-.46.45ZM246.61,676.44h0l-1.82-.03c-.25,0-.46-.21-.45-.47s.22-.47.47-.45l1.81.03c.25,0,.46.21.45.47,0,.25-.21.45-.46.45ZM515.91,676.44c-.25,0-.45-.2-.46-.45,0-.25.19-.47.45-.48l1.81-.06c.26.02.47.19.48.45,0,.25-.19.47-.45.48l-1.81.06h-.01ZM242.37,676.37h0l-1.82-.03c-.25,0-.46-.21-.45-.47,0-.25.21-.45.46-.45h0l1.82.03c.25,0,.46.21.45.47,0,.25-.21.45-.46.45ZM520.14,676.3c-.25,0-.45-.2-.46-.45,0-.25.19-.47.45-.48l1.81-.06c.25,0,.47.19.48.45,0,.25-.19.47-.45.48l-1.81.06h-.02ZM238.14,676.3h0l-1.82-.03c-.25,0-.46-.21-.45-.47,0-.25.19-.48.47-.45l1.82.03c.25,0,.46.21.45.47,0,.25-.21.45-.46.45ZM233.9,676.22h0l-1.82-.03c-.25,0-.46-.21-.45-.47,0-.25.22-.43.47-.45l1.81.03c.25,0,.46.21.45.47,0,.25-.21.45-.46.45ZM524.38,676.16c-.25,0-.45-.2-.46-.44,0-.25.19-.47.44-.48l1.81-.06c.24-.01.47.19.48.44,0,.25-.19.47-.44.48l-1.81.06h-.02ZM229.67,676.15h0l-1.82-.03c-.25,0-.46-.21-.45-.47,0-.25.22-.45.47-.45l1.82.03c.25,0,.46.21.45.47,0,.25-.21.45-.46.45ZM225.43,676.07h0l-1.82-.03c-.25,0-.46-.21-.45-.47,0-.25.21-.48.47-.45l1.81.03c.25,0,.46.21.45.47,0,.25-.21.45-.46.45ZM528.61,676c-.25,0-.45-.19-.46-.44,0-.25.19-.47.44-.48l1.81-.07c.26-.02.47.19.48.44,0,.25-.19.47-.44.48l-1.81.07s-.01,0-.02,0ZM221.19,675.99h0l-1.82-.03c-.25,0-.46-.22-.45-.47,0-.25.2-.43.47-.45l1.82.03c.25,0,.46.21.45.47,0,.25-.21.45-.46.45ZM216.96,675.91h0l-1.82-.03c-.25,0-.46-.22-.45-.47,0-.25.2-.47.47-.45l1.82.03c.25,0,.46.22.45.47,0,.25-.21.45-.46.45ZM532.84,675.84c-.25,0-.45-.19-.46-.44-.01-.25.19-.47.44-.48l1.81-.07c.25-.01.47.19.48.44.01.25-.19.47-.44.48l-1.81.07s-.01,0-.02,0ZM212.72,675.83h0l-1.82-.04c-.25,0-.46-.22-.45-.47,0-.25.22-.46.47-.45l1.82.04c.25,0,.46.22.45.47,0,.25-.21.45-.46.45ZM208.48,675.75h0l-1.82-.04c-.25,0-.46-.22-.45-.47,0-.25.22-.44.47-.45l1.82.04c.25,0,.46.22.45.47,0,.25-.21.45-.46.45ZM537.07,675.66c-.25,0-.45-.19-.46-.44-.01-.25.19-.47.44-.48l1.81-.08c.25-.02.47.19.48.44.01.25-.19.47-.44.48l-1.81.08s-.01,0-.02,0ZM204.24,675.66h0l-1.82-.04c-.25,0-.46-.22-.45-.47,0-.25.22-.45.47-.45l1.82.04c.25,0,.46.22.45.47,0,.25-.21.45-.46.45ZM200.01,675.57h0l-1.82-.04c-.25,0-.46-.22-.45-.47,0-.25.21-.45.46-.45h0l1.82.04c.25,0,.46.22.45.47,0,.25-.21.45-.46.45ZM195.77,675.49h0l-1.82-.04c-.25,0-.46-.22-.45-.47,0-.25.24-.46.47-.45l1.82.04c.25,0,.46.22.45.47,0,.25-.21.45-.46.45ZM541.31,675.47c-.24,0-.45-.19-.46-.44-.01-.25.18-.47.44-.48l1.81-.09c.26-.02.47.18.48.44.01.25-.18.47-.44.48l-1.81.09s-.01,0-.02,0ZM191.53,675.39h-.01l-1.81-.04.02-.92v.46s0-.46,0-.46l1.81.04c.25,0,.46.22.45.47,0,.25-.21.45-.46.45ZM187.29,675.3h-.01l-1.82-.04c-.25,0-.46-.22-.45-.47,0-.25.23-.45.47-.45l1.82.04c.25,0,.46.22.45.47,0,.25-.21.45-.46.45ZM545.54,675.27c-.24,0-.45-.19-.46-.44-.01-.25.18-.47.44-.48l1.81-.09c.25-.03.47.18.48.44s-.18.47-.44.48l-1.81.09s-.02,0-.02,0ZM183.04,675.2h-.01l-1.83-.04c-.25,0-.46-.22-.45-.47,0-.25.22-.45.47-.45l1.83.04c.25,0,.46.22.45.47,0,.25-.21.45-.46.45Z"/>
    </g>
    <path class="st1" d="M355.29,121.84l-4.45-1.01c-2.76-.63-67.9-16.25-92.35-94.55l2.34-.73c24.03,76.97,87.84,92.28,90.55,92.89l3.87.88,3.84-1c1.91-.5,19.26-5.29,39.15-19.26,26.32-18.48,44.71-44.59,53.17-75.51l2.36.65c-8.61,31.48-27.33,58.06-54.12,76.87-20.25,14.21-37.99,19.11-39.94,19.62l-4.42,1.16Z"/>
    <path class="st1" d="M355,103.87l-.29-.07c-.6-.14-14.98-3.49-32.16-15.63-15.83-11.18-37.01-32.24-47.99-69.06l2.35-.7c10.78,36.15,31.54,56.8,47.05,67.76,15.47,10.92,28.87,14.63,30.99,15.17,2.23-.64,16.96-5.12,33.33-16.63,16.3-11.46,37.63-32.44,46.69-67.32l2.37.62c-9.26,35.65-31.07,57.07-47.73,68.77-18.05,12.67-33.68,16.85-34.33,17.03l-.29.08Z"/>
    <path class="st1" d="M368.1,67.56h-24.21c-1.19,0-2.15-.97-2.15-2.15v-10.55h1.29v10.55c0,.47.39.86.86.86h24.21c.47,0,.86-.39.86-.86v-11.07h1.29v11.07c0,1.19-.97,2.15-2.15,2.15Z"/>
  </g>
</svg>