<?xml version="1.0" encoding="UTF-8"?>
<svg id="Layer_1" xmlns="http://www.w3.org/2000/svg" version="1.1" viewBox="0 0 720 720">
  <!-- Generator: Adobe Illustrator 30.3.0, SVG Export Plug-In . SVG Version: 2.1.3 Build 182)  -->
  <defs>
    <style>
      .st0 {
        fill: #fff;
      }

      .st1 {
        fill: #010101;
      }
    </style>
  </defs>
  <path class="st0" d="M466.87,643.87c1.01,14.99,1.73,23.48,1.73,23.48-8.22,3.14-17.07,5.68-26.35,7.69-23.24,5.06-49.11,6.85-74.16,6.85-2.7,0-5.39-.02-8.07-.06-58.59-.88-110.55-10.89-110.55-10.89,0,0,.01-6.41.06-17.65,0-1.31,0-2.68.01-4.13.31-82.4,1.85-371.97,7.98-401.89,5.31-25.96,25.95-90.98,36.19-122.67.06-.16.11-.33.16-.49,1.64-5.07,2.9-9.29,3.99-12.26.1-.27,5.62-3.79,5.62-3.79,0,0,23.44-16.55,52.12-35.78,28.47-19.09,51.78-23.49,51.78-23.49,0,0,6.57,7.35,13.05,16.14,9.14,12.38,22.43,32.22,33.41,55.97,2.03,4.38,3.98,8.9,5.8,13.51,18.78,47.47,8.95,79.72,2.68,232.89-4.75,116.28,1.32,228.95,4.52,276.47h.28c-.09.04-.18.07-.27.11Z"/>
  <g>
    <path class="st1" d="M463.48,366.92c1.68-40.97,3.62-73.44,5.18-99.53,4.29-71.73,5.9-98.58-7.95-133.52-15.11-38.12-38.54-69.06-47.06-79.62l-1.98,1.17c8.24,10.18,31.8,41.11,46.93,79.29,13.66,34.48,12.06,61.18,7.79,132.55-1.56,26.1-3.51,58.58-5.18,99.58-5.95,145.27,5.19,286.64,6.19,298.96-40.87,15.33-97.61,15.45-138.13,12.82-40.26-2.6-72.86-8.36-78.69-9.43.06-21.42,1.15-388.41,8.03-421.95,6.15-29.96,33.15-113.25,40.29-135.03l-2.48.26c-7.59,23.21-33.95,104.66-40.03,134.3-7.1,34.61-8.04,407.5-8.07,423.36,0,.54.38,1.01.92,1.12.35.07,35.47,6.75,79.87,9.63,11.76.77,24.87,1.3,38.57,1.3,34.12,0,71.88-3.3,101.35-14.56.47-.19.77-.66.72-1.16-.13-1.47-12.44-148.39-6.25-299.54Z"/>
    <path class="st1" d="M367.23,125.63s-.07,0-.1,0c-.63-.05-1.09-.6-1.04-1.23.57-6.61,1.29-9.02,3.02-14.86l11.16-38.37c.18-.6.81-.95,1.41-.77.6.18.95.81.77,1.41l-11.16,38.37c-1.74,5.84-2.39,8.03-2.93,14.41-.05.59-.55,1.04-1.13,1.04Z"/>
    <path class="st1" d="M360.85,127.08s-.04,0-.06,0c-.31-.03-.54-.31-.51-.62.66-6.8,1.43-10.65,3.42-17.18l9.13-33.8c.09-.3.4-.48.7-.39.3.09.48.4.39.7l-9.13,33.81c-1.97,6.46-2.73,10.26-3.38,16.97-.03.29-.28.51-.57.51Z"/>
    <path class="st1" d="M368.12,663.71h-1.68c-.24,0-.43-.19-.43-.43,0-.23.19-.43.43-.43h1.68c.24,0,.43.19.43.43s-.19.43-.43.43ZM370.36,663.7c-.23,0-.42-.19-.43-.42,0-.24.19-.43.42-.43h1.68s0-.01,0-.01c.23,0,.42.19.43.42,0,.24-.19.43-.42.43h-1.68s0,.01,0,.01ZM364.19,663.7h-1.68c-.24-.02-.42-.21-.42-.45,0-.23.19-.42.43-.42h1.68c.24.02.43.21.42.44,0,.23-.19.42-.43.42ZM374.28,663.66c-.23,0-.42-.19-.43-.42,0-.24.18-.43.42-.43.56,0,1.12-.02,1.68-.03h0c.23,0,.42.19.43.42,0,.24-.18.43-.42.43-.56.01-1.12.02-1.68.03h0ZM360.28,663.65h0l-1.68-.03c-.24,0-.42-.2-.42-.43,0-.23.19-.42.43-.42h0l1.68.03c.24,0,.42.2.42.43,0,.23-.19.42-.43.42ZM378.21,663.59c-.23,0-.42-.18-.43-.42,0-.24.18-.43.42-.44l1.68-.04h.01c.23,0,.42.18.43.42,0,.24-.18.43-.42.44l-1.68.04h0ZM356.36,663.58h0l-1.68-.04c-.24,0-.42-.2-.42-.44,0-.24.19-.39.44-.42l1.68.04c.24,0,.42.2.42.44,0,.23-.19.42-.43.42ZM382.13,663.49c-.23,0-.42-.18-.43-.41,0-.24.18-.43.41-.44.56-.02,1.12-.04,1.68-.06.23,0,.43.18.44.41,0,.24-.18.43-.41.44-.56.02-1.12.04-1.68.06h-.01ZM352.44,663.48h-.01l-1.68-.05c-.24,0-.42-.2-.41-.44,0-.24.22-.42.44-.41l1.68.05c.24,0,.42.2.41.44,0,.23-.2.41-.43.41ZM348.53,663.35h-.01l-1.68-.06c-.24,0-.42-.21-.41-.44,0-.23.2-.41.43-.41,0,0,.01,0,.02,0l1.67.06c.24,0,.42.21.41.44,0,.23-.2.41-.43.41ZM386.06,663.34c-.23,0-.42-.18-.43-.41,0-.24.17-.43.41-.44l1.68-.07c.22-.02.43.17.44.41.01.24-.17.43-.41.44l-1.68.07s-.01,0-.02,0ZM344.62,663.2s-.01,0-.02,0l-1.68-.07c-.24-.01-.42-.21-.41-.45.01-.24.21-.42.45-.41l1.67.07c.24,0,.42.21.41.44,0,.23-.2.41-.43.41ZM389.98,663.16c-.23,0-.41-.18-.43-.4-.01-.23.17-.44.4-.45l1.68-.09c.23-.02.44.17.45.4.01.24-.17.44-.4.45l-1.68.09s-.01,0-.02,0ZM340.72,663.02s-.01,0-.02,0l-1.67-.08c-.23-.01-.42-.21-.4-.45.01-.24.22-.42.45-.4l1.67.08c.24.01.42.21.41.45-.01.23-.2.41-.43.41ZM393.91,662.94c-.22,0-.41-.17-.43-.4-.01-.23.16-.44.4-.45.56-.03,1.12-.07,1.68-.11.24-.02.44.16.45.4.02.23-.16.44-.4.45-.56.04-1.12.07-1.68.11,0,0-.02,0-.03,0ZM336.82,662.82s-.02,0-.02,0l-1.68-.09c-.24-.01-.41-.22-.4-.45.01-.24.22-.42.45-.4l1.68.09c.23.01.41.21.4.45-.01.23-.2.4-.43.4ZM397.83,662.68c-.22,0-.41-.17-.42-.4-.02-.23.16-.44.39-.46.56-.04,1.12-.08,1.68-.13.23,0,.44.16.46.39.02.23-.16.44-.39.46-.56.04-1.12.08-1.68.13-.01,0-.02,0-.03,0ZM332.9,662.59s-.02,0-.03,0l-1.68-.11c-.23-.02-.41-.22-.4-.45.01-.23.21-.43.45-.4l1.68.1c.24.01.41.22.4.45-.01.23-.2.4-.43.4ZM401.75,662.37c-.22,0-.41-.17-.42-.39-.02-.23.15-.44.39-.46.56-.05,1.12-.1,1.68-.14.22-.03.44.15.46.39.02.23-.15.44-.39.46-.56.05-1.12.1-1.68.14-.01,0-.02,0-.04,0ZM328.99,662.34s-.02,0-.03,0l-1.68-.12c-.24-.02-.41-.22-.4-.45.02-.24.23-.41.45-.4l1.68.12c.24.02.41.22.4.45-.02.23-.2.4-.42.4ZM325.08,662.06s-.02,0-.03,0l-1.68-.12c-.23-.02-.41-.22-.39-.46.02-.23.23-.4.46-.39l1.67.12c.23.02.41.22.39.46-.02.22-.2.4-.42.4ZM405.66,662.02c-.22,0-.4-.17-.42-.39-.02-.23.15-.44.38-.47.56-.05,1.11-.11,1.67-.16.24-.02.44.15.47.38.02.23-.15.44-.38.47-.56.06-1.12.11-1.67.17-.01,0-.03,0-.04,0ZM321.17,661.76s-.02,0-.03,0l-1.68-.13c-.23-.02-.41-.22-.39-.46.02-.23.23-.41.46-.39l1.67.13c.23.02.41.22.39.46-.02.22-.2.39-.42.39ZM409.56,661.63c-.21,0-.4-.16-.42-.38-.03-.23.14-.44.38-.47.56-.06,1.11-.12,1.67-.19.24-.02.45.14.47.37.03.23-.14.45-.37.47-.56.06-1.11.13-1.67.19-.02,0-.03,0-.05,0ZM317.26,661.44s-.02,0-.04,0l-1.68-.14c-.23-.02-.41-.23-.39-.46.02-.23.23-.41.46-.39l1.67.14c.23.02.41.23.39.46-.02.22-.2.39-.42.39ZM413.46,661.18c-.21,0-.4-.16-.42-.37-.03-.23.14-.45.37-.47.56-.07,1.11-.14,1.67-.21.24-.03.45.14.48.37.03.23-.14.45-.37.48-.56.07-1.11.14-1.67.21-.02,0-.03,0-.05,0ZM313.35,661.1s-.03,0-.04,0l-1.67-.15c-.23-.02-.41-.23-.39-.46.02-.24.24-.4.46-.39l1.67.15c.23.02.41.23.39.46-.02.22-.21.39-.42.39ZM309.45,660.74s-.03,0-.04,0c-.56-.05-1.12-.11-1.67-.16-.23-.02-.41-.23-.38-.47.02-.23.23-.41.47-.38.56.05,1.11.11,1.67.16.23.02.41.23.38.46-.02.22-.21.39-.42.39ZM417.35,660.68c-.21,0-.39-.15-.42-.37-.03-.23.13-.45.37-.48.55-.08,1.11-.15,1.66-.23.23-.04.45.13.48.36.03.23-.13.45-.36.48-.55.08-1.11.16-1.67.23-.02,0-.04,0-.06,0ZM305.54,660.36s-.03,0-.04,0l-1.67-.17c-.23-.02-.4-.23-.38-.47.02-.23.23-.4.47-.38l1.67.17c.23.02.41.23.38.47-.02.22-.21.38-.42.38ZM421.23,660.12c-.21,0-.39-.15-.42-.36-.04-.23.12-.45.36-.49.55-.08,1.11-.17,1.66-.26.23-.04.45.12.49.36.04.23-.12.45-.36.49-.55.09-1.11.17-1.66.26-.02,0-.04,0-.06,0ZM301.64,659.96s-.03,0-.04,0l-1.67-.18c-.23-.03-.4-.24-.38-.47.03-.23.24-.41.47-.38l1.67.18c.23.02.4.23.38.47-.02.22-.21.38-.42.38ZM297.74,659.53s-.03,0-.05,0l-1.67-.19c-.23-.03-.4-.24-.38-.47.03-.23.24-.4.47-.38l1.67.19c.23.03.4.24.38.47-.02.22-.21.38-.42.38ZM425.1,659.51c-.2,0-.39-.15-.42-.36-.04-.23.12-.45.35-.49.55-.09,1.1-.19,1.65-.28.24-.03.45.12.49.35.04.23-.11.45-.35.49-.55.1-1.1.19-1.66.28-.02,0-.05,0-.07,0ZM293.85,659.09s-.03,0-.05,0l-1.67-.19c-.23-.03-.4-.24-.37-.47.03-.23.24-.4.47-.37l1.67.19c.23.03.4.24.37.47-.03.22-.21.38-.42.38ZM428.96,658.83c-.2,0-.38-.14-.42-.35-.04-.23.11-.45.34-.5.55-.1,1.1-.2,1.65-.31.23-.05.45.11.5.34.04.23-.11.45-.34.5-.55.11-1.1.21-1.65.31-.03,0-.05,0-.08,0ZM289.95,658.64s-.03,0-.05,0l-1.67-.2c-.23-.03-.4-.24-.37-.47.03-.23.25-.4.47-.37l1.67.2c.23.03.4.24.37.47-.03.22-.21.38-.42.38ZM286.06,658.16s-.04,0-.05,0l-1.67-.21c-.23-.03-.4-.24-.37-.48.03-.23.24-.4.48-.37l1.67.21c.23.03.4.24.37.48-.03.22-.21.37-.42.37ZM432.81,658.09c-.2,0-.38-.14-.42-.34-.05-.23.1-.46.33-.5.55-.11,1.1-.22,1.64-.34.23-.05.46.1.51.33.05.23-.1.46-.33.51-.55.11-1.1.23-1.65.34-.03,0-.06,0-.08,0ZM282.17,657.66s-.04,0-.06,0l-1.67-.22c-.23-.03-.4-.24-.37-.48.03-.23.24-.4.48-.37l1.67.22c.23.03.4.24.37.48-.03.21-.21.37-.42.37ZM436.65,657.28c-.2,0-.37-.14-.42-.33-.05-.23.09-.46.32-.51.55-.12,1.09-.24,1.64-.37.23-.05.46.09.51.32.05.23-.09.46-.32.51-.55.13-1.09.25-1.64.37-.03,0-.06,0-.09,0ZM278.28,657.14s-.04,0-.06,0l-1.67-.23c-.23-.03-.4-.25-.36-.48.03-.23.25-.4.48-.36l1.66.23c.23.03.4.25.37.48-.03.21-.21.37-.42.37ZM274.34,656.61l-1.67-.23c-.23-.03-.4-.25-.36-.48.03-.23.25-.4.48-.36l1.65.23-.1.85ZM440.47,656.39c-.19,0-.37-.13-.41-.33-.06-.23.08-.46.31-.51.54-.13,1.09-.27,1.63-.4.23-.06.46.08.52.31.06.23-.08.46-.31.52-.54.14-1.09.27-1.64.4-.03,0-.07.01-.1.01ZM270.51,656.06s-.04,0-.06,0l-1.66-.24c-.23-.03-.39-.25-.36-.48.03-.23.26-.39.48-.36l1.66.24c.23.03.39.25.36.48-.03.21-.21.37-.42.37ZM266.63,655.49s-.04,0-.06,0l-1.66-.25c-.23-.04-.39-.25-.36-.48.04-.23.26-.4.48-.36l1.66.25c.23.03.39.25.36.48-.03.21-.21.36-.42.36ZM444.27,655.43c-.19,0-.36-.13-.41-.32-.06-.23.07-.46.3-.52.54-.14,1.08-.29,1.62-.44.23-.06.46.07.52.3.06.23-.07.46-.3.52-.54.15-1.08.3-1.63.44-.04,0-.07.01-.11.01ZM262.76,654.91s-.04,0-.06,0l-1.66-.26c-.23-.04-.39-.25-.36-.49.04-.23.25-.39.49-.36l1.66.26c.23.04.39.25.36.49-.03.21-.21.36-.42.36ZM448.05,654.38c-.18,0-.36-.12-.41-.31-.07-.23.06-.46.29-.53.54-.16,1.07-.31,1.61-.47.23-.07.46.06.53.29.07.23-.06.46-.29.53-.54.16-1.07.32-1.62.48-.04.01-.08.02-.12.02ZM258.88,654.3s-.04,0-.07,0l-1.66-.26c-.23-.04-.39-.26-.35-.49.04-.23.25-.39.49-.35l1.66.26c.23.04.39.26.35.49-.03.21-.21.36-.42.36ZM255.01,653.68s-.05,0-.07,0l-1.66-.27c-.23-.04-.39-.26-.35-.49.04-.23.25-.39.49-.35l1.66.27c.23.04.39.26.35.49-.03.21-.21.36-.42.36ZM451.8,653.24c-.18,0-.35-.12-.41-.3-.07-.22.05-.46.28-.53.53-.17,1.07-.34,1.59-.51.23-.07.46.05.54.27.07.22-.05.46-.27.54-.53.17-1.07.35-1.6.52-.04.01-.09.02-.13.02ZM251.14,653.04s-.05,0-.07,0l-1.66-.28c-.23-.04-.39-.26-.35-.49.04-.23.26-.39.49-.35l1.66.28c.23.04.39.26.35.49-.03.21-.22.36-.42.36ZM455.52,652.01c-.18,0-.34-.11-.4-.29-.08-.22.04-.47.26-.54.53-.18,1.06-.37,1.58-.56.22-.08.47.04.55.26.08.22-.04.47-.26.55-.53.19-1.06.38-1.59.56-.05.02-.09.02-.14.02ZM459.21,650.68c-.17,0-.33-.1-.4-.28-.08-.22.03-.47.25-.55.52-.2,1.05-.4,1.56-.6.22-.08.47.02.55.24.09.22-.02.47-.24.55-.52.2-1.05.41-1.57.61-.05.02-.1.03-.15.03ZM462.86,649.23c-.17,0-.33-.1-.39-.26-.09-.22.01-.47.23-.56.52-.21,1.03-.43,1.54-.65.22-.09.47,0,.56.22.09.22,0,.47-.22.56-.51.22-1.03.44-1.55.65-.05.02-.11.03-.16.03ZM466.45,647.68c-.16,0-.32-.09-.39-.25-.1-.21,0-.47.21-.56.23-.1.45-.21.68-.31.21-.1.47,0,.57.21.1.21,0,.47-.21.57-.23.11-.46.21-.69.31-.06.03-.12.04-.18.04Z"/>
    <path class="st1" d="M368.12,667.39h-1.68c-.24,0-.43-.19-.43-.43,0-.23.19-.43.43-.43h1.68c.24,0,.43.19.43.43s-.19.43-.43.43ZM370.36,667.38c-.23,0-.42-.19-.43-.42,0-.24.19-.43.42-.43h1.68s0-.01,0-.01c.23,0,.42.19.43.42,0,.24-.19.43-.42.43h-1.68s0,.01,0,.01ZM364.19,667.38h-1.68c-.24-.02-.42-.21-.42-.45,0-.23.19-.42.43-.42h1.68c.24.02.43.21.42.44,0,.23-.19.42-.43.42ZM374.28,667.34c-.23,0-.42-.19-.43-.42,0-.24.18-.43.42-.43.56,0,1.12-.02,1.68-.03h0c.23,0,.42.19.43.42,0,.24-.18.43-.42.43-.56,0-1.12.02-1.68.03h0ZM360.28,667.33h0l-1.68-.03c-.24,0-.42-.2-.42-.43,0-.23.19-.42.43-.42h0l1.68.03c.24,0,.42.2.42.43,0,.23-.19.42-.43.42ZM378.21,667.27c-.23,0-.42-.18-.43-.42,0-.24.18-.43.42-.44l1.68-.04h.01c.23,0,.42.18.43.42,0,.24-.18.43-.42.44l-1.68.04h0ZM356.36,667.26h0l-1.68-.04c-.24,0-.42-.2-.42-.44,0-.24.19-.4.44-.42l1.68.04c.24,0,.42.2.42.44,0,.23-.19.42-.43.42ZM382.13,667.17c-.23,0-.42-.18-.43-.41,0-.24.18-.43.41-.44.56-.02,1.12-.04,1.68-.06.23.01.43.18.44.41,0,.24-.18.43-.41.44-.56.02-1.12.04-1.68.06h-.01ZM352.44,667.16h-.01l-1.68-.05c-.24,0-.42-.2-.41-.44,0-.24.22-.41.44-.41l1.68.05c.24,0,.42.2.41.44,0,.23-.2.41-.43.41ZM348.53,667.03h-.01l-1.68-.06c-.24,0-.42-.21-.41-.44,0-.23.2-.41.43-.41,0,0,.01,0,.02,0l1.67.06c.24,0,.42.21.41.44,0,.23-.2.41-.43.41ZM386.06,667.02c-.23,0-.42-.18-.43-.41,0-.24.17-.43.41-.44l1.68-.07c.22-.03.43.17.44.41.01.24-.17.43-.41.44l-1.68.07s-.01,0-.02,0ZM344.62,666.88s-.01,0-.02,0l-1.68-.07c-.24-.01-.42-.21-.41-.45.01-.24.21-.42.45-.41l1.67.07c.24.01.42.21.41.44,0,.23-.2.41-.43.41ZM389.98,666.84c-.23,0-.41-.18-.43-.4-.01-.23.17-.44.4-.45l1.68-.09c.23-.02.44.17.45.4.01.24-.17.44-.4.45l-1.68.09s-.01,0-.02,0ZM340.72,666.7s-.01,0-.02,0l-1.67-.08c-.23-.01-.42-.21-.4-.45.01-.24.22-.42.45-.4l1.67.08c.24.01.42.21.41.45-.01.23-.2.41-.43.41ZM393.91,666.62c-.22,0-.41-.17-.43-.4-.01-.23.16-.44.4-.45.56-.03,1.12-.07,1.68-.11.24-.01.44.16.45.4.02.23-.16.44-.4.45-.56.04-1.12.07-1.68.11,0,0-.02,0-.03,0ZM336.82,666.5s-.02,0-.02,0l-1.68-.09c-.24-.01-.41-.22-.4-.45.01-.24.22-.42.45-.4l1.68.09c.23.01.41.21.4.45-.01.23-.2.4-.43.4ZM397.83,666.36c-.22,0-.41-.17-.42-.4-.02-.23.16-.44.39-.46.56-.04,1.12-.08,1.68-.13.23,0,.44.16.46.39.02.23-.16.44-.39.46-.56.04-1.12.08-1.68.13-.01,0-.02,0-.03,0ZM332.9,666.27s-.02,0-.03,0l-1.68-.11c-.23-.02-.41-.22-.4-.45.01-.23.21-.43.45-.4l1.68.1c.24.01.41.22.4.45-.01.23-.2.4-.43.4ZM401.75,666.05c-.22,0-.41-.17-.42-.39-.02-.23.15-.44.39-.46.56-.05,1.12-.1,1.68-.14.22-.02.44.15.46.39.02.23-.15.44-.39.46-.56.05-1.12.1-1.68.14-.01,0-.02,0-.04,0ZM328.99,666.02s-.02,0-.03,0l-1.68-.12c-.24-.02-.41-.22-.4-.45.02-.23.23-.41.45-.4l1.68.12c.24.02.41.22.4.45-.02.23-.2.4-.42.4ZM325.08,665.74s-.02,0-.03,0l-1.68-.12c-.23-.02-.41-.22-.39-.46.02-.23.23-.4.46-.39l1.67.12c.23.02.41.22.39.46-.02.22-.2.4-.42.4ZM405.66,665.7c-.22,0-.4-.17-.42-.39-.02-.23.15-.44.38-.47.56-.05,1.11-.11,1.67-.16.24-.03.44.15.47.38.02.23-.15.44-.38.47-.56.06-1.12.11-1.67.17-.01,0-.03,0-.04,0ZM321.17,665.44s-.02,0-.03,0l-1.68-.13c-.23-.02-.41-.22-.39-.46.02-.23.23-.41.46-.39l1.67.13c.23.02.41.22.39.46-.02.22-.2.39-.42.39ZM409.56,665.31c-.21,0-.4-.16-.42-.38-.03-.23.14-.44.38-.47.56-.06,1.11-.12,1.67-.19.24-.02.45.14.47.37.03.23-.14.45-.37.47-.56.06-1.11.13-1.67.19-.02,0-.03,0-.05,0ZM317.26,665.12s-.02,0-.04,0l-1.68-.14c-.23-.02-.41-.23-.39-.46.02-.23.23-.4.46-.39l1.67.14c.23.02.41.23.39.46-.02.22-.2.39-.42.39ZM413.46,664.86c-.21,0-.4-.16-.42-.37-.03-.23.14-.45.37-.47.56-.07,1.11-.14,1.67-.21.24-.03.45.14.48.37.03.23-.14.45-.37.48-.56.07-1.11.14-1.67.21-.02,0-.03,0-.05,0ZM313.35,664.78s-.03,0-.04,0l-1.67-.15c-.23-.02-.41-.23-.39-.46.02-.23.24-.4.46-.39l1.67.15c.23.02.41.23.39.46-.02.22-.21.39-.42.39ZM309.45,664.42s-.03,0-.04,0c-.56-.05-1.12-.11-1.67-.16-.23-.02-.41-.23-.38-.47.02-.23.23-.41.47-.38.56.05,1.11.11,1.67.16.23.02.41.23.38.46-.02.22-.21.39-.42.39ZM417.35,664.36c-.21,0-.39-.15-.42-.37-.03-.23.13-.45.37-.48.55-.08,1.11-.15,1.66-.23.23-.04.45.13.48.36.03.23-.13.45-.36.48-.55.08-1.11.16-1.67.23-.02,0-.04,0-.06,0ZM305.54,664.04s-.03,0-.04,0l-1.67-.17c-.23-.02-.4-.23-.38-.47.02-.23.23-.4.47-.38l1.67.17c.23.02.41.23.38.47-.02.22-.21.38-.42.38ZM421.23,663.8c-.21,0-.39-.15-.42-.36-.04-.23.12-.45.36-.49.55-.08,1.11-.17,1.66-.26.23-.03.45.12.49.36.04.23-.12.45-.36.49-.55.09-1.11.17-1.66.26-.02,0-.04,0-.06,0ZM301.64,663.64s-.03,0-.04,0l-1.67-.18c-.23-.03-.4-.24-.38-.47.03-.23.24-.4.47-.38l1.67.18c.23.02.4.23.38.47-.02.22-.21.38-.42.38ZM297.74,663.21s-.03,0-.05,0l-1.67-.19c-.23-.03-.4-.24-.38-.47.03-.23.24-.4.47-.38l1.67.19c.23.03.4.24.38.47-.02.22-.21.38-.42.38ZM425.1,663.19c-.2,0-.39-.15-.42-.36-.04-.23.12-.45.35-.49.55-.09,1.1-.19,1.65-.28.24-.03.45.12.49.35.04.23-.11.45-.35.49-.55.1-1.1.19-1.66.28-.02,0-.05,0-.07,0ZM293.85,662.77s-.03,0-.05,0l-1.67-.19c-.23-.03-.4-.24-.37-.47.03-.23.24-.4.47-.37l1.67.19c.23.03.4.24.37.47-.03.22-.21.38-.42.38ZM428.96,662.51c-.2,0-.38-.14-.42-.35-.04-.23.11-.45.34-.5.55-.1,1.1-.2,1.65-.31.23-.05.45.11.5.34.04.23-.11.45-.34.5-.55.11-1.1.21-1.65.31-.03,0-.05,0-.08,0ZM289.95,662.31s-.03,0-.05,0l-1.67-.2c-.23-.03-.4-.24-.37-.47.03-.23.25-.4.47-.37l1.67.2c.23.03.4.24.37.47-.03.22-.21.38-.42.38ZM286.06,661.84s-.04,0-.05,0l-1.67-.21c-.23-.03-.4-.24-.37-.48.03-.23.24-.4.48-.37l1.67.21c.23.03.4.24.37.48-.03.22-.21.37-.42.37ZM432.81,661.77c-.2,0-.38-.14-.42-.34-.05-.23.1-.46.33-.5.55-.11,1.1-.22,1.64-.34.23-.05.46.1.51.33.05.23-.1.46-.33.51-.55.11-1.1.23-1.65.34-.03,0-.06,0-.08,0ZM282.17,661.34s-.04,0-.06,0l-1.67-.22c-.23-.03-.4-.24-.37-.48.03-.23.24-.4.48-.37l1.67.22c.23.03.4.24.37.48-.03.21-.21.37-.42.37ZM436.65,660.96c-.2,0-.37-.14-.42-.33-.05-.23.09-.46.32-.51.55-.12,1.09-.24,1.64-.37.23-.06.46.09.51.32.05.23-.09.46-.32.51-.55.13-1.09.25-1.64.37-.03,0-.06,0-.09,0ZM278.28,660.82s-.04,0-.06,0l-1.67-.23c-.23-.03-.4-.25-.36-.48.03-.23.25-.4.48-.36l1.66.23c.23.03.4.25.37.48-.03.21-.21.37-.42.37ZM274.34,660.29l-1.67-.23c-.23-.03-.4-.25-.36-.48.03-.23.25-.4.48-.36l1.65.23-.1.85ZM440.47,660.07c-.19,0-.37-.13-.41-.33-.06-.23.08-.46.31-.51.54-.13,1.09-.27,1.63-.4.23-.06.46.08.52.31.06.23-.08.46-.31.52-.54.14-1.09.27-1.64.4-.03,0-.07.01-.1.01ZM270.51,659.74s-.04,0-.06,0l-1.66-.24c-.23-.03-.39-.25-.36-.48.03-.23.26-.39.48-.36l1.66.24c.23.03.39.25.36.48-.03.21-.21.37-.42.37ZM266.63,659.17s-.04,0-.06,0l-1.66-.25c-.23-.03-.39-.25-.36-.48.04-.23.26-.4.48-.36l1.66.25c.23.03.39.25.36.48-.03.21-.21.36-.42.36ZM444.27,659.11c-.19,0-.36-.13-.41-.32-.06-.23.07-.46.3-.52.54-.14,1.08-.29,1.62-.44.23-.06.46.07.52.3.06.23-.07.46-.3.52-.54.15-1.08.3-1.63.44-.04,0-.07.01-.11.01ZM262.76,658.58s-.04,0-.06,0l-1.66-.26c-.23-.04-.39-.25-.36-.49.04-.23.25-.39.49-.36l1.66.26c.23.04.39.25.36.49-.03.21-.21.36-.42.36ZM448.05,658.06c-.18,0-.36-.12-.41-.31-.07-.23.06-.46.29-.53.54-.16,1.07-.31,1.61-.47.23-.07.46.06.53.29.07.23-.06.46-.29.53-.54.16-1.07.32-1.62.48-.04.01-.08.02-.12.02ZM258.88,657.98s-.04,0-.07,0l-1.66-.26c-.23-.04-.39-.26-.35-.49.04-.23.25-.39.49-.35l1.66.26c.23.04.39.26.35.49-.03.21-.21.36-.42.36ZM255.01,657.36s-.05,0-.07,0l-1.66-.27c-.23-.04-.39-.26-.35-.49.04-.23.25-.39.49-.35l1.66.27c.23.04.39.26.35.49-.03.21-.21.36-.42.36ZM451.8,656.92c-.18,0-.35-.12-.41-.3-.07-.22.05-.46.28-.53.53-.17,1.07-.34,1.59-.51.23-.07.46.05.54.27.07.22-.05.46-.27.54-.53.18-1.07.35-1.6.52-.04.01-.09.02-.13.02ZM251.14,656.72s-.05,0-.07,0l-1.66-.28c-.23-.04-.39-.26-.35-.49.04-.23.26-.39.49-.35l1.66.28c.23.04.39.26.35.49-.03.21-.22.36-.42.36ZM455.52,655.69c-.18,0-.34-.11-.4-.29-.08-.22.04-.47.26-.54.53-.18,1.06-.37,1.58-.56.22-.08.47.04.55.26.08.22-.04.47-.26.55-.53.19-1.06.38-1.59.56-.05.02-.09.02-.14.02ZM459.21,654.35c-.17,0-.33-.1-.4-.28-.08-.22.03-.47.25-.55.52-.2,1.05-.4,1.56-.6.22-.09.47.02.55.24.09.22-.02.47-.24.55-.52.2-1.05.41-1.57.61-.05.02-.1.03-.15.03ZM462.86,652.91c-.17,0-.33-.1-.39-.26-.09-.22.01-.47.23-.56.52-.21,1.03-.43,1.54-.65.22-.09.47,0,.56.22.09.22,0,.47-.22.56-.51.22-1.03.44-1.55.65-.05.02-.11.03-.16.03ZM466.45,651.36c-.16,0-.32-.09-.39-.25-.1-.21,0-.47.21-.56.23-.1.45-.21.68-.31.21-.1.47,0,.57.21.1.21,0,.47-.21.57-.23.11-.46.21-.69.31-.06.03-.12.04-.18.04Z"/>
    <path class="st1" d="M360,682.15c-.6,0-1.1-.47-1.13-1.08-3.55-71.57-2.03-343.45-2.02-346.19,0-.63.51-1.13,1.14-1.13h0c.63,0,1.13.52,1.13,1.14-.02,2.74-1.53,274.55,2.01,346.06.03.63-.45,1.16-1.08,1.19-.02,0-.04,0-.06,0Z"/>
    <g>
      <path class="st1" d="M311.14,323.96s-.04,0-.06,0c-.63-.03-1.11-.57-1.07-1.2.05-.85,4.81-85.44,12.57-144.87.99-7.57,1.66-11.58,3.94-18.19.2-.59.85-.91,1.45-.7.59.2.91.85.7,1.45-2.09,6.06-2.79,9.74-3.84,17.74-7.75,59.34-12.51,143.85-12.56,144.7-.03.61-.54,1.07-1.13,1.07Z"/>
      <path class="st1" d="M422.1,322.19c-.63,0-1.14-.51-1.14-1.14,0-1-.2-100.23-6.34-154.27-.07-.62.38-1.19,1-1.26.62-.07,1.19.38,1.26,1,6.16,54.17,6.36,153.53,6.36,154.52,0,.63-.51,1.14-1.14,1.14h0Z"/>
      <path class="st1" d="M357.99,336.02s-.06,0-.09,0c-29.52-2.37-47.11-11.44-47.28-11.53-.56-.29-.77-.98-.48-1.53.29-.56.98-.77,1.53-.48.17.09,17.3,8.9,46.2,11.26,3.82-1.11,47.88-13.82,64.25-13.45.63.01,1.13.53,1.11,1.16-.01.62-.52,1.11-1.14,1.11,0,0-.02,0-.03,0-16.45-.37-63.29,13.28-63.77,13.42-.1.03-.21.05-.32.05Z"/>
      <path class="st1" d="M415.74,168.86c-.51,0-.97-.34-1.1-.86-4.74-18.83-14.9-32.06-29.37-38.27-10.4-4.46-19.58-3.84-20.52-3.76-1.44.39-23.53,6.76-36.12,34.57-.26.57-.93.82-1.5.57-.57-.26-.83-.93-.57-1.51,13.43-29.68,36.75-35.63,37.73-35.87.05-.01.1-.02.15-.03.41-.04,10.27-.99,21.73,3.92,10.56,4.53,24.46,15.11,30.68,39.8.15.61-.22,1.23-.83,1.38-.09.02-.19.03-.28.03Z"/>
      <path class="st1" d="M311.14,324.62c-.38,0-.76-.19-.97-.54-.33-.54-.16-1.24.38-1.56,1.45-.89,35.62-21.68,52.24-21.68h0c19.33,0,58.16,18.77,59.8,19.57.56.27.8.96.53,1.52-.27.56-.95.8-1.52.53-.4-.19-40-19.34-58.81-19.34h0c-15.99,0-50.7,21.13-51.05,21.35-.19.11-.39.17-.59.17Z"/>
      <path class="st1" d="M312.65,311.49c-.14,0-.28-.07-.36-.19-.14-.2-.09-.48.11-.62,0,0,.52-.36,1.46-.99.2-.14.48-.08.61.12.13.2.08.48-.12.61-.93.62-1.45.98-1.45.98-.08.05-.16.08-.25.08ZM316.06,309.24c-.15,0-.29-.07-.37-.2-.13-.21-.07-.48.13-.61.45-.29.95-.61,1.48-.94.21-.13.48-.07.61.14.13.21.07.48-.14.61-.53.33-1.02.65-1.47.94-.07.05-.16.07-.24.07ZM420.12,309c-.06,0-.13-.01-.19-.04l-1.57-.75c-.22-.11-.31-.37-.21-.59.11-.22.37-.31.59-.21l1.57.76c.22.11.31.37.21.59-.08.16-.23.25-.4.25ZM416.45,307.25c-.06,0-.13-.01-.19-.04l-1.57-.75c-.22-.1-.32-.37-.21-.59.1-.22.37-.32.59-.21l1.58.75c.22.1.31.37.21.59-.08.16-.23.25-.4.25ZM319.51,307.07c-.15,0-.29-.07-.38-.21-.13-.21-.06-.48.15-.61.48-.29.98-.6,1.5-.91.21-.13.48-.06.61.15.13.21.06.48-.15.61-.52.31-1.01.61-1.49.9-.07.04-.15.07-.23.07ZM412.77,305.51c-.06,0-.13-.01-.19-.04-.53-.25-1.05-.49-1.58-.73-.22-.1-.32-.37-.22-.59.1-.22.37-.32.59-.22.53.24,1.05.49,1.58.74.22.1.32.37.21.59-.08.16-.23.25-.4.25ZM323.01,304.97c-.15,0-.3-.08-.38-.22-.12-.21-.05-.48.16-.61.49-.29,1-.58,1.51-.88.21-.12.48-.05.6.16.12.21.05.48-.16.6-.51.29-1.02.59-1.51.87-.07.04-.15.06-.22.06ZM409.08,303.81c-.06,0-.12-.01-.18-.04-.53-.24-1.06-.48-1.58-.72-.22-.1-.32-.36-.22-.58.1-.22.36-.32.58-.22.53.24,1.06.48,1.59.72.22.1.32.36.22.59-.07.16-.23.26-.4.26ZM326.54,302.95c-.16,0-.31-.08-.39-.23-.12-.21-.04-.48.17-.6.5-.28,1.01-.56,1.53-.84.22-.12.48-.04.6.18.12.21.04.48-.18.6-.52.28-1.03.56-1.52.84-.07.04-.14.06-.21.06ZM405.37,302.14c-.06,0-.12-.01-.18-.04-.53-.24-1.06-.47-1.59-.7-.22-.1-.33-.36-.23-.58.1-.22.36-.33.58-.23.53.23,1.07.46,1.6.7.22.1.32.36.23.58-.07.17-.23.26-.4.26ZM330.12,301.01c-.16,0-.31-.09-.39-.24-.11-.22-.03-.48.19-.6.51-.27,1.03-.54,1.55-.81.22-.11.48-.03.6.19.11.22.03.48-.19.6-.52.27-1.04.53-1.54.8-.07.03-.14.05-.21.05ZM401.64,300.52c-.06,0-.12-.01-.17-.04-.54-.23-1.07-.45-1.6-.67-.23-.09-.33-.35-.24-.58.09-.23.35-.33.58-.24.54.22,1.07.45,1.61.68.22.1.33.36.23.58-.07.17-.23.27-.41.27ZM333.75,299.16c-.16,0-.32-.09-.4-.25-.11-.22-.02-.48.2-.59.52-.26,1.05-.51,1.57-.77.22-.11.48-.01.59.21.11.22.01.48-.21.59-.53.25-1.05.51-1.56.76-.06.03-.13.05-.2.05ZM397.89,298.97c-.05,0-.11-.01-.17-.03-.54-.22-1.08-.43-1.62-.64-.23-.09-.34-.35-.25-.57.09-.23.35-.34.57-.25.54.21,1.08.43,1.62.65.23.09.34.35.24.58-.07.17-.24.28-.41.28ZM394.1,297.49c-.05,0-.1,0-.16-.03-.54-.21-1.09-.41-1.63-.61-.23-.08-.35-.34-.26-.57.08-.23.34-.35.57-.26.55.2,1.09.4,1.64.61.23.09.34.34.26.57-.07.18-.23.29-.41.29ZM337.43,297.41c-.17,0-.33-.1-.4-.26-.1-.22,0-.48.22-.59.53-.24,1.06-.48,1.59-.72.22-.1.48,0,.58.23.1.22,0,.48-.23.58-.53.23-1.06.47-1.58.71-.06.03-.12.04-.18.04ZM390.28,296.1s-.1,0-.15-.02c-.55-.19-1.1-.38-1.64-.56-.23-.08-.36-.33-.28-.56.08-.23.33-.36.56-.28.55.18,1.1.37,1.65.56.23.08.35.33.27.56-.06.18-.23.3-.42.3ZM341.16,295.78c-.17,0-.34-.1-.41-.27-.09-.23.01-.48.24-.58.54-.23,1.08-.45,1.62-.66.23-.09.48.02.57.25.09.23-.02.48-.25.57-.54.21-1.07.43-1.61.66-.06.02-.11.03-.17.03ZM386.42,294.82s-.09,0-.13-.02c-.55-.17-1.11-.34-1.66-.51-.23-.07-.37-.32-.3-.55.07-.23.31-.37.55-.3.56.17,1.11.34,1.67.51.23.07.36.32.29.55-.06.19-.23.31-.42.31ZM344.94,294.28c-.18,0-.35-.11-.41-.29-.08-.23.03-.48.26-.57.55-.2,1.1-.4,1.65-.59.23-.08.48.04.56.27.08.23-.04.48-.27.56-.54.19-1.09.38-1.63.59-.05.02-.1.03-.15.03ZM382.52,293.67s-.08,0-.12-.02c-.56-.15-1.12-.3-1.68-.45-.24-.06-.38-.3-.32-.54.06-.24.3-.38.54-.32.56.15,1.13.3,1.69.45.24.06.37.31.31.54-.05.2-.23.32-.43.32ZM348.79,292.96c-.19,0-.36-.12-.42-.31-.07-.23.06-.48.29-.55.56-.18,1.12-.34,1.68-.5.23-.07.48.07.55.3.07.23-.07.48-.3.55-.55.16-1.1.32-1.66.5-.04.01-.09.02-.13.02ZM378.58,292.67s-.07,0-.1-.01c-.57-.13-1.13-.26-1.69-.38-.24-.05-.39-.29-.34-.52.05-.24.29-.39.52-.34.57.12,1.14.25,1.71.38.24.06.39.29.33.53-.05.2-.23.34-.43.34ZM352.71,291.86c-.2,0-.38-.14-.43-.34-.06-.24.09-.48.32-.53.58-.14,1.15-.27,1.72-.39.24-.05.47.1.52.34.05.24-.1.47-.34.52-.56.12-1.12.24-1.69.38-.04,0-.07.01-.11.01ZM374.6,291.84s-.05,0-.08,0c-.57-.1-1.14-.2-1.71-.29-.24-.04-.4-.27-.37-.51.04-.24.27-.4.51-.37.57.09,1.15.19,1.73.3.24.04.4.27.35.52-.04.21-.22.36-.43.36ZM370.58,291.21s-.04,0-.06,0c-.57-.07-1.15-.14-1.72-.2-.24-.03-.42-.24-.39-.49.03-.24.25-.42.49-.39.58.06,1.16.13,1.74.2.24.03.41.25.38.5-.03.22-.22.39-.44.39ZM356.7,291.06c-.21,0-.4-.16-.44-.37-.04-.24.13-.47.37-.51.59-.09,1.17-.17,1.75-.23.25-.02.46.15.49.39.03.24-.15.46-.39.49-.56.06-1.13.14-1.71.23-.02,0-.05,0-.07,0ZM366.54,290.8s-.02,0-.03,0c-.57-.04-1.15-.07-1.72-.1-.24-.01-.43-.22-.42-.46.01-.24.21-.43.46-.42.58.03,1.16.06,1.75.1.24.02.43.23.41.47-.02.23-.21.41-.44.41ZM360.74,290.66c-.24,0-.43-.19-.44-.43,0-.24.18-.45.43-.46.24,0,.47-.01.7-.02.21,0,.43,0,.64,0h.41c.24,0,.44.2.44.45,0,.24-.2.44-.44.44h-.41c-.21,0-.42,0-.64,0-.23,0-.45,0-.68.02,0,0-.01,0-.02,0Z"/>
      <path class="st1" d="M312.65,306.05c-.14,0-.28-.07-.36-.19-.14-.2-.09-.48.11-.62,0,0,.52-.36,1.46-.99.2-.14.48-.08.61.12.13.2.08.48-.12.61-.93.62-1.45.98-1.45.98-.08.05-.16.08-.25.08ZM316.06,303.79c-.15,0-.29-.07-.37-.2-.13-.21-.07-.48.13-.61.45-.29.95-.61,1.48-.94.21-.13.48-.07.61.14.13.21.07.48-.14.61-.53.33-1.02.65-1.47.94-.07.05-.16.07-.24.07ZM420.12,303.56c-.06,0-.13-.01-.19-.04l-1.57-.75c-.22-.11-.31-.37-.21-.59.11-.22.37-.31.59-.21l1.57.76c.22.11.31.37.21.59-.08.16-.23.25-.4.25ZM416.45,301.8c-.06,0-.13-.01-.19-.04l-1.57-.75c-.22-.1-.32-.37-.21-.59.1-.22.37-.32.59-.21l1.58.75c.22.1.31.37.21.59-.08.16-.23.25-.4.25ZM319.51,301.62c-.15,0-.29-.07-.38-.21-.13-.21-.06-.48.15-.61.48-.29.98-.6,1.5-.91.21-.13.48-.06.61.15.13.21.06.48-.15.61-.52.31-1.01.61-1.49.9-.07.04-.15.07-.23.07ZM412.77,300.07c-.06,0-.13-.01-.19-.04-.53-.25-1.05-.49-1.58-.73-.22-.1-.32-.37-.22-.59.1-.22.37-.32.59-.22.53.24,1.05.49,1.58.74.22.1.32.37.21.59-.08.16-.23.25-.4.25ZM323.01,299.53c-.15,0-.3-.08-.38-.22-.12-.21-.05-.48.16-.61.49-.29,1-.58,1.51-.88.21-.12.48-.05.6.16.12.21.05.48-.16.6-.51.29-1.02.59-1.51.87-.07.04-.15.06-.22.06ZM409.08,298.36c-.06,0-.12-.01-.18-.04-.53-.24-1.06-.48-1.58-.72-.22-.1-.32-.36-.22-.58.1-.22.36-.32.58-.22.53.24,1.06.48,1.59.72.22.1.32.36.22.59-.07.16-.23.26-.4.26ZM326.54,297.51c-.16,0-.31-.08-.39-.23-.12-.21-.04-.48.17-.6.5-.28,1.01-.56,1.53-.84.22-.12.48-.04.6.18.12.21.04.48-.18.6-.52.28-1.03.56-1.52.84-.07.04-.14.06-.21.06ZM405.37,296.69c-.06,0-.12-.01-.18-.04-.53-.24-1.06-.47-1.59-.7-.22-.1-.33-.36-.23-.58.1-.22.36-.33.58-.23.53.23,1.07.46,1.6.7.22.1.32.36.23.58-.07.17-.23.26-.4.26ZM330.12,295.57c-.16,0-.31-.09-.39-.24-.11-.22-.03-.48.19-.6.51-.27,1.03-.54,1.55-.81.22-.11.48-.03.6.19.11.22.03.48-.19.6-.52.27-1.04.53-1.54.8-.07.03-.14.05-.21.05ZM401.64,295.08c-.06,0-.12-.01-.17-.04-.54-.23-1.07-.45-1.6-.67-.23-.09-.33-.35-.24-.58.09-.23.35-.33.58-.24.54.22,1.07.45,1.61.68.22.1.33.36.23.58-.07.17-.23.27-.41.27ZM333.75,293.72c-.16,0-.32-.09-.4-.25-.11-.22-.02-.48.2-.59.52-.26,1.05-.51,1.57-.77.22-.1.48-.01.59.21.11.22.01.48-.21.59-.53.25-1.05.51-1.56.76-.06.03-.13.05-.2.05ZM397.89,293.52c-.05,0-.11-.01-.17-.03-.54-.22-1.08-.43-1.62-.64-.23-.09-.34-.35-.25-.57.09-.23.35-.34.57-.25.54.21,1.08.43,1.62.65.23.09.34.35.24.58-.07.17-.24.28-.41.28ZM394.1,292.04c-.05,0-.1,0-.16-.03-.54-.21-1.09-.41-1.63-.61-.23-.08-.35-.34-.26-.57.08-.23.34-.35.57-.26.55.2,1.09.4,1.64.61.23.09.34.34.26.57-.07.18-.23.29-.41.29ZM337.43,291.96c-.17,0-.33-.1-.4-.26-.1-.22,0-.48.22-.59.53-.24,1.06-.48,1.59-.72.22-.1.48,0,.58.23.1.22,0,.48-.23.58-.53.23-1.06.47-1.58.71-.06.03-.12.04-.18.04ZM390.28,290.65s-.1,0-.15-.02c-.55-.19-1.1-.38-1.64-.56-.23-.08-.36-.33-.28-.56.08-.23.33-.36.56-.28.55.18,1.1.37,1.65.56.23.08.35.33.27.56-.06.18-.23.3-.42.3ZM341.16,290.33c-.17,0-.34-.1-.41-.27-.09-.23.01-.48.24-.58.54-.23,1.08-.45,1.62-.66.23-.09.48.02.57.25.09.23-.02.48-.25.57-.54.21-1.07.43-1.61.66-.06.02-.11.03-.17.03ZM386.42,289.37s-.09,0-.13-.02c-.55-.17-1.11-.34-1.66-.51-.23-.07-.37-.32-.3-.55.07-.23.31-.37.55-.3.56.17,1.11.34,1.67.51.23.07.36.32.29.55-.06.19-.23.31-.42.31ZM344.94,288.84c-.18,0-.35-.11-.41-.29-.08-.23.03-.48.26-.57.55-.2,1.1-.4,1.65-.59.23-.08.48.04.56.27.08.23-.04.48-.27.56-.54.19-1.09.38-1.63.59-.05.02-.1.03-.15.03ZM382.52,288.22s-.08,0-.12-.02c-.56-.15-1.12-.3-1.68-.45-.24-.06-.38-.3-.32-.54.06-.24.3-.38.54-.32.56.15,1.13.3,1.69.45.24.06.37.31.31.54-.05.2-.23.32-.43.32ZM348.79,287.52c-.19,0-.36-.12-.42-.31-.07-.23.06-.48.29-.55.56-.18,1.12-.34,1.68-.5.23-.07.48.07.55.3.07.23-.07.48-.3.55-.55.16-1.1.32-1.66.5-.04.01-.09.02-.13.02ZM378.58,287.22s-.07,0-.1-.01c-.57-.13-1.13-.26-1.69-.38-.24-.05-.39-.29-.34-.52.05-.24.29-.39.52-.34.57.12,1.14.25,1.71.38.24.06.39.29.33.53-.05.2-.23.34-.43.34ZM352.71,286.42c-.2,0-.38-.14-.43-.34-.06-.24.09-.48.32-.53.58-.14,1.15-.27,1.72-.39.24-.05.47.1.52.34.05.24-.1.47-.34.52-.56.12-1.12.24-1.69.38-.04,0-.07.01-.11.01ZM374.6,286.39s-.05,0-.08,0c-.57-.1-1.14-.2-1.71-.29-.24-.04-.4-.27-.37-.51.04-.24.27-.41.51-.37.57.09,1.15.19,1.73.3.24.04.4.27.35.51-.04.21-.22.36-.43.36ZM370.58,285.76s-.04,0-.06,0c-.57-.07-1.15-.14-1.72-.2-.24-.03-.42-.24-.39-.49.03-.24.25-.42.49-.39.58.06,1.16.13,1.74.2.24.03.41.25.38.5-.03.22-.22.39-.44.39ZM356.7,285.61c-.21,0-.4-.16-.44-.37-.04-.24.13-.47.37-.51.59-.09,1.18-.17,1.75-.23.25-.02.46.15.49.39.03.24-.15.46-.39.49-.55.06-1.13.14-1.71.23-.02,0-.05,0-.07,0ZM366.54,285.35s-.02,0-.03,0c-.57-.04-1.15-.07-1.72-.1-.24-.01-.43-.22-.42-.46.01-.24.21-.43.46-.42.58.03,1.16.06,1.75.1.24.02.43.23.41.47-.02.23-.21.41-.44.41ZM360.74,285.21c-.24,0-.43-.19-.44-.43,0-.24.18-.45.43-.46.24,0,.47-.01.7-.02.21,0,.43,0,.64,0h.41c.24,0,.44.2.44.45,0,.24-.2.44-.44.44h-.41c-.21,0-.42,0-.64,0-.23,0-.45,0-.68.02,0,0-.01,0-.02,0Z"/>
    </g>
    <path class="st1" d="M297.43,114.11c-.38,0-.75-.18-.98-.51-.38-.54-.25-1.29.29-1.67,6.41-4.51,12.5-8.84,18.39-13.04,20.32-14.47,37.87-26.96,52.52-35,23.51-12.9,38.95-16.17,39.6-16.3.43-.09.87.06,1.15.39l6.3,7.36c.43.5.37,1.26-.13,1.69-.5.43-1.26.37-1.69-.13l-5.83-6.81c-3.24.78-17.8,4.68-38.25,15.9-14.53,7.98-32.03,20.43-52.29,34.85-5.89,4.2-11.99,8.53-18.4,13.04-.21.15-.45.22-.69.22Z"/>
    <path class="st1" d="M293.94,126.1c-.38,0-.76-.18-.99-.53-.37-.55-.23-1.29.32-1.66,18.2-12.33,52.09-35.29,78.57-49.25,22.77-12.01,41.42-17.68,41.61-17.73.63-.19,1.3.17,1.49.8.19.63-.17,1.3-.8,1.49-.18.06-18.63,5.66-41.18,17.56-26.37,13.9-60.18,36.81-78.35,49.12-.21.14-.44.21-.67.21Z"/>
  </g>
</svg>