<?xml version="1.0" encoding="UTF-8"?>
<svg id="Layer_1" xmlns="http://www.w3.org/2000/svg" version="1.1" viewBox="0 0 720 720">
  <!-- Generator: Adobe Illustrator 30.3.0, SVG Export Plug-In . SVG Version: 2.1.3 Build 182)  -->
  <defs>
    <style>
      .st0 {
        fill: #fff;
      }

      .st1 {
        fill: #010101;
      }
    </style>
  </defs>
  <path class="st0" d="M248.62,650.78c-1.06,15.63-1.81,24.47-1.81,24.47,8.57,3.27,17.79,5.92,27.46,8.01,24.22,5.27,51.18,7.14,77.3,7.14,2.81,0,5.62-.02,8.41-.07,61.07-.92,115.22-11.35,115.22-11.35,0,0-.01-6.69-.06-18.4,0-1.36,0-2.79-.01-4.3-.33-85.88-1.93-387.69-8.32-418.88-5.54-27.05-27.04-94.83-37.72-127.85-.06-.17-.11-.34-.16-.51-1.71-5.28-3.03-9.69-4.15-12.78-.1-.28-5.86-3.95-5.86-3.95,0,0-24.43-17.25-54.32-37.3-29.68-19.9-53.97-24.48-53.97-24.48,0,0-6.84,7.66-13.6,16.82-9.53,12.9-23.37,33.58-34.82,58.33-2.11,4.57-4.14,9.27-6.05,14.09-19.58,49.48-9.32,83.09-2.8,242.73,4.96,121.2-1.38,238.62-4.71,288.16h-.29c.1.04.19.07.28.12Z"/>
  <g>
    <path class="st1" d="M245.63,674.33c-.04.52.26,1.02.75,1.21,30.72,11.73,70.08,15.18,105.64,15.18,14.28,0,27.94-.56,40.2-1.35,46.27-3,82.88-9.97,83.24-10.04.56-.11.96-.6.96-1.17-.04-16.53-1.02-405.18-8.42-441.25-6.34-30.9-33.81-115.79-41.72-139.98l-2.59-.27c7.44,22.7,35.58,109.51,41.99,140.73,7.17,34.96,8.3,417.47,8.37,439.79-6.08,1.12-40.06,7.11-82.02,9.83-42.23,2.74-101.37,2.62-143.97-13.36,1.05-12.84,12.66-160.19,6.46-311.6-1.75-42.73-3.77-76.58-5.4-103.79-4.45-74.38-6.12-102.21,8.12-138.15,15.77-39.79,40.33-72.03,48.91-82.64l-2.06-1.22c-8.88,11-33.31,43.26-49.05,82.99-14.43,36.42-12.76,64.4-8.28,139.17,1.63,27.19,3.66,61.03,5.4,103.74,6.45,157.53-6.39,310.67-6.52,312.2Z"/>
    <path class="st1" d="M352.46,110.64s.07,0,.1,0c.65-.06,1.14-.63,1.08-1.28-.59-6.89-1.34-9.41-3.15-15.49l-11.63-39.99c-.19-.63-.85-.99-1.47-.8-.63.19-.99.85-.8,1.47l11.64,40c1.81,6.09,2.49,8.37,3.06,15.02.05.62.57,1.08,1.18,1.08Z"/>
    <path class="st1" d="M359.11,112.15s.04,0,.06,0c.33-.03.56-.32.53-.65-.69-7.09-1.49-11.1-3.57-17.91l-9.51-35.23c-.09-.32-.41-.5-.73-.41-.31.09-.5.42-.41.73l9.52,35.24c2.06,6.73,2.85,10.7,3.53,17.69.03.31.29.54.59.54Z"/>
    <path class="st1" d="M351.1,671.02c0-.25.2-.44.44-.44h1.75s0,0,0,0c.24,0,.44.2.44.44,0,.25-.2.45-.44.45h-1.75c-.25,0-.44-.2-.44-.44ZM349.2,671.45h-1.75c-.25-.02-.44-.22-.44-.46,0-.24.2-.44.44-.44h1.76c.25.01.44.21.44.46,0,.24-.2.44-.44.44h0ZM355.18,671.01c0-.25.2-.45.44-.45l1.75-.02h0c.24,0,.44.2.44.44,0,.25-.19.45-.44.45l-1.75.02h0c-.24,0-.44-.2-.44-.44ZM345.11,671.41c-.59,0-1.17-.02-1.75-.03-.25,0-.44-.21-.44-.45,0-.24.2-.44.44-.44h0c.58.01,1.17.02,1.75.03.25,0,.44.21.44.45,0,.24-.2.44-.44.44h0ZM359.27,670.96c0-.25.19-.45.44-.45l1.75-.03h0c.24,0,.44.19.44.44,0,.25-.19.45-.44.45l-1.75.03h0c-.24,0-.44-.19-.44-.44ZM341.02,671.34l-1.76-.04c-.25,0-.44-.21-.43-.46,0-.24.2-.43.44-.43h.01l1.75.04c.25,0,.44.21.43.45,0,.24-.2.43-.44.43h0ZM363.35,670.89c0-.25.19-.45.43-.45l1.75-.04c.26.02.45.19.46.43,0,.25-.19.45-.43.46l-1.75.04h0c-.24,0-.44-.19-.44-.43ZM336.92,671.23c-.59-.02-1.17-.04-1.76-.06-.25,0-.44-.21-.43-.46,0-.25.22-.43.46-.43.58.02,1.17.04,1.75.06.25,0,.44.21.43.46,0,.24-.21.43-.44.43h-.01ZM367.43,670.79c0-.25.19-.45.43-.46l1.75-.05c.23,0,.45.19.46.43,0,.25-.19.45-.43.46l-1.75.05h-.01c-.24,0-.44-.19-.44-.43ZM371.51,670.66c0-.24.18-.45.43-.46l1.74-.06s.01,0,.02,0c.24,0,.43.19.44.43,0,.25-.18.45-.43.46l-1.75.07h-.02c-.24,0-.44-.19-.44-.43ZM332.82,671.08l-1.75-.08c-.25-.01-.44-.22-.42-.46.01-.25.24-.45.46-.42l1.75.08c.25,0,.44.22.43.46,0,.24-.21.43-.44.43,0,0-.01,0-.02,0ZM375.58,670.5c-.01-.25.18-.45.42-.46l1.74-.08c.24-.01.45.18.46.42.01.25-.18.45-.42.46l-1.75.08s-.01,0-.02,0c-.24,0-.43-.19-.44-.43ZM328.73,670.89l-1.75-.09c-.24-.01-.43-.22-.42-.47.01-.25.23-.45.47-.42l1.75.09c.25.01.43.22.42.47-.01.24-.21.42-.44.42,0,0-.02,0-.02,0ZM379.65,670.32c-.01-.24.18-.45.42-.47l1.74-.09c.24-.02.45.18.47.42.01.25-.18.45-.42.47l-1.74.09s-.01,0-.02,0c-.24,0-.43-.19-.44-.42ZM324.63,670.66c-.59-.04-1.17-.07-1.76-.11-.24-.02-.43-.23-.41-.47.02-.24.23-.43.47-.41.58.04,1.17.08,1.75.11.24.02.43.23.42.47-.01.24-.21.42-.44.42,0,0-.02,0-.03,0ZM383.72,670.11c-.01-.25.17-.45.42-.47l1.75-.1c.24-.02.45.17.47.42.01.24-.17.45-.42.47l-1.75.1s-.02,0-.03,0c-.23,0-.43-.18-.44-.42ZM320.54,670.39c-.59-.04-1.17-.09-1.75-.13-.24-.02-.43-.23-.41-.48.02-.25.24-.42.48-.41.58.05,1.17.09,1.75.13.24.02.43.23.41.48-.02.23-.21.41-.44.41-.01,0-.02,0-.03,0ZM387.8,669.87c-.02-.24.17-.46.42-.47l1.75-.11c.25-.03.46.17.47.41.02.24-.17.46-.41.47l-1.75.11s-.02,0-.03,0c-.23,0-.43-.18-.44-.42ZM316.45,670.07c-.59-.05-1.17-.1-1.75-.15-.24-.02-.42-.24-.4-.48.02-.24.25-.43.48-.4.58.05,1.16.1,1.75.15.24.02.43.24.41.48-.02.23-.21.41-.44.41-.01,0-.03,0-.04,0ZM391.88,669.61c-.02-.24.17-.46.41-.47l1.75-.12c.24-.01.46.17.47.41.02.24-.17.46-.41.47l-1.75.12s-.02,0-.03,0c-.23,0-.43-.18-.44-.41ZM395.96,669.33c-.02-.24.17-.46.41-.48l1.75-.13c.24,0,.46.17.48.41.02.24-.16.46-.41.48l-1.75.13s-.02,0-.03,0c-.23,0-.43-.18-.44-.41ZM312.36,669.7c-.58-.06-1.16-.11-1.75-.17-.24-.02-.42-.24-.4-.49.02-.24.23-.42.49-.4.58.06,1.16.12,1.74.17.24.02.42.24.4.49-.02.23-.22.4-.44.4-.01,0-.03,0-.04,0ZM400.03,669.02c-.02-.24.16-.46.41-.48l1.74-.14c.24-.02.46.16.48.41.02.24-.16.46-.41.48l-1.75.14s-.02,0-.04,0c-.23,0-.42-.18-.44-.41ZM308.29,669.29c-.58-.06-1.16-.13-1.74-.19-.24-.03-.42-.25-.39-.49.03-.24.24-.41.49-.39.58.07,1.16.13,1.74.19.24.03.42.25.39.49-.02.23-.22.4-.44.4-.02,0-.03,0-.05,0ZM404.11,668.69c-.02-.24.16-.46.41-.48l1.74-.15c.24-.02.46.16.48.4.02.24-.16.46-.4.48l-1.75.15s-.03,0-.04,0c-.23,0-.42-.18-.44-.41ZM304.23,668.82c-.58-.07-1.16-.14-1.74-.22-.24-.03-.42-.25-.38-.5.03-.24.25-.41.5-.38.58.07,1.16.15,1.74.22.24.03.42.25.39.49-.03.23-.22.39-.44.39-.02,0-.04,0-.05,0ZM408.18,668.34c-.02-.24.16-.46.4-.48l1.74-.16c.24-.02.46.16.48.4.02.24-.16.46-.4.48l-1.75.16s-.03,0-.04,0c-.23,0-.42-.17-.44-.41ZM412.25,667.96c-.02-.24.16-.46.4-.48.58-.06,1.16-.11,1.74-.17.25-.02.46.16.49.4.02.24-.15.46-.4.49-.58.06-1.16.11-1.74.17-.01,0-.03,0-.04,0-.23,0-.42-.17-.44-.4ZM300.17,668.3c-.58-.08-1.16-.16-1.74-.24-.24-.03-.41-.26-.38-.5.03-.24.26-.42.5-.38.58.08,1.15.16,1.73.24.24.03.41.26.38.5-.03.22-.22.38-.44.38-.02,0-.04,0-.06,0ZM416.32,667.57c-.02-.24.15-.46.4-.49l1.74-.18c.25-.02.46.15.49.4.02.24-.15.46-.4.49l-1.74.18s-.03,0-.05,0c-.23,0-.42-.17-.44-.4ZM296.11,667.72c-.58-.09-1.16-.18-1.73-.27-.24-.04-.41-.27-.37-.51.04-.24.27-.41.51-.37.58.09,1.15.18,1.73.27.24.04.41.26.37.51-.03.22-.22.38-.44.38-.02,0-.04,0-.07,0ZM420.38,667.15c-.03-.24.15-.46.4-.49l1.74-.19c.24-.03.46.15.49.39.03.24-.15.46-.39.49l-1.74.19s-.03,0-.05,0c-.22,0-.42-.17-.44-.4ZM424.45,666.71c-.03-.24.15-.46.39-.49l1.74-.19c.24-.03.46.15.49.39.03.24-.15.46-.39.49l-1.74.19s-.03,0-.05,0c-.22,0-.42-.17-.44-.4ZM292.07,667.07c-.58-.1-1.15-.19-1.73-.29-.24-.04-.4-.27-.36-.51.04-.24.27-.4.51-.36.57.1,1.15.2,1.72.29.24.04.41.27.37.51-.04.22-.22.37-.44.37-.02,0-.05,0-.07,0ZM428.51,666.26c-.03-.24.15-.46.39-.49l1.74-.2c.24-.02.46.15.49.39.03.24-.15.46-.39.49l-1.74.2s-.03,0-.05,0c-.22,0-.41-.17-.44-.39ZM288.04,666.37c-.58-.11-1.15-.21-1.72-.32-.24-.05-.4-.28-.35-.52.05-.24.28-.4.52-.35.57.11,1.14.22,1.72.32.24.04.4.28.36.52-.04.21-.23.36-.44.36-.03,0-.05,0-.08,0ZM432.57,665.78c-.03-.24.14-.46.39-.49l1.74-.21c.24-.03.47.14.49.39.03.24-.14.47-.39.49l-1.74.21s-.04,0-.05,0c-.22,0-.41-.17-.44-.39ZM436.62,665.28c-.03-.24.14-.47.39-.5l1.74-.22c.25-.03.47.14.5.38.03.24-.14.47-.38.5l-1.74.22s-.04,0-.06,0c-.22,0-.41-.16-.44-.39ZM284.02,665.59c-.57-.12-1.15-.23-1.72-.35-.24-.05-.39-.29-.34-.53.05-.24.29-.39.53-.34.57.12,1.14.24,1.71.35.24.05.4.28.35.52-.04.21-.23.36-.44.36-.03,0-.06,0-.09,0ZM440.68,664.77c-.03-.24.14-.47.38-.5l1.74-.23c.24-.04.47.14.5.38.03.24-.14.47-.38.5l-1.74.23s-.04,0-.06,0c-.22,0-.41-.16-.44-.39ZM280.01,664.74c-.57-.13-1.14-.26-1.71-.39-.24-.05-.39-.29-.33-.53.05-.24.29-.39.53-.33.57.13,1.13.26,1.71.38.24.05.39.29.34.53-.05.21-.23.35-.43.35-.03,0-.06,0-.1-.01ZM444.73,664.23c-.03-.24.14-.47.38-.5l1.74-.24c.24-.03.47.14.5.38.03.24-.14.47-.38.5l-1.74.24s-.04,0-.06,0c-.22,0-.41-.16-.44-.39ZM449.18,663.18l1.72-.24c.24-.04.47.13.5.38.03.24-.13.47-.38.5l-1.74.24-.11-.88ZM276.02,663.82c-.57-.14-1.14-.28-1.7-.42-.24-.06-.38-.3-.32-.54.06-.24.3-.38.54-.32.56.14,1.13.28,1.7.42.24.06.38.3.33.54-.05.2-.23.34-.43.34-.03,0-.07,0-.11-.01ZM452.83,663.11c-.04-.24.13-.47.38-.5l1.73-.25c.24-.03.47.13.5.38.04.24-.13.47-.38.5l-1.73.25s-.04,0-.06,0c-.22,0-.41-.16-.44-.38ZM456.87,662.52c-.04-.24.13-.47.37-.51l1.73-.26c.24-.04.47.13.51.37.04.24-.13.47-.37.51l-1.73.26s-.04,0-.07,0c-.22,0-.41-.16-.44-.38ZM272.05,662.81c-.57-.15-1.13-.3-1.7-.46-.24-.07-.38-.31-.31-.55.07-.24.31-.38.55-.31.56.15,1.12.31,1.69.46.24.06.38.31.32.54-.05.2-.23.33-.43.33-.04,0-.08,0-.11-.02ZM460.92,661.91c-.04-.24.13-.47.37-.51l1.73-.27c.24-.04.47.13.51.37.04.24-.13.47-.37.51l-1.73.27s-.05,0-.07,0c-.22,0-.41-.16-.44-.38ZM268.11,661.72c-.56-.16-1.12-.33-1.68-.5-.23-.07-.37-.32-.3-.55.07-.23.32-.37.55-.3.56.17,1.11.33,1.68.49.24.07.37.32.3.55-.06.19-.23.32-.43.32-.04,0-.08,0-.12-.02ZM464.95,661.28c-.04-.24.13-.47.37-.51l1.73-.27c.25-.04.47.13.51.37.04.24-.13.47-.37.51l-1.73.28s-.05,0-.07,0c-.21,0-.4-.16-.44-.38ZM468.99,660.63c-.04-.24.13-.47.37-.51l1.73-.28c.25-.04.47.12.51.37.04.24-.12.47-.37.51l-1.73.28s-.05,0-.07,0c-.21,0-.4-.16-.44-.37ZM264.18,660.53c-.56-.18-1.12-.36-1.67-.54-.23-.08-.36-.33-.28-.56.08-.23.33-.36.56-.28.55.18,1.1.36,1.66.54.23.07.36.32.29.56-.06.19-.23.31-.42.31-.04,0-.09,0-.13-.02ZM473.02,659.97c-.04-.24.12-.47.36-.51l1.73-.29c.24-.04.47.12.51.36.04.24-.12.47-.36.51l-1.73.29s-.05,0-.07,0c-.21,0-.4-.15-.44-.37ZM260.29,659.24c-.56-.19-1.11-.39-1.66-.58-.23-.08-.35-.34-.27-.57.08-.23.34-.35.57-.27.55.2,1.09.39,1.65.58.23.08.35.33.27.57-.06.18-.24.3-.42.3-.05,0-.1,0-.15-.02ZM256.44,657.85c-.55-.21-1.1-.42-1.64-.63-.23-.09-.34-.35-.25-.58.09-.23.35-.34.58-.25.54.21,1.08.42,1.63.63.23.09.34.34.26.57-.07.18-.24.29-.42.29-.05,0-.11,0-.16-.03ZM252.63,656.34c-.54-.23-1.08-.45-1.62-.68-.23-.1-.33-.36-.23-.58.1-.23.36-.33.58-.23.53.23,1.07.45,1.61.68.23.09.33.35.24.58-.07.17-.24.27-.41.27-.06,0-.11-.01-.17-.03ZM248.86,654.71c-.24-.11-.48-.22-.72-.33-.22-.1-.32-.37-.22-.59.1-.22.37-.32.59-.22.24.11.47.22.71.32.22.1.32.36.22.59-.07.16-.24.26-.41.26-.06,0-.12-.01-.18-.04Z"/>
    <path class="st1" d="M351.1,674.85c0-.25.2-.44.44-.44h1.75s0,0,0,0c.24,0,.44.2.44.44,0,.25-.2.45-.44.45h-1.75c-.25,0-.44-.2-.44-.44ZM349.2,675.29h-1.75c-.25-.02-.44-.22-.44-.46,0-.24.2-.44.44-.44h1.76c.25.01.44.21.44.46,0,.24-.2.44-.44.44h0ZM355.18,674.84c0-.25.2-.45.44-.45l1.75-.02h0c.24,0,.44.2.44.44,0,.25-.19.45-.44.45l-1.75.02h0c-.24,0-.44-.2-.44-.44ZM345.11,675.25c-.59,0-1.17-.02-1.75-.03-.25,0-.44-.21-.44-.45,0-.24.2-.44.44-.44h0c.58.01,1.17.02,1.75.03.25,0,.44.21.44.45,0,.24-.2.44-.44.44h0ZM359.27,674.8c0-.25.19-.45.44-.45l1.75-.03h0c.24,0,.44.19.44.44,0,.25-.19.45-.44.45l-1.75.03h0c-.24,0-.44-.19-.44-.44ZM341.02,675.17l-1.76-.04c-.25,0-.44-.21-.43-.46,0-.24.2-.43.44-.43h.01l1.75.04c.25,0,.44.21.43.45,0,.24-.2.43-.44.43h0ZM363.35,674.73c0-.25.19-.45.43-.45l1.75-.04c.26.01.45.19.46.43,0,.25-.19.45-.43.46l-1.75.04h0c-.24,0-.44-.19-.44-.43ZM336.92,675.06c-.59-.02-1.17-.04-1.76-.06-.25,0-.44-.21-.43-.46,0-.25.22-.42.46-.43.58.02,1.17.04,1.75.06.25,0,.44.21.43.46,0,.24-.21.43-.44.43h-.01ZM367.43,674.63c0-.25.19-.45.43-.46l1.75-.05c.23,0,.45.19.46.43,0,.25-.19.45-.43.46l-1.75.05h-.01c-.24,0-.44-.19-.44-.43ZM371.51,674.5c0-.24.18-.45.43-.46l1.74-.06s.01,0,.02,0c.24,0,.43.19.44.43,0,.25-.18.45-.43.46l-1.75.07h-.02c-.24,0-.44-.19-.44-.43ZM332.82,674.91l-1.75-.08c-.25-.01-.44-.22-.42-.46.01-.25.24-.45.46-.42l1.75.08c.25,0,.44.22.43.46,0,.24-.21.43-.44.43,0,0-.01,0-.02,0ZM375.58,674.34c-.01-.25.18-.45.42-.46l1.74-.08c.24-.02.45.18.46.42.01.25-.18.45-.42.46l-1.75.08s-.01,0-.02,0c-.24,0-.43-.19-.44-.43ZM328.73,674.72l-1.75-.09c-.24-.01-.43-.22-.42-.47.01-.24.23-.44.47-.42l1.75.09c.25.01.43.22.42.47-.01.24-.21.42-.44.42,0,0-.02,0-.02,0ZM379.65,674.15c-.01-.24.18-.45.42-.47l1.74-.09c.24-.02.45.18.47.42.01.25-.18.45-.42.47l-1.74.09s-.01,0-.02,0c-.24,0-.43-.19-.44-.42ZM324.63,674.5c-.59-.04-1.17-.07-1.76-.11-.24-.02-.43-.23-.41-.47.02-.24.23-.43.47-.41.58.04,1.17.08,1.75.11.24.02.43.23.42.47-.01.24-.21.42-.44.42,0,0-.02,0-.03,0ZM383.72,673.94c-.01-.25.17-.45.42-.47l1.75-.1c.24-.02.45.17.47.42.01.24-.17.45-.42.47l-1.75.1s-.02,0-.03,0c-.23,0-.43-.18-.44-.42ZM320.54,674.22c-.59-.04-1.17-.09-1.75-.13-.24-.02-.43-.23-.41-.48.02-.24.24-.41.48-.41.58.05,1.17.09,1.75.13.24.02.43.23.41.48-.02.23-.21.41-.44.41-.01,0-.02,0-.03,0ZM387.8,673.71c-.02-.24.17-.46.42-.47l1.75-.11c.25-.03.46.17.47.41.02.24-.17.46-.41.47l-1.75.11s-.02,0-.03,0c-.23,0-.43-.18-.44-.42ZM316.45,673.9c-.59-.05-1.17-.1-1.75-.15-.24-.02-.42-.24-.4-.48.02-.24.25-.42.48-.4.58.05,1.16.1,1.75.15.24.02.43.24.41.48-.02.23-.21.41-.44.41-.01,0-.03,0-.04,0ZM391.88,673.45c-.02-.24.17-.46.41-.47l1.75-.12c.24-.02.46.17.47.41.02.24-.17.46-.41.47l-1.75.12s-.02,0-.03,0c-.23,0-.43-.18-.44-.41ZM395.96,673.16c-.02-.24.17-.46.41-.48l1.75-.13c.24,0,.46.16.48.41.02.24-.16.46-.41.48l-1.75.13s-.02,0-.03,0c-.23,0-.43-.18-.44-.41ZM312.36,673.54c-.58-.06-1.16-.11-1.75-.17-.24-.02-.42-.24-.4-.49.02-.24.23-.42.49-.4.58.06,1.16.12,1.74.17.24.02.42.24.4.49-.02.23-.22.4-.44.4-.01,0-.03,0-.04,0ZM400.03,672.86c-.02-.24.16-.46.41-.48l1.74-.14c.24-.02.46.16.48.41.02.24-.16.46-.41.48l-1.75.14s-.02,0-.04,0c-.23,0-.42-.18-.44-.41ZM308.29,673.12c-.58-.06-1.16-.13-1.74-.19-.24-.03-.42-.25-.39-.49.03-.24.24-.41.49-.39.58.07,1.16.13,1.74.19.24.03.42.25.39.49-.02.23-.22.4-.44.4-.02,0-.03,0-.05,0ZM404.11,672.53c-.02-.24.16-.46.41-.48l1.74-.15c.24-.02.46.16.48.4.02.24-.16.46-.4.48l-1.75.15s-.03,0-.04,0c-.23,0-.42-.18-.44-.41ZM304.23,672.65c-.58-.07-1.16-.14-1.74-.22-.24-.03-.42-.25-.38-.5.03-.24.25-.41.5-.38.58.07,1.16.15,1.74.22.24.03.42.25.39.49-.03.23-.22.39-.44.39-.02,0-.04,0-.05,0ZM408.18,672.17c-.02-.24.16-.46.4-.48l1.74-.16c.24-.02.46.16.48.4.02.24-.16.46-.4.48l-1.75.16s-.03,0-.04,0c-.23,0-.42-.17-.44-.41ZM412.25,671.8c-.02-.24.16-.46.4-.48.58-.06,1.16-.11,1.74-.17.25-.03.46.16.49.4.02.24-.15.46-.4.49-.58.06-1.16.11-1.74.17-.01,0-.03,0-.04,0-.23,0-.42-.17-.44-.4ZM300.17,672.13c-.58-.08-1.16-.16-1.74-.24-.24-.03-.41-.26-.38-.5.03-.24.26-.42.5-.38.58.08,1.15.16,1.73.24.24.03.41.26.38.5-.03.22-.22.38-.44.38-.02,0-.04,0-.06,0ZM416.32,671.4c-.02-.24.15-.46.4-.49l1.74-.18c.25-.03.46.15.49.4.02.24-.15.46-.4.49l-1.74.18s-.03,0-.05,0c-.23,0-.42-.17-.44-.4ZM296.11,671.55c-.58-.09-1.16-.18-1.73-.27-.24-.04-.41-.27-.37-.51.04-.24.27-.41.51-.37.58.09,1.15.18,1.73.27.24.04.41.26.37.51-.03.22-.22.38-.44.38-.02,0-.04,0-.07,0ZM420.38,670.98c-.03-.24.15-.46.4-.49l1.74-.19c.24-.03.46.15.49.39.03.24-.15.46-.39.49l-1.74.19s-.03,0-.05,0c-.22,0-.42-.17-.44-.4ZM424.45,670.55c-.03-.24.15-.46.39-.49l1.74-.19c.24-.03.46.15.49.39.03.24-.15.46-.39.49l-1.74.19s-.03,0-.05,0c-.22,0-.42-.17-.44-.4ZM292.07,670.91c-.58-.1-1.15-.19-1.73-.29-.24-.04-.4-.27-.36-.51.04-.24.27-.4.51-.36.57.1,1.15.2,1.72.29.24.04.41.27.37.51-.04.22-.22.37-.44.37-.02,0-.05,0-.07,0ZM428.51,670.09c-.03-.24.15-.46.39-.49l1.74-.2c.24-.02.46.15.49.39.03.24-.15.46-.39.49l-1.74.2s-.03,0-.05,0c-.22,0-.41-.17-.44-.39ZM288.04,670.2c-.58-.11-1.15-.21-1.72-.32-.24-.05-.4-.28-.35-.52.05-.24.28-.4.52-.35.57.11,1.14.22,1.72.32.24.04.4.28.36.52-.04.21-.23.36-.44.36-.03,0-.05,0-.08,0ZM432.57,669.62c-.03-.24.14-.46.39-.49l1.74-.21c.24-.03.47.14.49.39.03.24-.14.47-.39.49l-1.74.21s-.04,0-.05,0c-.22,0-.41-.17-.44-.39ZM436.62,669.12c-.03-.24.14-.47.39-.5l1.74-.22c.25-.03.47.14.5.38.03.24-.14.47-.38.5l-1.74.22s-.04,0-.06,0c-.22,0-.41-.16-.44-.39ZM284.02,669.43c-.57-.12-1.15-.23-1.72-.35-.24-.05-.39-.29-.34-.53.05-.24.29-.39.53-.34.57.12,1.14.24,1.71.35.24.05.4.28.35.52-.04.21-.23.36-.44.36-.03,0-.06,0-.09,0ZM440.68,668.6c-.03-.24.14-.47.38-.5l1.74-.23c.24-.04.47.14.5.38.03.24-.14.47-.38.5l-1.74.23s-.04,0-.06,0c-.22,0-.41-.16-.44-.39ZM280.01,668.58c-.57-.13-1.14-.26-1.71-.39-.24-.06-.39-.29-.33-.53.05-.24.29-.39.53-.33.57.13,1.13.26,1.71.38.24.05.39.29.34.53-.05.21-.23.35-.43.35-.03,0-.06,0-.1-.01ZM444.73,668.07c-.03-.24.14-.47.38-.5l1.74-.24c.24-.03.47.14.5.38.03.24-.14.47-.38.5l-1.74.24s-.04,0-.06,0c-.22,0-.41-.16-.44-.39ZM449.18,667.01l1.72-.24c.24-.04.47.13.5.38.03.24-.13.47-.38.5l-1.74.24-.11-.88ZM276.02,667.65c-.57-.14-1.14-.28-1.7-.42-.24-.06-.38-.3-.32-.54.06-.24.3-.38.54-.32.56.14,1.13.28,1.7.42.24.06.38.3.33.54-.05.2-.23.34-.43.34-.03,0-.07,0-.11-.01ZM452.83,666.94c-.04-.24.13-.47.38-.5l1.73-.25c.24-.03.47.13.5.38.04.24-.13.47-.38.5l-1.73.25s-.04,0-.06,0c-.22,0-.41-.16-.44-.38ZM456.87,666.35c-.04-.24.13-.47.37-.51l1.73-.26c.24-.04.47.13.51.37.04.24-.13.47-.37.51l-1.73.26s-.04,0-.07,0c-.22,0-.41-.16-.44-.38ZM272.05,666.65c-.57-.15-1.13-.3-1.7-.46-.24-.07-.38-.31-.31-.55.07-.24.31-.38.55-.31.56.15,1.12.31,1.69.46.24.06.38.31.32.54-.05.2-.23.33-.43.33-.04,0-.08,0-.11-.02ZM460.92,665.74c-.04-.24.13-.47.37-.51l1.73-.27c.24-.04.47.13.51.37.04.24-.13.47-.37.51l-1.73.27s-.05,0-.07,0c-.22,0-.41-.16-.44-.38ZM268.11,665.55c-.56-.16-1.12-.33-1.68-.5-.23-.07-.37-.32-.3-.55.07-.23.32-.37.55-.3.56.17,1.11.33,1.68.49.24.07.37.32.3.55-.06.19-.23.32-.43.32-.04,0-.08,0-.12-.02ZM464.95,665.11c-.04-.24.13-.47.37-.51l1.73-.27c.25-.04.47.13.51.37.04.24-.13.47-.37.51l-1.73.28s-.05,0-.07,0c-.21,0-.4-.16-.44-.37ZM468.99,664.47c-.04-.24.13-.47.37-.51l1.73-.28c.25-.04.47.12.51.37.04.24-.12.47-.37.51l-1.73.28s-.05,0-.07,0c-.21,0-.4-.16-.44-.37ZM264.18,664.36c-.56-.18-1.12-.36-1.67-.54-.23-.08-.36-.33-.28-.56.08-.23.33-.36.56-.28.55.18,1.1.36,1.66.54.23.07.36.32.29.56-.06.19-.23.31-.42.31-.04,0-.09,0-.13-.02ZM473.02,663.8c-.04-.24.12-.47.36-.51l1.73-.29c.24-.04.47.12.51.36.04.24-.12.47-.36.51l-1.73.29s-.05,0-.07,0c-.21,0-.4-.15-.44-.37ZM260.29,663.08c-.56-.19-1.11-.39-1.66-.58-.23-.08-.35-.34-.27-.57.08-.23.34-.35.57-.27.55.2,1.09.39,1.65.58.23.08.35.33.27.57-.06.18-.24.3-.42.3-.05,0-.1,0-.15-.02ZM256.44,661.68c-.55-.21-1.1-.42-1.64-.63-.23-.09-.34-.35-.25-.58.09-.23.35-.34.58-.25.54.21,1.08.42,1.63.63.23.09.34.34.26.57-.07.18-.24.29-.42.29-.05,0-.11,0-.16-.03ZM252.63,660.17c-.54-.23-1.08-.45-1.62-.68-.23-.1-.33-.36-.23-.58.1-.23.36-.33.58-.23.53.23,1.07.45,1.61.68.23.09.33.35.24.58-.07.17-.24.27-.41.27-.06,0-.11-.01-.17-.03ZM248.86,658.55c-.24-.11-.48-.22-.72-.33-.22-.1-.32-.37-.22-.59.1-.22.37-.32.59-.22.24.11.47.22.71.32.22.1.32.36.22.59-.07.16-.24.26-.41.26-.06,0-.12-.01-.18-.04Z"/>
    <path class="st1" d="M360,690.68c.63,0,1.15-.49,1.18-1.13,3.7-74.6,2.12-357.96,2.1-360.82,0-.65-.53-1.18-1.19-1.18h0c-.65,0-1.18.54-1.18,1.19.02,2.85,1.6,286.15-2.1,360.69-.03.65.47,1.21,1.12,1.24.02,0,.04,0,.06,0Z"/>
    <g>
      <path class="st1" d="M410.92,317.35s.04,0,.07,0c.65-.04,1.15-.6,1.12-1.25-.05-.88-5.01-89.06-13.11-150.99-1.03-7.89-1.73-12.07-4.11-18.95-.21-.62-.89-.95-1.51-.73-.62.21-.95.89-.73,1.51,2.18,6.31,2.91,10.15,4,18.49,8.08,61.85,13.04,149.93,13.09,150.81.04.63.56,1.12,1.18,1.12Z"/>
      <path class="st1" d="M295.28,315.5c.65,0,1.18-.53,1.19-1.18,0-1.04.21-104.46,6.61-160.79.07-.65-.39-1.24-1.04-1.31-.64-.07-1.24.39-1.31,1.04-6.42,56.46-6.63,160.02-6.63,161.06,0,.65.53,1.19,1.18,1.19h0Z"/>
      <path class="st1" d="M362.1,329.92s.06,0,.09,0c30.77-2.47,49.1-11.92,49.28-12.02.58-.3.8-1.02.5-1.6-.3-.58-1.02-.8-1.6-.5-.18.09-18.04,9.28-48.15,11.74-3.98-1.16-49.91-14.41-66.97-14.02-.65.01-1.17.56-1.16,1.21.01.65.54,1.16,1.18,1.16,0,0,.02,0,.03,0,17.14-.39,65.97,13.84,66.46,13.98.11.03.22.05.33.05Z"/>
      <path class="st1" d="M301.9,155.69c.53,0,1.01-.36,1.15-.9,4.94-19.63,15.53-33.42,30.61-39.88,10.84-4.64,20.4-4,21.38-3.92,1.5.4,24.53,7.04,37.65,36.04.27.6.97.86,1.57.59.6-.27.86-.97.59-1.57-14-30.94-38.3-37.13-39.33-37.38-.05-.01-.1-.02-.16-.03-.43-.05-10.7-1.03-22.64,4.09-11.01,4.72-25.49,15.75-31.98,41.48-.16.63.23,1.28.86,1.44.1.02.19.04.29.04Z"/>
      <path class="st1" d="M410.92,318.04c.4,0,.79-.2,1.01-.57.34-.56.17-1.29-.39-1.63-1.51-.92-37.12-22.6-54.45-22.6h0c-20.15,0-60.61,19.56-62.33,20.4-.59.29-.83,1-.55,1.58.29.59.99.83,1.58.55.41-.2,41.69-20.16,61.29-20.16h0c16.66,0,52.85,22.03,53.21,22.25.19.12.41.17.62.17Z"/>
      <path class="st1" d="M409.09,304.27s-.54-.37-1.51-1.02c-.21-.14-.27-.43-.13-.64.14-.21.43-.27.64-.13.99.65,1.53,1.03,1.53,1.03.21.15.26.43.12.64-.09.13-.23.2-.38.2-.09,0-.18-.03-.26-.08ZM405.55,301.93c-.47-.3-.98-.63-1.53-.98-.22-.14-.28-.42-.14-.64.13-.22.42-.28.64-.14.55.35,1.07.68,1.54.98.21.14.28.42.14.64-.09.14-.24.21-.39.21-.09,0-.17-.02-.25-.07ZM296.92,301.5c-.11-.23-.01-.5.22-.62l1.64-.79c.23-.11.5-.01.61.22.11.23.01.5-.22.62l-1.64.79c-.06.03-.13.05-.2.05-.17,0-.34-.1-.42-.26ZM300.75,299.67c-.11-.23-.01-.5.22-.61l1.64-.78c.23-.11.5-.01.61.22.11.23.01.51-.22.61l-1.64.78c-.06.03-.13.04-.2.04-.17,0-.34-.1-.42-.26ZM401.96,299.68c-.5-.3-1.02-.62-1.55-.94-.22-.13-.29-.41-.16-.63.13-.22.41-.29.63-.16.54.32,1.06.64,1.56.95.22.13.29.42.15.63-.09.14-.24.22-.39.22-.08,0-.16-.02-.24-.07ZM304.58,297.86c-.11-.23,0-.51.22-.61.55-.26,1.1-.51,1.65-.77.23-.11.5,0,.61.22.11.23,0,.5-.22.61-.55.25-1.1.51-1.65.77-.06.03-.13.04-.19.04-.17,0-.34-.1-.42-.27ZM398.33,297.5c-.51-.3-1.03-.6-1.57-.91-.22-.13-.3-.41-.17-.63.13-.22.41-.3.63-.17.54.31,1.06.61,1.58.91.22.13.29.41.16.63-.09.15-.24.23-.4.23-.08,0-.16-.02-.23-.06ZM308.42,296.08c-.11-.23,0-.5.23-.61.55-.25,1.1-.5,1.66-.75.23-.1.5,0,.61.23.1.23,0,.5-.23.61-.55.25-1.1.5-1.65.75-.06.03-.13.04-.19.04-.17,0-.34-.1-.42-.27ZM394.65,295.4c-.52-.29-1.05-.58-1.59-.87-.22-.12-.31-.4-.19-.63.12-.22.4-.31.63-.18.54.29,1.07.59,1.6.88.22.12.3.4.18.63-.08.15-.24.24-.4.24-.08,0-.15-.02-.22-.06ZM312.29,294.33c-.1-.23,0-.51.23-.61.56-.25,1.11-.49,1.67-.73.23-.1.5,0,.61.24.1.23,0,.5-.24.61-.55.24-1.11.48-1.66.73-.06.03-.12.04-.19.04-.18,0-.35-.1-.42-.27ZM390.92,293.38c-.53-.28-1.07-.56-1.61-.84-.23-.12-.32-.39-.2-.62.12-.23.39-.32.62-.2.55.28,1.09.56,1.62.84.23.12.31.4.19.62-.08.16-.24.25-.41.25-.07,0-.15-.02-.21-.05ZM316.17,292.64c-.1-.23,0-.5.24-.6.56-.24,1.12-.47,1.68-.7.23-.1.5.01.6.25.1.23-.01.5-.25.6-.56.23-1.11.47-1.67.7-.06.03-.12.04-.18.04-.18,0-.35-.11-.42-.28ZM387.15,291.46c-.54-.27-1.08-.53-1.63-.79-.23-.11-.33-.39-.22-.61.11-.23.38-.33.61-.22.55.26,1.1.53,1.64.8.23.11.32.39.21.62-.08.16-.24.26-.41.26-.07,0-.14-.02-.2-.05ZM320.08,291.01c-.09-.24.02-.5.26-.6.57-.23,1.13-.45,1.69-.67.24-.09.5.02.6.26.09.24-.02.5-.26.6-.56.22-1.12.44-1.68.67-.06.02-.12.03-.17.03-.18,0-.36-.11-.43-.29ZM324.03,289.46c-.09-.24.03-.5.27-.59.57-.22,1.14-.43,1.71-.63.24-.09.5.04.59.27.09.24-.04.5-.27.59-.56.21-1.13.42-1.7.63-.05.02-.11.03-.16.03-.19,0-.36-.11-.43-.3ZM383.34,289.64c-.55-.25-1.1-.5-1.65-.74-.23-.1-.34-.37-.24-.61.1-.23.38-.34.61-.24.56.25,1.11.5,1.66.75.23.11.33.38.23.61-.08.17-.24.27-.42.27-.06,0-.13-.01-.19-.04ZM328.01,288c-.08-.24.04-.5.28-.59.58-.2,1.15-.4,1.72-.59.24-.08.5.05.58.29.08.24-.05.5-.29.58-.57.19-1.14.39-1.71.58-.05.02-.1.03-.15.03-.19,0-.37-.12-.44-.31ZM379.46,287.94c-.56-.23-1.12-.46-1.68-.68-.24-.09-.35-.36-.26-.6.09-.24.36-.35.6-.26.56.22,1.13.45,1.69.69.23.1.35.37.25.6-.07.18-.25.28-.43.28-.06,0-.12-.01-.18-.04ZM332.03,286.66c-.08-.24.06-.5.3-.58.58-.18,1.16-.36,1.74-.53.25-.07.5.07.57.31.07.24-.07.5-.31.57-.58.17-1.15.35-1.73.53-.05.01-.09.02-.14.02-.2,0-.38-.13-.44-.32ZM375.53,286.39c-.57-.21-1.14-.41-1.7-.61-.24-.08-.37-.35-.28-.59.08-.24.35-.37.59-.28.57.2,1.15.41,1.72.62.24.09.36.35.27.59-.07.19-.24.3-.43.3-.05,0-.11,0-.16-.03ZM336.09,285.44c-.07-.25.08-.5.32-.57.59-.16,1.18-.32,1.76-.47.25-.06.5.09.56.33.06.25-.08.5-.33.56-.58.15-1.16.31-1.75.47-.04.01-.08.02-.12.02-.2,0-.39-.13-.44-.34ZM371.54,285.02c-.58-.18-1.16-.35-1.73-.52-.24-.07-.39-.32-.32-.57.07-.24.33-.39.57-.32.58.17,1.17.34,1.75.53.24.08.38.33.3.58-.06.2-.24.32-.44.32-.05,0-.09,0-.14-.02ZM340.19,284.38c-.06-.25.1-.5.34-.55.59-.14,1.19-.27,1.78-.4.25-.05.49.11.55.36.05.25-.11.49-.36.55-.59.12-1.17.26-1.76.39-.03,0-.07.01-.1.01-.21,0-.4-.14-.45-.36ZM367.49,283.89c-.59-.14-1.18-.28-1.76-.4-.25-.05-.41-.3-.36-.55.05-.25.3-.41.55-.36.59.12,1.19.26,1.79.41.25.06.4.31.34.56-.05.21-.24.35-.45.35-.04,0-.07,0-.11-.01ZM344.33,283.49c-.05-.25.12-.49.37-.54.6-.11,1.2-.21,1.8-.31.25-.04.49.13.53.38.04.25-.13.49-.38.53-.59.1-1.19.2-1.78.31-.03,0-.06,0-.08,0-.22,0-.41-.16-.45-.38ZM348.51,282.81c-.03-.25.15-.48.4-.52.61-.08,1.21-.15,1.81-.21.25-.02.48.16.51.41.03.25-.16.48-.41.51-.6.06-1.19.13-1.79.21-.02,0-.04,0-.06,0-.23,0-.43-.17-.46-.4ZM363.37,283.05c-.6-.09-1.2-.17-1.78-.24-.25-.03-.44-.26-.41-.51.03-.25.25-.43.51-.41.6.07,1.21.15,1.82.24.25.04.42.27.38.53-.04.23-.23.39-.45.39-.02,0-.05,0-.07,0ZM352.72,282.36c-.02-.25.17-.47.43-.49.61-.04,1.21-.08,1.82-.1.26,0,.47.19.48.44.01.25-.19.47-.44.48-.6.03-1.2.06-1.8.1-.01,0-.02,0-.03,0-.24,0-.44-.19-.46-.43ZM359.21,282.64c-.24,0-.48-.01-.71-.02-.22,0-.44,0-.66,0h-.42s0,0,0,0c-.25,0-.46-.2-.46-.46,0-.25.2-.46.46-.46h.43c.22,0,.45,0,.67,0,.24,0,.49,0,.73.02.25,0,.45.22.44.48,0,.25-.21.44-.46.44,0,0-.01,0-.02,0Z"/>
      <path class="st1" d="M409.09,298.6s-.54-.37-1.51-1.02c-.21-.14-.27-.43-.13-.64.14-.21.43-.27.64-.13.99.65,1.53,1.03,1.53,1.03.21.15.26.43.12.64-.09.13-.23.2-.38.2-.09,0-.18-.03-.26-.08ZM405.55,296.25c-.47-.3-.98-.63-1.53-.98-.22-.14-.28-.42-.14-.64.13-.22.42-.28.64-.14.55.35,1.07.68,1.54.98.21.14.28.42.14.64-.09.14-.24.21-.39.21-.09,0-.17-.02-.25-.07ZM296.92,295.82c-.11-.23-.01-.5.22-.62l1.64-.79c.23-.11.5-.01.61.22.11.23.01.5-.22.62l-1.64.79c-.06.03-.13.05-.2.05-.17,0-.34-.1-.42-.26ZM300.75,293.99c-.11-.23-.01-.5.22-.61l1.64-.78c.23-.11.5-.01.61.22.11.23.01.5-.22.61l-1.64.78c-.06.03-.13.04-.2.04-.17,0-.34-.1-.42-.26ZM401.96,294c-.5-.3-1.02-.62-1.55-.94-.22-.13-.29-.41-.16-.63.13-.22.41-.29.63-.16.54.32,1.06.64,1.56.95.22.13.29.42.15.63-.09.14-.24.22-.39.22-.08,0-.16-.02-.24-.07ZM304.58,292.18c-.11-.23,0-.51.22-.61.55-.26,1.1-.51,1.65-.77.23-.11.5,0,.61.22.11.23,0,.5-.22.61-.55.25-1.1.51-1.65.77-.06.03-.13.04-.19.04-.17,0-.34-.1-.42-.27ZM398.33,291.82c-.51-.3-1.03-.6-1.57-.91-.22-.13-.3-.41-.17-.63.13-.22.41-.3.63-.17.54.31,1.06.61,1.58.91.22.13.29.41.16.63-.09.15-.24.23-.4.23-.08,0-.16-.02-.23-.06ZM308.42,290.4c-.11-.23,0-.5.23-.61.55-.25,1.1-.5,1.66-.75.23-.1.5,0,.61.23.1.23,0,.5-.23.61-.55.25-1.1.5-1.65.75-.06.03-.13.04-.19.04-.17,0-.34-.1-.42-.27ZM394.65,289.72c-.52-.29-1.05-.58-1.59-.87-.22-.12-.31-.4-.19-.63.12-.22.4-.31.63-.18.54.29,1.07.59,1.6.88.22.12.3.4.18.63-.08.15-.24.24-.4.24-.08,0-.15-.02-.22-.06ZM312.29,288.66c-.1-.23,0-.51.23-.61.56-.25,1.11-.49,1.67-.73.23-.1.5,0,.61.24.1.23,0,.5-.24.61-.55.24-1.11.48-1.66.73-.06.03-.12.04-.19.04-.18,0-.35-.1-.42-.27ZM390.92,287.7c-.53-.28-1.07-.56-1.61-.84-.23-.12-.32-.39-.2-.62.12-.23.39-.32.62-.2.55.28,1.09.56,1.62.84.23.12.31.4.19.62-.08.16-.24.25-.41.25-.07,0-.15-.02-.21-.05ZM316.17,286.96c-.1-.23,0-.5.24-.6.56-.24,1.12-.47,1.68-.7.23-.1.5.01.6.25.1.23-.01.5-.25.6-.56.23-1.11.46-1.67.7-.06.03-.12.04-.18.04-.18,0-.35-.11-.42-.28ZM387.15,285.78c-.54-.27-1.08-.53-1.63-.79-.23-.11-.33-.39-.22-.61.11-.23.38-.33.61-.22.55.26,1.1.53,1.64.8.23.11.32.39.21.62-.08.16-.24.26-.41.26-.07,0-.14-.02-.2-.05ZM320.08,285.34c-.09-.24.02-.5.26-.6.57-.23,1.13-.45,1.69-.67.24-.09.5.02.6.26.09.24-.02.5-.26.6-.56.22-1.12.44-1.68.67-.06.02-.12.03-.17.03-.18,0-.36-.11-.43-.29ZM324.03,283.79c-.09-.24.03-.5.27-.59.57-.22,1.14-.43,1.71-.63.24-.09.5.04.59.27.09.24-.04.5-.27.59-.56.21-1.13.42-1.7.63-.05.02-.11.03-.16.03-.19,0-.36-.11-.43-.3ZM383.34,283.96c-.55-.25-1.1-.5-1.65-.74-.23-.1-.34-.37-.24-.61.1-.23.38-.34.61-.24.56.25,1.11.5,1.66.75.23.11.33.38.23.61-.08.17-.24.27-.42.27-.06,0-.13-.01-.19-.04ZM328.01,282.33c-.08-.24.04-.5.28-.59.58-.2,1.15-.4,1.72-.59.24-.08.5.05.58.29.08.24-.05.5-.29.58-.57.19-1.14.39-1.71.58-.05.02-.1.03-.15.03-.19,0-.37-.12-.44-.31ZM379.46,282.26c-.56-.23-1.12-.46-1.68-.68-.24-.09-.35-.36-.26-.6.09-.24.36-.35.6-.26.56.22,1.13.45,1.69.69.23.1.35.37.25.6-.07.18-.25.28-.43.28-.06,0-.12-.01-.18-.04ZM332.03,280.98c-.08-.24.06-.5.3-.58.58-.18,1.16-.36,1.74-.53.25-.07.5.07.57.31.07.24-.07.5-.31.57-.58.17-1.15.35-1.73.53-.05.01-.09.02-.14.02-.2,0-.38-.13-.44-.32ZM375.53,280.71c-.57-.21-1.14-.41-1.7-.61-.24-.08-.37-.35-.28-.59.08-.24.35-.37.59-.28.57.2,1.15.41,1.72.62.24.09.36.35.27.59-.07.19-.24.3-.43.3-.05,0-.11,0-.16-.03ZM336.09,279.76c-.07-.25.08-.5.32-.57.59-.16,1.18-.32,1.76-.47.25-.06.5.08.56.33.06.25-.08.5-.33.56-.58.15-1.16.31-1.75.47-.04.01-.08.02-.12.02-.2,0-.39-.13-.44-.34ZM371.54,279.34c-.58-.18-1.16-.35-1.73-.52-.24-.07-.39-.32-.32-.57.07-.24.33-.39.57-.32.58.17,1.17.34,1.75.53.24.08.38.33.3.58-.06.2-.24.32-.44.32-.05,0-.09,0-.14-.02ZM340.19,278.7c-.06-.25.1-.5.34-.55.6-.14,1.19-.27,1.78-.4.25-.05.49.11.55.36.05.25-.11.49-.36.55-.59.12-1.17.26-1.76.39-.04,0-.07.01-.1.01-.21,0-.4-.14-.45-.36ZM367.49,278.21c-.59-.14-1.18-.28-1.76-.4-.25-.05-.41-.3-.36-.55.05-.25.3-.41.55-.36.59.12,1.19.26,1.79.41.25.06.4.31.34.56-.05.21-.24.35-.45.35-.04,0-.07,0-.11-.01ZM344.33,277.82c-.05-.25.12-.49.37-.54.6-.11,1.2-.21,1.8-.31.25-.04.49.13.53.38.04.25-.13.49-.38.53-.59.1-1.19.2-1.78.31-.03,0-.06,0-.08,0-.22,0-.41-.16-.45-.38ZM348.51,277.13c-.03-.25.15-.48.4-.52.61-.08,1.21-.15,1.81-.21.25-.02.48.16.51.41.03.25-.16.48-.41.51-.6.06-1.19.13-1.79.21-.02,0-.04,0-.06,0-.23,0-.43-.17-.46-.4ZM363.37,277.38c-.6-.09-1.2-.17-1.78-.24-.25-.03-.44-.26-.41-.51.03-.25.25-.43.51-.41.59.06,1.2.15,1.82.24.25.04.42.27.38.53-.04.23-.23.39-.45.39-.02,0-.05,0-.07,0ZM352.72,276.68c-.02-.25.17-.47.43-.49.61-.04,1.21-.08,1.82-.1.26,0,.47.19.48.44.01.25-.19.47-.44.48-.6.03-1.2.06-1.8.1-.01,0-.02,0-.03,0-.24,0-.44-.19-.46-.43ZM359.21,276.96c-.24,0-.48-.01-.71-.02-.22,0-.44,0-.66,0h-.42s0,0,0,0c-.25,0-.46-.2-.46-.46,0-.25.2-.46.46-.46h.43c.22,0,.45,0,.67,0,.24,0,.49,0,.73.02.25,0,.45.22.44.48,0,.25-.21.44-.46.44,0,0-.01,0-.02,0Z"/>
    </g>
    <path class="st1" d="M425.21,98.63c.39,0,.78-.18,1.02-.53.4-.56.26-1.34-.3-1.74-6.68-4.7-13.02-9.22-19.16-13.59-21.18-15.08-39.47-28.1-54.74-36.48-24.5-13.45-40.6-16.85-41.27-16.99-.44-.09-.9.07-1.2.41l-6.57,7.67c-.45.52-.39,1.31.14,1.76.52.45,1.31.39,1.76-.14l6.08-7.1c3.38.81,18.56,4.87,39.86,16.57,15.15,8.31,33.38,21.3,54.5,36.33,6.14,4.37,12.49,8.89,19.18,13.59.22.15.47.23.72.23Z"/>
    <path class="st1" d="M428.86,111.13c.4,0,.79-.19,1.03-.55.39-.57.24-1.35-.33-1.73-18.97-12.85-54.29-36.78-81.89-51.34-23.73-12.52-43.17-18.42-43.37-18.48-.66-.2-1.36.18-1.55.84-.2.66.18,1.36.84,1.55.19.06,19.42,5.9,42.92,18.3,27.48,14.49,62.72,38.37,81.66,51.19.21.15.46.21.7.21Z"/>
  </g>
</svg>